<svg id="Ebene_1" data-name="Ebene 1" xmlns="http://www.w3.org/2000/svg" xmlns:xlink="http://www.w3.org/1999/xlink" viewBox="0 0 566.9 129.2"><defs><linearGradient id="linear-gradient" x1="280.59" y1="753.2" x2="280.59" y2="840.1" gradientTransform="translate(0 -712)" gradientUnits="userSpaceOnUse"><stop offset="0.35" stop-color="#f8f8f8"/><stop offset="0.72" stop-color="#93d4ef"/></linearGradient><linearGradient id="linear-gradient-2" x1="366.28" y1="752.9" x2="366.28" y2="839.9" xlink:href="#linear-gradient"/><linearGradient id="linear-gradient-3" x1="433.09" y1="748.9" x2="433.09" y2="839.85" xlink:href="#linear-gradient"/><linearGradient id="linear-gradient-4" x1="60.55" y1="-2164.39" x2="60.55" y2="-2097.29" gradientTransform="matrix(1, 0, 0, -1, 2.35, -2037.89)" gradientUnits="userSpaceOnUse"><stop offset="0.06" stop-color="#53b848"/><stop offset="0.55" stop-color="#65ccec"/><stop offset="0.58" stop-color="#61c3e7"/><stop offset="0.69" stop-color="#55a7d8"/><stop offset="0.79" stop-color="#4d92cd"/><stop offset="0.9" stop-color="#4886c6"/><stop offset="1" stop-color="#4682c4"/></linearGradient><linearGradient id="linear-gradient-5" x1="72.58" y1="-2164.33" x2="179.04" y2="-2037.46" gradientTransform="matrix(1, 0, 0, -1, 2.35, -2037.89)" gradientUnits="userSpaceOnUse"><stop offset="0" stop-color="#6ebe44"/><stop offset="0" stop-color="#6ebe44"/><stop offset="0.25" stop-color="#bcda20"/><stop offset="0.42" stop-color="#eceb09"/><stop offset="0.51" stop-color="#fff200"/><stop offset="0.58" stop-color="#fbca08"/><stop offset="0.68" stop-color="#f79a11"/><stop offset="0.78" stop-color="#f47419"/><stop offset="0.86" stop-color="#f1581f"/><stop offset="0.94" stop-color="#f04822"/><stop offset="1" stop-color="#ef4223"/></linearGradient><linearGradient id="linear-gradient-6" x1="32.05" y1="-2164.39" x2="32.05" y2="-2097.29" xlink:href="#linear-gradient-4"/><linearGradient id="linear-gradient-7" x1="44.08" y1="-2164.33" x2="150.54" y2="-2037.46" xlink:href="#linear-gradient-5"/><linearGradient id="linear-gradient-8" x1="164.01" y1="750" x2="164.01" y2="840.01" xlink:href="#linear-gradient"/><linearGradient id="linear-gradient-9" x1="505.21" y1="750.21" x2="505.21" y2="840.21" xlink:href="#linear-gradient"/></defs><title>system</title><g style="isolation:isolate"><path d="M314.5,41.2l29.8.2c.6,0,4.7.7-.5,2-4.1,1.1-7.4.7-8.8,6l-16,64.5c-1.3,5.8,3.2,10.7,9,12.3,1.3.3,1.4,1.7-.2,1.8l-19.6-.7-23.8.8c-1.7,0-1.8-1.8.1-2.1,5.6-.6,10.5-5.2,11.5-8.9L311.7,61c0-.8-.4-1.3-.9-1.3s-.7.2-1,.7l-44,63.9c-1.2,2-3.1,3.3-4.8,3.3s-3.4-1.5-3.6-5.4L253,62.6a1.52,1.52,0,0,0-1.4-1.5,1.24,1.24,0,0,0-1.2,1l-15.1,47.3c-1.2,3.6-1.3,7.1.1,9.6a15.42,15.42,0,0,0,9.6,6.7c1.7.4,1.6,2.1,0,2.2l-15.8-.7-13.3.5c-1.6-.1-1.4-1.6,0-1.9,4.6-1,9.8-5.6,12.2-12.3l19.6-62.9a4.51,4.51,0,0,0-2.9-5.8l-6.1-1.2c-1.1-.1-1.2-1.6,0-1.6l34.7-.3,3.5,54.8,2.5-3.1,33.1-49.2A19.48,19.48,0,0,0,314.5,41.2Z" transform="translate(0 0)" style="fill:url(#linear-gradient)"/><path d="M282.8,128.6a1.91,1.91,0,0,1-.7-1.4h0a2.45,2.45,0,0,1,2.2-2.2h0c5.1-.5,9.8-4.9,10.7-8.2h0l15.6-55.9-44,63.9c-1.4,2.2-3.5,3.7-5.7,3.7h0a3.88,3.88,0,0,1-3.2-1.6h0a8.45,8.45,0,0,1-1.4-4.7h0l-4.4-59.6a.55.55,0,0,0-.4-.5h0s-.1,0-.2.3h0l-15.1,47.3a14.45,14.45,0,0,0-.9,4.8h0a7.44,7.44,0,0,0,1,4h0a14.5,14.5,0,0,0,9,6.2h0a2.43,2.43,0,0,1,2,2.2h0a2.12,2.12,0,0,1-2.2,2H245l-15.8-.7-13.3.5h0a2.07,2.07,0,0,1-2.1-1.8h0a2.14,2.14,0,0,1,1.9-2h0c4.1-.9,9.2-5.3,11.5-11.6h0l19.6-62.9a5,5,0,0,0,.2-1.2h0a3.31,3.31,0,0,0-2.3-3.3h0l-6-1.2a1.93,1.93,0,0,1-1.7-1.9h0a1.85,1.85,0,0,1,.5-1.2h0a2.35,2.35,0,0,1,1.3-.5h0l35.7-.3L277.9,94l.9-1.1,33.1-49.1c.4-.7,1.4-2.2,1.9-3.1h0l.3-.6,30.4.2a4.87,4.87,0,0,1,2.3.6h0a1.61,1.61,0,0,1,.8,1.2h0a1.54,1.54,0,0,1-1.1,1.4h0a10.48,10.48,0,0,1-2.2.8h0a30,30,0,0,0-5.2,1.3h0c-1.3.6-2.1,1.5-2.8,3.9h0l-16.1,64.6a11,11,0,0,0-.2,1.8h0c0,4.3,3.7,8,8.4,9.3h0a2.23,2.23,0,0,1,1.8,1.9h0a2,2,0,0,1-2.1,1.8H328l-19.6-.7-23.8.8h0a2.43,2.43,0,0,1-1.8-.4Zm1.6-1.5,23.8-.8,18.8.7c-5.1-1.6-9.2-5.8-9.3-11h0a9.69,9.69,0,0,1,.3-2.3h0l16.1-64.6c.7-2.8,2.1-4.5,3.9-5.2h0c1.7-.8,3.6-.9,5.6-1.5h.1l-28.6-.2c-.6,1-1.3,2.2-1.7,2.8h0L280.2,94.2,276,99.3,272.4,43l-32,.3,4.4.9a5.37,5.37,0,0,1,3.9,5.3h0a5.66,5.66,0,0,1-.3,1.8h0L228.9,114c-2.4,6.7-7.5,11.5-12.4,12.8h0l12.6-.5,15.8.7h.2c-.1-.1-.2-.1-.4-.2h0a16,16,0,0,1-10.3-7.2h0a9.5,9.5,0,0,1-1.2-5h0a18.29,18.29,0,0,1,1-5.5h0l15.1-47.3a2.34,2.34,0,0,1,2.2-1.7h0a2.43,2.43,0,0,1,2.4,2.4h0l4.4,59.6a6.73,6.73,0,0,0,1,3.6h0a1.93,1.93,0,0,0,1.6.8h0a5.38,5.38,0,0,0,4-2.8h0l44-63.9a2.09,2.09,0,0,1,1.8-1.2h0a1.91,1.91,0,0,1,1.4.7h0a2.77,2.77,0,0,1,.5,1.6h0V61L297,117.3c-1.3,4.2-6.3,8.9-12.3,9.6h0c-.2,0-.3.1-.4.1h0c0,.1,0,.1.1.1Z" transform="translate(0 0)"/></g><g style="isolation:isolate"><path d="M359.4,40.9l40,.3c1.9,0,2.8,3.3-1,3.7-4,.4-8.2,3.2-9.2,6.6l-18.7,64.8c-.9,3.4,1.6,9.2,8.1,9.7,1.1.2,1.1,1.9.1,1.9L355,127l-22.7.7c-1.2,0-.9-1.6.2-1.8,3.1-.6,12.2-4.1,13.9-9.6l20.9-64.7c1.3-4.7-3-6.9-7.9-8.1C358.2,43.3,358.4,41,359.4,40.9Z" transform="translate(0 0)" style="fill:url(#linear-gradient-2)"/><path d="M378.6,128.9,355,128l-22.7.7a1.9,1.9,0,0,1-1.3-.5h0a1.85,1.85,0,0,1-.5-1.2h0a2.12,2.12,0,0,1,1.8-2.1h0a23,23,0,0,0,7.1-2.8h0c2.8-1.6,5.3-3.8,6-6.1h0l20.9-64.7a6.88,6.88,0,0,0,.2-1.3h0a4.16,4.16,0,0,0-2-3.4h0a17.25,17.25,0,0,0-5.3-2.1h0a1.65,1.65,0,0,1-1.2-.9h0a2.66,2.66,0,0,1-.3-1.2h0A3.19,3.19,0,0,1,358,41h0a1.93,1.93,0,0,1,1.4-1h0l40,.3A2.6,2.6,0,0,1,402,43h0c0,1.5-1.4,2.9-3.5,3h0c-3.6.3-7.6,3.1-8.3,5.9h0l-18.7,64.8a4.87,4.87,0,0,0-.1,1.2h0a7.45,7.45,0,0,0,7.3,7.2h.2a2.08,2.08,0,0,1,1.6,2h0a1.92,1.92,0,0,1-.4,1.2h0a2.81,2.81,0,0,1-1.5.6Zm-1.5-2a9.37,9.37,0,0,1-7.8-9h0a8.81,8.81,0,0,1,.2-1.7h0l18.7-64.8c1.2-4,5.7-6.9,10.1-7.4h0c1.6-.2,1.7-.7,1.7-1h0a.67.67,0,0,0-.6-.7h0L359.6,42c0,.1-.1.3-.1.4h0v.2h0a17.42,17.42,0,0,1,5.9,2.4h0a6,6,0,0,1,2.9,5h0a6.8,6.8,0,0,1-.3,1.9h0l-20.9,64.7c-1,3.2-3.9,5.5-6.9,7.3h0a27.21,27.21,0,0,1-6.8,2.8h0L355,126l22.1.9Z" transform="translate(0 0)"/></g><g style="isolation:isolate"><path d="M464.1,36.9a59.55,59.55,0,0,1,12,1.1c2.5.5,5.5,1.6,4.7,3.7L475,56.8c-.5,1.5-1.2,2.5-2,2.5-1.1,0-2.2-1.8-2.6-6.2-.2-2.4.2-11.2-3.1-11.4-.9,0-1.7-.1-2.5-.1A51.2,51.2,0,0,0,449.4,44c-18.1,5.8-29.5,15.6-37.1,32.5-7.4,16.2-3.7,33.7,1.5,39.7,3.6,4.1,11.9,6.9,18.3,6.9,3.8,0,6.8-1,7.9-3.2,3.5-8.3,5.1-18.5,4.8-23.2,0-5.6-2.2-6.1-6.4-6.9-3-.3-3.9-2.2,1.6-2.2h27.9c3.2,0,6.6,0,10.1-.1,1,.5.9.9-.1,1.4-6,.9-8.4,2-8.9,4.3-2.3,7.8-4.4,16.4-8.1,24.5-1.3,2.9-7.6,5.6-9.6,6.2-6.4,2.3-16.9,4.1-27,4.1-8.1,0-15.8-1.2-20.8-4.2-18.7-11.4-22.1-33.1-14.4-47.4C400.1,55,434.3,36.9,464.1,36.9Z" transform="translate(0 0)" style="fill:url(#linear-gradient-3)"/><path d="M402.7,124.5C389.8,116.6,384,103.9,384,92h0a35.22,35.22,0,0,1,3.9-16.2h0c11.6-21.7,46-39.8,76.2-39.9h0v2c-29.5,0-63.4,18-74.5,38.8h0A32.63,32.63,0,0,0,385.9,92h0c0,11.3,5.5,23.3,17.8,30.8h0c4.7,2.9,12.3,4,20.3,4h0c9.9,0,20.4-1.8,26.7-4h0a37,37,0,0,0,4.9-2.1h0c1.9-1.1,3.7-2.5,4.1-3.5h0c3.7-7.9,5.8-16.5,8.1-24.3h0a5.09,5.09,0,0,1,3-3.3h0a18.16,18.16,0,0,1,3.3-1.1H439.8c-.9,0-1.6.1-2.1.1h0c.2,0,.4.1.6.1h0c2.1.4,3.8.7,5.2,1.8h0c1.4,1.2,2,3.1,2,6h0v1.3h0c0,5.3-1.7,14.5-4.9,22.3h0c-1.4,2.9-4.9,3.8-8.8,3.8h0c-6.7,0-15.1-2.8-19-7.2h0c-3.4-3.9-5.9-11.6-5.9-20.9h0a47.39,47.39,0,0,1,4.3-19.9h0c7.6-17.1,19.4-27.2,37.7-33h0a53.72,53.72,0,0,1,15.7-2.4h0a22.6,22.6,0,0,1,2.6.1h0a3.29,3.29,0,0,1,2.7,2.1h0a13.64,13.64,0,0,1,1,3.6h0c.4,2.6.3,5.5.4,6.6h0c.2,3.2,1,4.9,1.4,5.2h0l.1.1h0s.1,0,.4-.3h0a5.29,5.29,0,0,0,.7-1.5h0l5.9-15c0-.1.1-.2.1-.3h0c0-.3-.2-.7-1.1-1.2h0a11.73,11.73,0,0,0-3-1h0a65.56,65.56,0,0,0-11.8-1h0v-2A61.54,61.54,0,0,1,476.2,37h0a11.18,11.18,0,0,1,3.5,1.2h0a3.58,3.58,0,0,1,2.1,2.9h0a4.4,4.4,0,0,1-.2,1h0l-5.9,15c-.5,1.6-1.3,3-3,3.1h0a2.88,2.88,0,0,1-2.5-2h0a17,17,0,0,1-1.1-5.1h0c-.1-1.9,0-7.3-1.2-9.5h0c-.4-.7-.7-.9-1-1h0c-.8,0-1.7-.1-2.5-.1h0a52.46,52.46,0,0,0-15.1,2.3h0c-17.9,5.7-29,15.3-36.5,31.9h0a46.35,46.35,0,0,0-4.1,19.1h0c0,8.8,2.5,16.3,5.4,19.5h0c3.2,3.7,11.4,6.6,17.5,6.5h0c3.6,0,6.3-1,7-2.6h0c3.1-7.5,4.8-16.7,4.8-21.5h0V96.5h0v-.1h0c0-2.7-.5-3.8-1.3-4.5h0c-.8-.7-2.2-1-4.3-1.4h0a5.25,5.25,0,0,1-2-.6h0a2.07,2.07,0,0,1-1.2-1.6h0a1.74,1.74,0,0,1,.6-1.2h0a3.13,3.13,0,0,1,1-.5h0a13.68,13.68,0,0,1,3.4-.4h27.9c3.2,0,6.6,0,10.1-.1h.2l.2.1c.5.3,1.2.6,1.3,1.6h0c-.1,1.1-.8,1.3-1.3,1.6h0l-.1.1h-.2a22.13,22.13,0,0,0-6.2,1.5h0c-1.3.6-1.7,1.2-1.9,2h0c-2.3,7.8-4.4,16.5-8.2,24.6h0c-.9,1.8-2.9,3.2-5,4.4h0a27.65,27.65,0,0,1-5.2,2.3h0c-6.5,2.3-17.1,4.1-27.3,4.1h0c-8,.4-15.9-.7-21.2-3.9Z" transform="translate(0 0)"/></g><path d="M558.2,127.5v-5h-1.9v-.7h4.5v.7h-1.9v5Z" transform="translate(0 0)" style="fill:#878787"/><path d="M561.5,127.5v-5.6h1.1l1.3,4a2.19,2.19,0,0,0,.3.8,4.65,4.65,0,0,0,.3-.9l1.4-3.9h1v5.6h-.7v-4.7l-1.6,4.7h-.7l-1.6-4.8v4.8Z" transform="translate(0 0)" style="fill:#878787"/><polygon points="28.5 59.4 52.4 59.4 97.3 126.5 73.6 126.5 28.5 59.4" style="fill:url(#linear-gradient-4)"/><polygon points="158.3 0 181.9 0 97.6 126.5 75 126.5 158.3 0" style="fill:url(#linear-gradient-5)"/><polygon points="0 59.4 23.9 59.4 68.8 126.5 45.1 126.5 0 59.4" style="fill:url(#linear-gradient-6)"/><polygon points="129.8 0 153.4 0 69.1 126.5 46.5 126.5 129.8 0" style="fill:url(#linear-gradient-7)"/><path d="M154.3,97.1l-11.6,16.5c-3.5,5.4,3.1,11,10.3,12.4.7.5.5,2.2-.4,2.2a.37.37,0,0,1-.3-.1c-.1-.1-2.9-1.2-9-1.8a60.8,60.8,0,0,0-8.2-.7c-1.2,0-2.6.1-3.9.2l-13,1.8c-1.2-.1-1.2-1.6,0-1.9,6.3-.8,13.8-5.5,18.3-11.8l53-73.9a5.55,5.55,0,0,1,4.6-2c2.3,0,4.5,1.2,4.5,3.9l1.7,74c.6,6.2,4.7,8.8,10,10.3a.92.92,0,0,1-.1,1.6,112.71,112.71,0,0,1-14.5-1.3,27.74,27.74,0,0,0-4.9-.4,44.06,44.06,0,0,0-5.6.4c-3,.3-1.6.4-13.9.9-.5,0-.9-.1-1-.9.1-.9,1.5-1.3,1.9-1.5,4.9-1.4,7.3-3.8,8.4-9.8,1.2-6.6.9-12.3.7-18.1Zm19.1-4.4c2.7,0,5.2,0,7.1.1L179.8,62c-.1-.4-.3-.6-.5-.6a.51.51,0,0,0-.5.4c-6.6,9.3-15.6,20.7-22.1,30-.4.7,0,1,1,1h7.6c2.5,0,5.4-.1,8.1-.1" transform="translate(0 0)" style="fill:url(#linear-gradient-8)"/><path d="M152.5,129.1a1.7,1.7,0,0,1-.7-.1h0s-2.6-1.1-8.7-1.7h0a60.6,60.6,0,0,0-8.1-.7h0c-1.2,0-2.5.1-3.8.2h0l-13.1,1.8H118a2,2,0,0,1-1.9-1.8h0a2.12,2.12,0,0,1,1.7-2h.2c5.9-.7,13.3-5.3,17.6-11.4h0l53-73.9a6.42,6.42,0,0,1,5.4-2.4h0a6.18,6.18,0,0,1,3.7,1.1h0a4.46,4.46,0,0,1,1.8,3.7h0l1.7,73.9c.6,5.7,4.1,7.9,9.2,9.4h.2l.1.1a2.06,2.06,0,0,1,.9,1.6h0a1.83,1.83,0,0,1-1.2,1.8h0l-.2.1H210a112.24,112.24,0,0,1-14.6-1.3h0a26.65,26.65,0,0,0-4.8-.4h0a43.9,43.9,0,0,0-5.5.4h0c-3,.3-1.7.4-13.9.9h-.1a2.13,2.13,0,0,1-1.2-.4h0a2.35,2.35,0,0,1-.7-1.4h0v-.2a2.35,2.35,0,0,1,1.3-1.8h0a3.62,3.62,0,0,1,1.3-.5h0c4.6-1.4,6.5-3.2,7.7-9.1h0a56.46,56.46,0,0,0,.8-10.6h0c0-2.1-.1-4.2-.1-6.3h0l-25.1-.2-11.3,16a4.32,4.32,0,0,0-.8,2.5h0c-.1,3.4,4.8,7.3,10.4,8.3h.2l.2.2a2.3,2.3,0,0,1,.8,1.8h0a2.2,2.2,0,0,1-.4,1.3h0a2.08,2.08,0,0,1-1.7,1.1Zm-9.3-3.8a34.59,34.59,0,0,1,9.1,1.8h0V127h0v-.1h0c-5.9-1.3-11.5-5.1-11.6-10.2h0a7.17,7.17,0,0,1,1.1-3.6h0l11.6-16.5.3-.4,28.1.2v1c.1,2.4.2,4.8.2,7.3h0a62.59,62.59,0,0,1-.9,11h0c-1,6.2-4,9.3-9.1,10.6h0a2.26,2.26,0,0,0-.9.4h0c12-.5,10.4-.6,13.5-.9h0a45.44,45.44,0,0,1,5.7-.4h0a43.79,43.79,0,0,1,5.1.4h0c5.6.8,10.6,1.1,13,1.2h0c-4.8-1.6-8.9-4.6-9.5-10.8h0l-1.7-74a2.58,2.58,0,0,0-1-2.2h0a3.9,3.9,0,0,0-2.5-.7h0a4.84,4.84,0,0,0-3.8,1.6h0l-53,73.9a31.5,31.5,0,0,1-16.5,11.7h0l10.4-1.5a28.84,28.84,0,0,1,4.1-.2h0a41.8,41.8,0,0,1,8.3.5Zm11.1-27.2v0Zm26.2-4.3c-1.9,0-4.4-.1-7.1-.1h0v-2h6.1l-.6-28.3C172.5,72.3,164.1,83,158,91.8h15.4v2H157.6a2,2,0,0,1-1.1-.2h0a1.32,1.32,0,0,1-.9-1.3h0a1.69,1.69,0,0,1,.3-1h0c6.5-9.3,15.5-20.7,22-29.9h0a1.62,1.62,0,0,1,1.4-.9h0a1.37,1.37,0,0,1,1,.5h0a3,3,0,0,1,.4.8h0v.1l.7,32-.9-.1Z" transform="translate(0 0)"/><path d="M551.4,126.4a.92.92,0,0,1-.1,1.6,123.83,123.83,0,0,1-14.5-1.2,28.86,28.86,0,0,0-5-.4,44.06,44.06,0,0,0-5.6.4c-3,.3-1.6.4-13.9.9-.5,0-.9-.1-1-.9.1-.9,1.5-1.3,1.9-1.5,4.9-1.3,7.3-3.8,8.4-9.8,1.2-6.6.8-12.3.7-18.1l-26.6-.2-11.6,16.5c-3.4,5.4,3.1,11,10.3,12.3.7.5.5,2.2-.4,2.2a.76.76,0,0,1-.4-.1c-.1-.1-2.9-1.2-9-1.8a59.21,59.21,0,0,0-8.2-.7c-1.2,0-2.6.1-3.9.2l-13,1.8c-1.2-.1-1.2-1.6,0-1.9,6.3-.8,13.8-5.5,18.3-11.8l53-73.9a5.55,5.55,0,0,1,4.6-2c2.3,0,4.5,1.2,4.5,3.9l1.7,74C542,122.3,546.2,124.9,551.4,126.4ZM514.8,92.9c2.7,0,5.3,0,7.2.1l-.7-30.8c-.1-.4-.3-.6-.5-.6a.51.51,0,0,0-.5.4c-6.6,9.3-15.6,20.7-22.1,30-.4.7,0,1,1,1h7.6c2.4-.1,5.3-.1,8-.1" transform="translate(0 0)" style="fill:url(#linear-gradient-9)"/><path d="M494,129.2a1.7,1.7,0,0,1-.7-.1h0a36.39,36.39,0,0,0-8.7-1.7h0a60.8,60.8,0,0,0-8.2-.7h0c-1.2,0-2.5.1-3.8.2h0l-13.1,1.8h-.1a1.79,1.79,0,0,1-1.8-1.8h0a2.12,2.12,0,0,1,1.7-2h.2c5.9-.7,13.3-5.3,17.6-11.4h0l53-73.9a6.42,6.42,0,0,1,5.4-2.4h0a6.18,6.18,0,0,1,3.7,1.1h0A4.46,4.46,0,0,1,541,42h0l1.7,73.9c.6,5.7,4.1,7.9,9.2,9.4h0l-.3,1,.3-1h.1l.1.1a2.06,2.06,0,0,1,.9,1.6h0a1.71,1.71,0,0,1-1.2,1.8h0l-.2.1h-.2a123.26,123.26,0,0,1-14.6-1.2h0a27.74,27.74,0,0,0-4.9-.4h0a43.9,43.9,0,0,0-5.5.4h0c-3,.3-1.7.4-13.9.9h-.1a2.13,2.13,0,0,1-1.2-.4h0a2.35,2.35,0,0,1-.7-1.4h0v-.2a2.35,2.35,0,0,1,1.3-1.8h0a3.62,3.62,0,0,1,1.3-.5h0c4.7-1.4,6.6-3.2,7.7-9.1h0a55.44,55.44,0,0,0,.8-10.5h0c0-2.1-.1-4.2-.1-6.4h0l-25.1-.1-11.3,16a4.32,4.32,0,0,0-.8,2.5h0c-.1,3.4,4.8,7.3,10.4,8.3h.2l.2.2a2.3,2.3,0,0,1,.8,1.8h0a2.2,2.2,0,0,1-.4,1.3h0a1.86,1.86,0,0,1-1.5.9Zm-9.3-3.8a34.59,34.59,0,0,1,9.1,1.8h0v-.1h0V127h0c-5.9-1.3-11.5-5.1-11.6-10.2h0a7.17,7.17,0,0,1,1.1-3.6h0l11.9-16.9,28.1.2v1c.1,2.5.2,4.9.2,7.4h0a60.77,60.77,0,0,1-.9,10.9h0c-1,6.2-4,9.3-9.1,10.6h0a2.26,2.26,0,0,0-.9.4h0c12-.5,10.4-.6,13.5-.9h0a45.44,45.44,0,0,1,5.7-.4h0a43.79,43.79,0,0,1,5.1.4h0c5.6.8,10.6,1.1,12.9,1.2h0c-4.8-1.6-8.9-4.6-9.4-10.8h0l-1.7-74a2.58,2.58,0,0,0-1-2.2h0a3.9,3.9,0,0,0-2.5-.7h0a4.84,4.84,0,0,0-3.8,1.6h0l-53,73.9a31.5,31.5,0,0,1-16.5,11.7h0l10.4-1.5a28.84,28.84,0,0,1,4.1-.2h0a43.06,43.06,0,0,1,8.3.5Zm-25.3,1.5Zm62.5-33c-1.9,0-4.4-.1-7.1-.1h0v-2h6.1l-.6-28.4c-6.4,9-14.8,19.6-20.9,28.4h15.4v2H499a2,2,0,0,1-1.1-.2h0a1.32,1.32,0,0,1-.9-1.3h0a1.69,1.69,0,0,1,.3-1h0c6.5-9.3,15.5-20.7,22-29.9h0a1.62,1.62,0,0,1,1.4-.9h0a1.37,1.37,0,0,1,1,.5h0a2,2,0,0,1,.4.8h0v.1l.7,32Zm-7.1,0Z" transform="translate(0 0)"/></svg>