<?xml version="1.0" encoding="utf-8"?>
<!-- Generator: Adobe Illustrator 24.0.3, SVG Export Plug-In . SVG Version: 6.00 Build 0)  -->
<svg version="1.1"
	 id="Layer_3" xmlns:cc="http://creativecommons.org/ns#" xmlns:dc="http://purl.org/dc/elements/1.1/" xmlns:ns="&ns_sfw;" xmlns:rdf="http://www.w3.org/1999/02/22-rdf-syntax-ns#" xmlns:svg="http://www.w3.org/2000/svg"
	 xmlns="http://www.w3.org/2000/svg" xmlns:xlink="http://www.w3.org/1999/xlink" x="0px" y="0px" viewBox="0 0 598.2 350.3"
	 style="enable-background:new 0 0 598.2 350.3;" xml:space="preserve">
<style type="text/css">
	.st0{fill:#93D4EF;}
</style>
<g id="g5">
	<path id="path7" class="st0" d="M296.9,21.2c-5.4,0.2-10.7,0.7-16,1.3c-1.3,6-2.6,12.1-3.9,18.1c-4.3,0.9-8.5,1.7-12.7,2.9
		c-3.7-4.9-7.6-9.8-11.4-14.7c-13.1,4.3-25.6,10.3-37.2,18c1.4,6,2.9,12,4.3,18.1c-3.9,2-7.2,7.1-11,7.6c-5.2-2.6-10.5-5.2-15.7-7.8
		c-10,9.6-18.6,20.5-25.8,32.3c3.9,4.8,7.9,9.6,11.8,14.4c-2.6,3.5-3.4,9.5-6.7,11.7c-5.9-0.1-11.7-0.1-17.6-0.2
		c-4.8,13-7.9,26.6-9.2,40.3c5.6,2.6,11.2,5.2,16.8,7.9c-0.8,4.3,1,10-0.9,13.4c-5.3,2.5-10.6,5-15.9,7.4
		c1.2,13.8,4.4,27.3,9.2,40.3c6.2-0.1,12.4-0.2,18.6-0.2c1.1,4.2,5.3,8.6,5,12.4c-3.7,4.5-7.4,9.1-11.2,13.6
		c7.2,11.8,15.9,22.7,25.8,32.3c5.5-2.8,11.1-5.5,16.6-8.2c2.9,3.3,8.5,5.4,9.9,9c-1.4,5.7-2.7,11.4-4.1,17.1
		c11.6,7.7,24,13.6,37.2,18c3.8-4.9,7.6-9.7,11.4-14.7c4,1.7,10,1.2,12.9,3.8c1.2,5.7,2.5,11.4,3.7,17.1c13.7,1.9,27.6,1.9,41.3,0
		c1.3-6.1,2.6-12.1,3.9-18.2c4.4,0.1,9.9-3.7,13.4-1.8c4,4,7.1,11.2,11.6,13.3c12.8-4.3,25-10.3,36.3-17.6c-1.4-6-2.9-12.1-4.3-18.1
		c3.8-2,7.2-7.1,11-7.6c5.3,2.6,10.5,5.2,15.8,7.8c9.9-9.7,18.6-20.4,25.8-32.3c-3.9-4.8-7.8-9.6-11.7-14.4
		c2.6-3.6,3.3-9.5,6.6-11.7c5.9,0.1,11.7,0.1,17.6,0.2c4.8-12.9,7.9-26.5,9.2-40.3c-5.6-2.6-11.2-5.2-16.8-7.9
		c0.2-4.3,0.2-8.6,0-12.9c5.6-2.6,11.2-5.2,16.8-7.9c-1.3-13.8-4.4-27.4-9.2-40.3c-6.2,0.1-12.4,0.2-18.6,0.2
		c-1.2-4.2-5.3-8.6-5-12.5c3.7-4.5,7.4-9.1,11.1-13.6c-7.2-12-15.9-22.7-25.8-32.3c-5.5,2.8-11.1,5.5-16.7,8.2
		c-2.9-3.3-8.6-5.4-9.9-9c1.4-5.7,2.7-11.4,4.1-17.1c-11.5-7.5-24.1-13.7-37.2-17.9c-3.8,4.9-7.6,9.7-11.4,14.6
		c-4-1.7-10.1-1.1-12.9-3.9c-1.2-5.7-2.5-11.4-3.7-17.1C313.8,21.5,305.3,21,296.9,21.2z M299.8,27.6c5.7-0.1,11.4,0.2,17.1,0.8
		c1.3,6,2.6,12,3.9,17.9c6.9,1,13.7,2.6,20.3,4.7c3.8-4.8,7.6-9.6,11.3-14.5c9.7,3.5,19,8,27.8,13.3c-1.4,6-2.9,11.9-4.3,17.9
		c5.7,3.9,11.2,8.2,16.3,13c5.5-2.7,11-5.4,16.5-8.2c7.2,7.3,13.6,15.4,19.2,24.1c-3.9,4.7-7.7,9.5-11.6,14.2c3.5,6,6.5,12.3,9,18.8
		c6.1-0.1,12.2-0.2,18.4-0.2c3.4,9.7,5.6,19.8,6.9,30c-5.6,2.6-11.1,5.2-16.7,7.8c0.5,6.9,0.5,13.9,0,20.8
		c5.6,2.6,11.1,5.2,16.7,7.8c-1.3,10.2-3.5,20.3-6.9,30c-6.1,0-12.2-0.1-18.4-0.2c-2.5,6.5-5.5,12.7-9,18.8
		c3.9,4.7,7.7,9.5,11.6,14.2c-5.6,8.6-12,16.7-19.2,24.1c-5.5-2.7-11-5.4-16.5-8.2c-5.1,4.8-10.6,9.1-16.3,13
		c1.4,6,2.9,11.9,4.3,17.9c-8.8,5.4-18,9.9-27.7,13.3c-3.7-4.9-7.5-9.7-11.3-14.5c-6.6,2.1-13.4,3.6-20.3,4.7
		c-1.3,6-2.6,12-3.9,17.9c-10.2,1.1-20.6,1.1-30.8,0c-1.3-6-2.6-12-3.9-17.9c-6.9-1-13.7-2.6-20.3-4.7c-3.8,4.8-7.5,9.7-11.3,14.5
		c-9.7-3.5-18.9-8-27.7-13.4c1.4-6,2.9-11.9,4.3-17.9c-5.7-4-11.2-8.2-16.3-13c-5.5,2.7-11,5.4-16.4,8.2
		c-7.2-7.3-13.7-15.4-19.2-24.1c3.9-4.8,7.7-9.5,11.6-14.2c-3.5-6-6.5-12.3-9-18.8c-6.1,0.1-12.3,0.2-18.4,0.2
		c-3.3-9.7-5.6-19.7-6.8-30c5.5-2.6,11.1-5.2,16.6-7.8c-0.5-6.9-0.5-13.9,0-20.8c-5.5-2.6-11.1-5.2-16.6-7.8
		c1.2-10.3,3.5-20.3,6.8-30c6.1,0.1,12.3,0.1,18.4,0.2c2.5-6.5,5.5-12.7,9-18.8c-3.9-4.8-7.7-9.5-11.6-14.2
		c5.5-8.7,12.1-16.6,19.1-24.1c5.5,2.8,11,5.5,16.5,8.2c5.1-4.8,10.6-9,16.3-13c-1.4-6-2.9-11.9-4.3-17.9c8.8-5.3,18-9.8,27.7-13.4
		c3.7,4.9,7.5,9.7,11.3,14.5c6.7-2.1,13.4-3.6,20.3-4.7c1.3-6,2.6-12,3.9-17.9C290.6,27.9,295.2,27.6,299.8,27.6z M299.2,133.3
		c-23.7,0.6-43.9,22.9-42,46.6c0.6,23.7,22.9,43.9,46.6,42c23.8-0.7,43.9-22.9,42-46.6C345.1,151.5,323.1,131.6,299.2,133.3z
		 M300.5,139.6c21.7-1.2,41.2,19.2,38.9,40.9c-1,21.3-22.6,38.6-43.7,34.7c-21.6-2.7-37.1-26.1-31-47.1
		C268.6,152.1,283.9,139.9,300.5,139.6z"/>
</g>
</svg>
