<svg id="Layer_1" data-name="Layer 1" xmlns="http://www.w3.org/2000/svg" viewBox="0 0 566.93 94.78"><title>system</title><polygon points="556.36 78.93 554.07 78.93 554.07 78.14 559.52 78.14 559.52 78.93 557.25 78.93 557.25 85.08 556.36 85.08 556.36 78.93"/><polygon points="563.21 85.08 561.32 79.44 561.32 85.08 560.4 85.08 560.4 78.14 561.67 78.14 563.67 84.04 565.67 78.14 566.93 78.14 566.93 85.08 566.02 85.08 566.02 79.44 564.13 85.08 563.21 85.08"/><path d="M122.81,19.34c0-2.41-.45-5.52-1.52-6.84,7,0,22,.05,28.5.05,14.86,0,37.28,8.25,37.28,36.05,0,20.64-15.83,36-37.28,36-4.71,0-22.67-.06-29-.06a18.67,18.67,0,0,0,2.07-8.27V19.34Zm10.69,58.2a70.85,70.85,0,0,0,18.92.35c5.54-.79,24.16-4.81,24.05-29.53-.11-23.43-14.59-28.79-25.74-29.44a73.81,73.81,0,0,0-17.23.88V77.54Z" transform="translate(0 0)"/><path d="M193.19,34.64,203.86,33v9.41c2.74-6.77,11.26-12.21,23.37-7.5l-2.84,7.43c-11.08-5.25-20.53-.64-20.53,11.67V79.37a14.66,14.66,0,0,0,1,5.21H193.76a9.92,9.92,0,0,0,1.64-5.21V42.74c0-2.66-.55-6.77-2.21-8.1Z" transform="translate(0 0)"/><path d="M530.72,39.74V72.17c0,10.18,7,12.91,12.22,12.91a32.9,32.9,0,0,0,7.49-.89l1.33-6.29a21.59,21.59,0,0,1-7.25,1.2,5.3,5.3,0,0,1-5.61-5.55c0-3-.08-32.81,0-33.76h0c.43,0,7.2,0,7.88,0a16.09,16.09,0,0,1,5.39.8V34.67H538.9L539,19.48l-9.84,2.71c1.36,1.27,1.8,5,1.8,7.44,0,0,0,4.53,0,5.08l-6.26,0v5Z" transform="translate(0 0)"/><path d="M488.19,74c4.23,3,10.87,5.7,15.74,5.7,6.75,0,11.58-3.29,11.58-9.47,0-11.41-26-9.52-26-24,0-9.8,8.76-13.48,17.1-13.48,2.68,0,8.81.58,12.7,2.09l0,6.69c-3.46-3-8.74-3.67-12.22-3.67-5.52,0-9.66,2.74-9.66,8.11,0,7.89,26,7.43,26,23.62,0,10.47-9.07,15.35-19.06,15.35a53.14,53.14,0,0,1-14.16-2.07l-2-8.87Z" transform="translate(0 0)"/><path d="M331.11,39.84c0-.59,0-5.9,0-6.58l-10.81,1.68c1.3,1.36,2.3,5.62,2.3,8.66V79c0,1.21-.52,4.14-1.64,5.52h11.79c-1.12-1.38-1.64-4.32-1.64-5.52V52.37c0-9.75,6-13.16,12-13.16,5.44,0,10.35,2.35,10.35,13.16V79c0,1.21-.52,4.14-1.64,5.52H363.3c-1.12-1.38-1.64-4.31-1.64-5.52V52.37c0-10.81,6.68-13.16,12.12-13.16s11.12,3.41,11.12,13.16V79c0,1.21-.52,4.14-1.65,5.52h11c-1.13-1.38-1.64-4.31-1.64-5.52V47.31c0-5.4-5.51-14.06-18.39-14.06-7.49,0-11.82,3.33-15.1,6.2-2.79-3.26-7.34-6.32-14.65-6.32a16.84,16.84,0,0,0-13.37,6.71Z" transform="translate(0 0)"/><path d="M305.62,56.45c-1.54,1.46-4.77,2.58-8.11,3-8.76,1.15-16.35,2.61-16.35,11.14,0,5.06,5.52,9,9.89,9,11.58,0,14.57-8.36,14.57-14.94V56.45ZM278.27,35.57c4.42-1.77,11.55-2.58,16-2.58,11.42,0,19,5.7,19,18.95v22c0,4.07.06,7.92,1.51,10.63h-9.18l-.33-5.78c-3.47,4.49-7.63,6.49-14.68,6.49-13.91,0-16.94-9.5-16.94-14.06,0-16.3,15.51-16.49,22.25-17.45,3.72-.53,8.52-1.58,9.24-5.08,1.19-5.78-2.94-10.11-11.38-10.11A29.7,29.7,0,0,0,278.27,43v-7.4Zm197.3,20.88c-1.54,1.46-4.77,2.58-8.11,3-8.76,1.15-16.35,2.61-16.35,11.14,0,5.06,5.52,9,9.89,9,11.58,0,14.57-8.36,14.57-14.94V56.45ZM448.22,35.57c4.42-1.77,11.56-2.58,16-2.58,11.41,0,19,5.7,19,18.95v22c0,4.07-.89,7.84,1.51,10.63h-9.18l-.33-5.78c-3.48,4.49-7.63,6.49-14.68,6.49-13.9,0-16.94-9.5-16.94-14.06,0-16.3,15.51-16.49,22.25-17.45,3.72-.53,8.52-1.58,9.24-5.08,1.19-5.78-2.94-10.11-11.39-10.11A29.69,29.69,0,0,0,448.22,43v-7.4Z" transform="translate(0 0)"/><path d="M438.45,42.31a28.89,28.89,0,0,0-12.67-3.61c-13.31,0-19.41,8.19-19.41,20s6,20.62,19,20.62c4.46,0,10.54-2,15.25-4.9L438.68,83a46.45,46.45,0,0,1-14.19,2.1c-18.3,0-26.87-13-26.87-26.48,0-14.92,11.5-25.41,27.07-25.41a46,46,0,0,1,13.78,2.24l0,6.86Z" transform="translate(0 0)"/><path d="M233.65,59.3a28.76,28.76,0,0,1,.31-3.55h35.4c0-12.16-6.09-22.6-20.51-22.6-15,0-23.85,11.7-23.85,26.63,0,13.49,9.89,25.56,26.83,25.56,5.36,0,9.84-1.32,14.67-3l1.7-8.63c-4.13,3.41-10.81,5.42-16.85,5.42-10.84,0-17.75-7.85-17.7-19.81Zm1.43-8.94c1.15-5.92,6.63-12,13.18-12,10,0,12.92,7.82,12.92,12,0,0-26.1,0-26.1,0Z" transform="translate(0 0)"/><path d="M65.06,1.29A69,69,0,0,1,75.2,3.92c4.26,1.3,11.18,5.35,13.62,7.29a38.76,38.76,0,0,1,4.53,4.53c.91,1.18,2.66,3.74,3.78,5.31a94.34,94.34,0,0,1,5.65,10,23.64,23.64,0,0,1,2.72,8.46l1.31,5.86c.12,1,.23,4.73-2,5.25a4.82,4.82,0,0,1-5.15-2c-1.31-2-1.13-4.93-2.62-8.24-1.16-2.67-1.67-6.56-3.52-9.35l-1.45-2.46c-2.58-4-5.26-7.1-6.85-9.15a33,33,0,0,0-6.54-5.73A44.19,44.19,0,0,0,70,10a50.79,50.79,0,0,0-6.8-1.66c-3.1-.35-5.13-.84-8.07-1a42,42,0,0,0-10.07,0c-1.78.49-4.61.68-7.15,1.65a64,64,0,0,0-7.7,3.83A60,60,0,0,0,19.61,20.6a33.74,33.74,0,0,0-6.69,9.15C12,31.8,10.19,35,9.46,37.2,9,39.47,8,43.7,8.17,45.75c.08,3.68-.25,4.44,0,7.45,0,2.71.9,4.59,1.27,6.81.31,1.53,1.79,6.83,2.69,8.06C16.29,77,21.84,80.83,28,83.61a70.43,70.43,0,0,0,8.77,2.76,64.34,64.34,0,0,0,9.63.88,36.62,36.62,0,0,0,11.52-1.52c3.24-1.2,7-2.89,7-2.84a45.43,45.43,0,0,0,4.52-2.78,15.76,15.76,0,0,0,3-2.08,14.5,14.5,0,0,0,2.79-2.91c.5-.72,1.3-1.83,2.06-2.81a44,44,0,0,0,2.12-4.56c1-2.63.82-2.5,1-5.28a15.84,15.84,0,0,0-.16-4c-.44-2.5-.29-4.71-.86-7.14-.77-3.28-1.42-5.74-2.4-8.9-.93-3.55-3.66-6.83-5.7-9.18a30.1,30.1,0,0,0-10.66-7.05A49.55,49.55,0,0,0,55,24.83a29.06,29.06,0,0,0-7.23.11A44.87,44.87,0,0,0,43.06,26a29,29,0,0,0-6.7,3.37A18.08,18.08,0,0,0,32.65,32c-1.08,1-1.86,2.72-2.74,3.72a27.3,27.3,0,0,0-3.46,6.2,19.27,19.27,0,0,0-1.14,7.8A32.33,32.33,0,0,0,25.92,55c.18.65.62,2.67.71,3.08s1.15,2.54,1.3,2.85a17.23,17.23,0,0,0,3.63,4.92,15.24,15.24,0,0,0,6.17,3.64c1.83,1,4.91,1.17,6.62,1.17a30.22,30.22,0,0,0,4.11-.45,21.62,21.62,0,0,0,5-1.57c2.1-1,3.53-1.33,5-2.4a22.61,22.61,0,0,0,2.92-2.73,11.3,11.3,0,0,0,1.16-5.29c-.07-2.45.29-3.85-.21-5.86a21.22,21.22,0,0,0-2.29-5.8,13.39,13.39,0,0,0-5.25-4,23.91,23.91,0,0,0-5.62-1.38,7,7,0,0,0-5.76,2.1c-1.08,1.24-3.22,3.8-2.37,6.46.78,2.4,1.71,5,5.31,4.77,2.47.51,5.33-.23,6.28.2a3.2,3.2,0,0,1,1.44,3.82c-.35,2.38-2.64,2.66-5.07,2.85-2.18.36-7.72-.7-8.93-1.62a24.19,24.19,0,0,1-2.95-2.43,12,12,0,0,1-1.83-2.73,10,10,0,0,1-1.06-2.66,14.08,14.08,0,0,1-.42-4.15c.1-1.11.39-1.58.69-3.2A15.71,15.71,0,0,1,37,39.71a20.39,20.39,0,0,1,5.38-4.27c1.67-.88,4.61-1.21,7.26-1a32.35,32.35,0,0,1,6.39,1,23.5,23.5,0,0,1,6.08,2.73,17.49,17.49,0,0,1,5.14,5.4A29.11,29.11,0,0,1,70,61.21a11.19,11.19,0,0,1-1.24,4.08A12.61,12.61,0,0,1,64.94,70,14.65,14.65,0,0,1,62,72.08c-1.38.84-2.3,1.27-3.73,2a27.94,27.94,0,0,1-4.65,1.81c-2.08.82-3.67.85-6.28,1.24-2.57.64-9.6.19-13.79-1.66a26.29,26.29,0,0,1-8.51-5.91A32.86,32.86,0,0,1,22,65a35.12,35.12,0,0,1-2.63-8,33.2,33.2,0,0,1-.91-4.78A35.86,35.86,0,0,1,20.07,38.7a48.37,48.37,0,0,1,2.22-4.35c1.19-1.69,1.77-2.75,2.78-4A24.29,24.29,0,0,1,29.2,26a49.89,49.89,0,0,1,11.24-6.74c5.33-2.17,6.93-1.72,12-1.64a47.69,47.69,0,0,1,7.19,1,40,40,0,0,1,6.77,1.69A19.37,19.37,0,0,1,71.6,23a34.56,34.56,0,0,1,4.34,3.31c2.93,2.14,4.34,4.4,6.13,7.17a49.11,49.11,0,0,1,2.8,6.26c.15.64.63,2.45.95,3.52.39,1.68.59,3.17,1,5.07a87.09,87.09,0,0,1,1.37,9.11c.49,3-.3,9-.76,10.87A31,31,0,0,1,81,80a35.09,35.09,0,0,1-5,4.72A33.54,33.54,0,0,1,71.16,88a56.32,56.32,0,0,1-9.47,4.58,61.43,61.43,0,0,1-6.19,1.75,66.57,66.57,0,0,1-14.17.2,77.79,77.79,0,0,1-13.09-2.94c-1.65-.62-4.84-2-6.18-2.68a36.18,36.18,0,0,1-4.28-2.92A45.28,45.28,0,0,1,8.4,76.57c-.63-1.22-2.91-4.86-3.4-6.45a78,78,0,0,1-2.77-7.35C1.66,59.51.7,57.42.33,54.16A21.74,21.74,0,0,0,0,50.58c.25-2.24-.09-4.34.36-6.77.39-2.06.9-2.91,1-4.77.12-.79,1.14-3.18,1.41-4.25.83-1.75,1-3.19,2.11-5.14A51.68,51.68,0,0,1,10.57,20c.71-1,2.73-3.23,3.42-4,1.62-1.62,2.57-1.88,4.42-3.51a10,10,0,0,1,2.68-2C23.2,8.89,25,8.29,27,6.8c4-2,5.5-2.68,9.5-4.35,2.31-.82,5.53-1.28,6.69-1.73C45.44.59,47.68-.12,50,0c2.61,0,5.24.16,7.86.4a41.76,41.76,0,0,1,7.2.87Z" transform="translate(0 0)" style="fill:#93d4ef"/></svg>