<svg id="svg9136" xmlns="http://www.w3.org/2000/svg" viewBox="0 0 354.16 276.79"><title>controller</title><g id="layer1"><g id="g52354"><g id="g52401"><path id="path7905" d="M141,37.12A18.58,18.58,0,0,0,122.37,55.7v242a16.18,16.18,0,0,0,16.17,16.17H460.37a16.17,16.17,0,0,0,16.16-16.17V79.06a16.17,16.17,0,0,0-16.16-16.17H256.49c-4.83,0-12.49-3.31-15.33-12.76a17.31,17.31,0,0,0-9.24-10.55,21.7,21.7,0,0,0-8.81-2.46H141Zm0,2.41h82.2a21.14,21.14,0,0,1,7.71,2.2,14.88,14.88,0,0,1,8,9.09c3.09,10.44,11.7,14.43,17.58,14.43H460.31A13.7,13.7,0,0,1,474.07,79V297.63a13.71,13.71,0,0,1-13.76,13.75H138.54a13.7,13.7,0,0,1-13.75-13.75V55.7A16.11,16.11,0,0,1,141,39.53Z" transform="translate(-122.37 -37.12)" style="fill:#93d4ef"/><path id="path7907" d="M141.64,79.48a19.24,19.24,0,0,0-19.27,19.26V278.47h2.42V98.69a16.8,16.8,0,0,1,16.85-16.85H457.27a16.8,16.8,0,0,1,16.85,16.85V278.47h2.41V98.69a19.25,19.25,0,0,0-19.26-19.27H141.64Z" transform="translate(-122.37 -37.12)" style="fill:#93d4ef"/><path id="rect7909" d="M123.11,285.14v9.39H475.8v-9.39Zm.94.94h350.8v7.56H124.05Z" transform="translate(-122.37 -37.12)" style="fill:#93d4ef"/><path id="rect5420" d="M123.11,293.64v8.29H475.8v-8.29Zm.94.94h350.8V301H124.05Z" transform="translate(-122.37 -37.12)" style="fill:#93d4ef"/><path id="rect52301" d="M217.59,217.89v48.24h48.24V217.89Zm2.47,2.47h43.25v43.25H220.06Z" transform="translate(-122.37 -37.12)" style="fill:#93d4ef"/><path id="rect52303" d="M275.33,217.89v48.24h48.24V217.89Zm2.47,2.47h43.25v43.25H277.8Z" transform="translate(-122.37 -37.12)" style="fill:#93d4ef"/><path id="rect52305" d="M333.07,217.89v48.24h48.24V217.89Zm2.47,2.47h43.25v43.25H335.54Z" transform="translate(-122.37 -37.12)" style="fill:#93d4ef"/><path id="rect52309" d="M217.59,102.41v48.24h48.24V102.41Zm2.47,2.47h43.25v43.25H220.06Z" transform="translate(-122.37 -37.12)" style="fill:#93d4ef"/><path id="rect52311" d="M275.33,102.41v48.24h48.24V102.41Zm2.47,2.47h43.25v43.25H277.8Z" transform="translate(-122.37 -37.12)" style="fill:#93d4ef"/><path id="rect52313" d="M333.07,102.41v48.24h48.24V102.41Zm2.47,2.47h43.25v43.25H335.54Z" transform="translate(-122.37 -37.12)" style="fill:#93d4ef"/><path id="rect52325" d="M217.59,160.15v48.24h48.24V160.15Zm2.47,2.47h43.25v43.25H220.06Z" transform="translate(-122.37 -37.12)" style="fill:#93d4ef"/><path id="rect52327" d="M275.33,160.15v48.24h48.24V160.15Zm2.47,2.47h43.25v43.25H277.8Z" transform="translate(-122.37 -37.12)" style="fill:#93d4ef"/><path id="rect52329" d="M333.07,160.15v48.24h48.24V160.15Zm2.47,2.47h43.25v43.25H335.54Z" transform="translate(-122.37 -37.12)" style="fill:#93d4ef"/></g></g></g></svg>