<svg id="svg9136" xmlns="http://www.w3.org/2000/svg" viewBox="0 0 274.2 49.6"><title>system2</title><rect width="274.2" height="49.6" style="fill:none"/><path d="M24.22,48.38H16.1V28.3h-8V48.38H0V8.06a8,8,0,0,1,8-8h8.1a8,8,0,0,1,8.12,8V48.38ZM16.1,20.14V8.06h-8V20.14Z" transform="translate(0)" style="fill:#93d4ef"/><path d="M47.25,40.3v8H28.12V0h8.05V40.3Z" transform="translate(0)" style="fill:#93d4ef"/><path d="M69.69,40.3v8H50.56V0h8V40.3Z" transform="translate(0)" style="fill:#93d4ef"/><path d="M111.07,22.18V40.3a8,8,0,0,1-8.1,8H95a8,8,0,0,1-8.06-7.94V8.06a8,8,0,0,1,8-8H103a8,8,0,0,1,8.11,8v6.13H103V8.06H95V40.3h8V30.23h-3v-8Z" transform="translate(0)" style="fill:#93d4ef"/><path d="M139.19,48.38h-8.12V28.3h-8V48.38h-8V8.06a8,8,0,0,1,8-8h8a8,8,0,0,1,8.12,8V48.38Zm-8.12-28.24V8.06h-8V20.14Z" transform="translate(0)" style="fill:#93d4ef"/><path d="M183.41,48.38h-8V8.06h-8V48.38h-8.12V8.06h-8.05V48.38h-8V0h8V1.07a7.93,7.93,0,0,1,4-1.06h6.07a7.93,7.93,0,0,1,4,1.06,7.93,7.93,0,0,1,4-1.06h6.07a8,8,0,0,1,8,8v.05Z" transform="translate(0)" style="fill:#93d4ef"/><path d="M206.51,40.3v8H195.42a8,8,0,0,1-8-8V8.06a8,8,0,0,1,8-8h11.09v8H195.42V20.14h11.09V28.3H195.42v12Z" transform="translate(0)" style="fill:#93d4ef"/><path d="M226.24,32.3l-16.1-12.14V8.06a8,8,0,0,1,8-8h8.1a8,8,0,0,1,8,8v6.12h-8V8.06h-8.05v8l16.1,12.24v12a8,8,0,0,1-8,8h-8a8,8,0,0,1-8.05-7.95V34.3h8.05v6h8Z" transform="translate(0)" style="fill:#93d4ef"/></svg>