<svg id="svg9136" xmlns="http://www.w3.org/2000/svg" viewBox="0 0 274.2 49.6"><title>system2</title><rect width="274.2" height="49.6" style="fill:none"/><g style="isolation:isolate"><path d="M24.22,49.08H16.1V29h-8V49.08H0V8.76a8,8,0,0,1,8.05-8H16.1a8.05,8.05,0,0,1,8.12,8.05ZM16.1,20.84V8.76h-8V20.84Z" transform="translate(0 -0.7)" style="fill:#93d4ef"/><path d="M47.25,41v8H28.12V.71h8.05V41H47.25Z" transform="translate(0 -0.7)" style="fill:#93d4ef"/><path d="M69.69,41v8H50.56V.71h8V41H69.69Z" transform="translate(0 -0.7)" style="fill:#93d4ef"/><path d="M111.07,22.88V41a8.05,8.05,0,0,1-8.11,8h-8a8,8,0,0,1-8.06-8V8.76a8,8,0,0,1,8.06-8h8a8.05,8.05,0,0,1,8.11,8.05v6.07H103V8.76h-8V41h8V30.93h-3v-8Z" transform="translate(0 -0.7)" style="fill:#93d4ef"/><path d="M139.19,49.08h-8.12V29h-8V49.08h-8V8.76a8,8,0,0,1,8-8h8a8.05,8.05,0,0,1,8.12,8.05Zm-8.12-28.24V8.76h-8V20.84Z" transform="translate(0 -0.7)" style="fill:#93d4ef"/><path d="M183.41,49.08h-8V8.76h-8.05V49.08h-8.12V8.76h-8.05V49.08h-8V.71h8V1.77a7.93,7.93,0,0,1,4-1.06h6.07a7.94,7.94,0,0,1,4,1.06,7.94,7.94,0,0,1,4-1.06h6.07a8,8,0,0,1,8,8.05Z" transform="translate(0 -0.7)" style="fill:#93d4ef"/><path d="M206.51,41v8H195.42a8,8,0,0,1-8-8V8.76a8,8,0,0,1,8-8h11.09V8.76H195.42V20.84h11.09V29H195.42V41h11.09Z" transform="translate(0 -0.7)" style="fill:#93d4ef"/><path d="M226.24,33l-16.1-12.14V8.76a8,8,0,0,1,8.05-8h8.05a8,8,0,0,1,8,8.05v6.07h-8V8.76h-8.05v8L234.29,29V41a8,8,0,0,1-8,8h-8.05a8,8,0,0,1-8.05-8V35h8.05V41h8.05Z" transform="translate(0 -0.7)" style="fill:#93d4ef"/></g></svg>