<?xml version="1.0" encoding="utf-8"?>
<!-- Generator: Adobe Illustrator 24.0.3, SVG Export Plug-In . SVG Version: 6.00 Build 0)  -->
<svg version="1.1"
	 id="svg9136" xmlns:cc="http://creativecommons.org/ns#" xmlns:dc="http://purl.org/dc/elements/1.1/" xmlns:inkscape="http://www.inkscape.org/namespaces/inkscape" xmlns:rdf="http://www.w3.org/1999/02/22-rdf-syntax-ns#" xmlns:sodipodi="http://sodipodi.sourceforge.net/DTD/sodipodi-0.dtd" xmlns:svg="http://www.w3.org/2000/svg"
	 xmlns="http://www.w3.org/2000/svg" xmlns:xlink="http://www.w3.org/1999/xlink" x="0px" y="0px" viewBox="0 0 598.9 351"
	 style="enable-background:new 0 0 598.9 351;" xml:space="preserve">
<sodipodi:namedview  bordercolor="#666666" borderopacity="1.0" fit-margin-bottom="0" fit-margin-left="0" fit-margin-right="0" fit-margin-top="0" id="base" inkscape:bbox-nodes="true" inkscape:bbox-paths="true" inkscape:current-layer="layer1" inkscape:cx="164.19731" inkscape:cy="128.25713" inkscape:document-units="px" inkscape:pageopacity="0.0" inkscape:pageshadow="2" inkscape:snap-bbox="true" inkscape:snap-global="false" inkscape:window-height="808" inkscape:window-maximized="0" inkscape:window-width="1440" inkscape:window-x="11" inkscape:window-y="120" inkscape:zoom="0.99" pagecolor="#ffffff" showgrid="false" showguides="false" units="px">
	</sodipodi:namedview>
<g id="layer1" transform="translate(9.2011719,-238.94944)" inkscape:groupmode="layer" inkscape:label="Layer 1">
	<g id="g5316" transform="matrix(0.06841316,0,0,0.06841316,13.37323,279.01986)">
	</g>
	<g id="g5776" transform="matrix(1.0767869,0,0,1.0767869,33.1761,-35.375623)">
		<path id="path7905" inkscape:connector-curvature="0" d="M91.9,289c-9.5,0-17.2,7.7-17.2,17.2v21.7v6.3V531c0,8.3,6.7,15,15,15
			h298.9c8.3,0,15-6.7,15-15v-203c0-8.3-6.7-15-15-15H203.2h-4c-4.5,0-11.6-3-14.2-11.8c-1.5-5-5.1-8-8.6-9.8
			c-3.5-1.8-6.7-2.3-8.2-2.3c-20.6,0-58.2,0-75.3,0L91.9,289z M91.9,291.2c16.7,0,55.4,0,76.4,0c0.8,0,4.1,0.5,7.2,2
			s6.2,4.2,7.4,8.4c2.9,9.7,10.9,13.4,16.3,13.4h4h185.3c7.1,0,12.8,5.7,12.8,12.8v203c0,7.1-5.7,12.8-12.8,12.8H89.6
			c-7.1,0-12.8-5.7-12.8-12.8V334.2v-6.3v-21.7C76.8,297.9,83.5,291.2,91.9,291.2L91.9,291.2z"/>
		<path id="path7907" inkscape:connector-curvature="0" d="M92.5,328.3c-9.9,0-17.9,8-17.9,17.9V374v120.3v18.8h2.2v-18.8V374v-27.8
			c0-8.7,7-15.7,15.7-15.7h293.1c8.7,0,15.7,7,15.7,15.7V374v120.3v18.8h2.2v-18.8V374v-27.8c0-9.9-8-17.9-17.9-17.9H92.5z"/>
		<path id="rect7909" inkscape:connector-curvature="0" d="M75.3,519.3v0.4v8.3h327.5v-8.7H75.3z M76.2,520.2H402v7H76.2V520.2z"/>
		<path id="rect5420" inkscape:connector-curvature="0" d="M75.3,527.2v0.4v7.3h327.5v-7.7H75.3z M76.2,528.1H402v6H76.2V528.1z"/>
		<path id="path5179" inkscape:connector-curvature="0" d="M239.5,345.5c-1.9,0-3.6,1-4.4,2.7l-23.3,46.4l-51.4,7.1
			c-2.6,0.4-4.5,2.8-4.1,5.4c0.1,1.1,0.6,2,1.4,2.8l36.9,36.5l-9.1,51.1c-0.5,2.6,1.3,5.1,3.9,5.6c1,0.2,2.1,0,3.1-0.5l46.1-23.8
			l45.8,24.4c2.4,1.3,5.3,0.4,6.5-2c0.5-0.9,0.7-2,0.5-3.1l-8.4-51.2l37.4-36c1.9-1.9,2-4.9,0.1-6.8c-0.7-0.8-1.7-1.3-2.8-1.4
			l-51.3-7.8l-22.7-46.7C243,346.6,241.3,345.5,239.5,345.5z M239.4,350.3l23.8,49l53.8,8.2l-39.2,37.7l8.9,53.7l-48-25.6l-48.3,25
			l9.5-53.6l-38.7-38.2L215,399L239.4,350.3z"/>
	</g>
</g>
</svg>
