<svg id="svg9136" xmlns="http://www.w3.org/2000/svg" viewBox="0 0 354.26 276.73"><title>controller</title><g id="layer1"><g id="g5776"><path id="path7905" d="M141.33,36.87a18.52,18.52,0,0,0-18.52,18.52V297.45A16.13,16.13,0,0,0,139,313.6H460.82A16.13,16.13,0,0,0,477,297.45V78.86a16.13,16.13,0,0,0-16.15-16.15H256.87c-4.84,0-12.49-3.23-15.29-12.71a17.54,17.54,0,0,0-9.26-10.55A21.08,21.08,0,0,0,223.49,37H142.41Zm0,2.37H223.6a22.48,22.48,0,0,1,7.75,2.15,14.6,14.6,0,0,1,8,9c3.12,10.45,11.74,14.43,17.55,14.43H460.71a13.74,13.74,0,0,1,13.78,13.79V297.23A13.74,13.74,0,0,1,460.71,311H138.86a13.75,13.75,0,0,1-13.79-13.79V55.39a16.15,16.15,0,0,1,16.26-16.15Z" transform="translate(-122.71 -36.87)" style="fill:#93d4ef"/><path id="path7907" d="M142,79.18a19.26,19.26,0,0,0-19.27,19.28V278.17h2.36V98.46A16.87,16.87,0,0,1,142,81.55H457.59a16.87,16.87,0,0,1,16.9,16.91V278.17h2.37V98.46a19.26,19.26,0,0,0-19.27-19.28Z" transform="translate(-122.71 -36.87)" style="fill:#93d4ef"/><path id="rect7909" d="M123.46,284.85v9.37H476.11v-9.37Zm1,1H475.25v7.54H124.43Z" transform="translate(-122.71 -36.87)" style="fill:#93d4ef"/><path id="rect5420" d="M123.46,293.36v8.29H476.11v-8.29Zm1,1H475.25v6.46H124.43Z" transform="translate(-122.71 -36.87)" style="fill:#93d4ef"/><path id="path5179" d="M300.27,97.7a5.13,5.13,0,0,0-4.74,2.91l-25.09,50-55.35,7.64a5.18,5.18,0,0,0-4.41,5.81,4.8,4.8,0,0,0,1.51,3l39.73,39.3-9.8,55a5.22,5.22,0,0,0,4.2,6,5.29,5.29,0,0,0,3.34-.54l49.64-25.63,49.32,26.27a5.2,5.2,0,0,0,7.53-5.49l-9-55.13,40.27-38.76a5.15,5.15,0,0,0,.11-7.33,4.51,4.51,0,0,0-3-1.5l-55.24-8.4-24.44-50.29A5,5,0,0,0,300.27,97.7Zm-.11,5.17,25.63,52.77,57.93,8.83-42.21,40.59,9.58,57.82-51.68-27.56-52,26.92,10.23-57.72L216,163.39l57.93-8.08Z" transform="translate(-122.71 -36.87)" style="fill:#93d4ef"/></g></g></svg>