<svg id="svg9136" xmlns="http://www.w3.org/2000/svg" viewBox="0 0 306.7 56.2"><title>system2</title><rect width="306.7" height="56.2" style="fill:none"/><path d="M22,23.19v9.27H9.27V55.72H0V9.28A9.21,9.21,0,0,1,9.15,0H22V9.28H9.27V23.19Z" style="fill:#93d4ef"/><path d="M53.81,55.72H44.43V32.54H35.19V55.72H25.91V9.28A9.21,9.21,0,0,1,35.06,0h9.37A9.27,9.27,0,0,1,53.78,9.2v.08ZM44.43,23.19V9.28H35.19V23.19Z" style="fill:#93d4ef"/><path d="M86.11,0,76.84,55.72H67.56L58.29,0h9.43L72.2,27.14,76.76,0Z" style="fill:#93d4ef"/><path d="M118,46.45a9.21,9.21,0,0,1-9.15,9.27h-9.4a9.21,9.21,0,0,1-9.27-9.15V9.28A9.21,9.21,0,0,1,99.36,0h9.4A9.21,9.21,0,0,1,118,9.16V46.45Zm-9.27,0V9.28H99.48V46.45Z" style="fill:#93d4ef"/><path d="M150.48,34.87v20.9h-9.35V34.87a2.24,2.24,0,0,0-2.2-2.28h-7.08V55.72h-9.27V0h18.55a9.27,9.27,0,0,1,9.35,9.19V20.87a8.9,8.9,0,0,1-3.19,7A9.05,9.05,0,0,1,150.48,34.87Zm-9.35-11.68V9.28h-9.27V23.19Z" style="fill:#93d4ef"/><path d="M164.31,0V55.72H155V0Z" style="fill:#93d4ef"/><path d="M196.84,0V9.28h-9.35V55.72h-9.27V9.28H169V0Z" style="fill:#93d4ef"/><path d="M223,46.45v9.27H210.21a9.21,9.21,0,0,1-9.27-9.15V9.28A9.21,9.21,0,0,1,210.09,0H223V9.28H210.21V23.19H223v9.35H210.21V46.45Z" style="fill:#93d4ef"/><path d="M245.7,37.17l-18.54-14V9.28A9.21,9.21,0,0,1,236.31,0h9.39A9.21,9.21,0,0,1,255,9.15v7.13H245.7v-7h-9.27v9.27l18.55,14v13.9a9.21,9.21,0,0,1-9.15,9.27h-9.4a9.21,9.21,0,0,1-9.27-9.15V39.45h9.27v7h9.27Z" style="fill:#93d4ef"/></svg>