<svg id="svg9136" xmlns="http://www.w3.org/2000/svg" viewBox="0 0 306.7 56.2"><title>system2</title><rect width="306.7" height="56.2" style="fill:none"/><g style="isolation:isolate"><path d="M45.61,33.32v9.27H32.84V65.85H23.57V19.41a9.21,9.21,0,0,1,9.27-9.27H45.61v9.27H32.84V33.32H45.61Z" transform="translate(0 -10.13)" style="fill:#93d4ef"/><path d="M77.38,65.85H68V42.67H58.76V65.85H49.48V19.41a9.21,9.21,0,0,1,9.28-9.27H68a9.27,9.27,0,0,1,9.35,9.27ZM68,33.32V19.41H58.76V33.32Z" transform="translate(0 -10.13)" style="fill:#93d4ef"/><path d="M109.68,10.14l-9.27,55.71H91.13L81.86,10.14h9.43l4.48,27.13,4.56-27.13Z" transform="translate(0 -10.13)" style="fill:#93d4ef"/><path d="M141.6,56.58a9.21,9.21,0,0,1-9.27,9.27h-9.28a9.21,9.21,0,0,1-9.27-9.27V19.41a9.21,9.21,0,0,1,9.27-9.27h9.28a9.21,9.21,0,0,1,9.27,9.27Zm-9.27,0V19.41h-9.28V56.58Z" transform="translate(0 -10.13)" style="fill:#93d4ef"/><path d="M174.05,45v20.9H164.7V45a2.24,2.24,0,0,0-2.28-2.28h-7V65.85h-9.27V10.14H164.7a9.27,9.27,0,0,1,9.35,9.27V31A8.93,8.93,0,0,1,170.86,38,9.06,9.06,0,0,1,174.05,45ZM164.7,33.32V19.41h-9.27V33.32Z" transform="translate(0 -10.13)" style="fill:#93d4ef"/><path d="M187.88,10.14V65.85h-9.27V10.14Z" transform="translate(0 -10.13)" style="fill:#93d4ef"/><path d="M220.41,10.14v9.27h-9.35V65.85h-9.27V19.41h-9.27V10.14Z" transform="translate(0 -10.13)" style="fill:#93d4ef"/><path d="M246.55,56.58v9.27H233.78a9.21,9.21,0,0,1-9.27-9.27V19.41a9.21,9.21,0,0,1,9.27-9.27h12.77v9.27H233.78V33.32h12.77v9.35H233.78V56.58h12.77Z" transform="translate(0 -10.13)" style="fill:#93d4ef"/><path d="M269.27,47.3l-18.54-14V19.41A9.21,9.21,0,0,1,260,10.14h9.27a9.21,9.21,0,0,1,9.28,9.27v7h-9.28v-7H260v9.27l18.55,14V56.58a9.21,9.21,0,0,1-9.28,9.27H260a9.21,9.21,0,0,1-9.27-9.27v-7H260v7h9.27Z" transform="translate(0 -10.13)" style="fill:#93d4ef"/></g></svg>