<?xml version="1.0" encoding="utf-8"?>
<!-- Generator: Adobe Illustrator 24.0.3, SVG Export Plug-In . SVG Version: 6.00 Build 0)  -->
<svg version="1.1" id="Layer_1" xmlns="http://www.w3.org/2000/svg" xmlns:xlink="http://www.w3.org/1999/xlink" x="0px" y="0px"
	 viewBox="0 0 186.1 138.8" style="enable-background:new 0 0 186.1 138.8;" xml:space="preserve">
<style type="text/css">
	.st0{display:none;}
	.st1{fill:#93D4EF;}
</style>
<g id="Layer_1_1_" class="st0">
	
		<image style="display:inline;overflow:visible;enable-background:new    ;" width="512" height="512" xlink:href="8DA61C046BA7CDA0.jpeg"  transform="matrix(0.6133 0 0 0.6133 -55.5725 -55.6665)">
	</image>
</g>
<g id="Layer_2_1_">
	<g>
		<path class="st1" d="M93.1,38.9c2.1,0,4.1,0.2,6.1,0.6l11.5-15.6c-5.7-0.7-11.5-1.1-17.5-1.1C49,22.7,11.8,43.4,0,71.8v0.3
			c7.2,17.2,23.7,31.6,45.4,40.3l18.4-25c-2.4-4.6-3.8-9.9-3.8-15.5C59.9,53.7,74.8,38.9,93.1,38.9z M139,30.8l-17.6,23.9
			c3.1,5,4.8,10.9,4.8,17.2c0,18.3-14.8,33.1-33.1,33.1c-2.8,0-5.5-0.3-8-1l-11.6,15.8c6.3,0.9,12.9,1.4,19.6,1.4
			c44,0,81.2-20.7,93.1-49.1v-0.4C178.8,54.1,161.6,39.4,139,30.8z"/>
	</g>
	<path class="st1" d="M43.4,137.4c-3.1-2.3-3.8-6.7-1.5-9.8l0,0L133.6,2.9c2.3-3.1,6.7-3.8,9.8-1.5l0,0c3.1,2.3,3.8,6.7,1.5,9.8l0,0
		L53.2,135.9c-1.4,1.9-3.5,2.9-5.6,2.9l0,0C46.1,138.7,44.6,138.3,43.4,137.4L43.4,137.4z"/>
</g>
<g id="Layer_3" class="st0">
</g>
</svg>
