<?xml version="1.0" encoding="utf-8"?>
<!-- Generator: Adobe Illustrator 24.0.3, SVG Export Plug-In . SVG Version: 6.00 Build 0)  -->
<svg version="1.1" id="Layer_1" xmlns="http://www.w3.org/2000/svg" xmlns:xlink="http://www.w3.org/1999/xlink" x="0px" y="0px"
	 viewBox="0 0 123.7 151.9" style="enable-background:new 0 0 123.7 151.9;" xml:space="preserve">
<style type="text/css">
	.st0{display:none;}
	.st1{fill:#93D4EF;}
</style>
<g id="Layer_1_1_" class="st0">
	
		<image style="display:inline;overflow:visible;enable-background:new    ;" width="512" height="512" xlink:href="75E6A9A6563E57DA.jpeg"  transform="matrix(0.6133 0 0 0.6133 -53.8335 -29.1665)">
	</image>
</g>
<g id="Layer_2_1_">
	
		<ellipse transform="matrix(0.9302 -0.3671 0.3671 0.9302 -44.457 19.8883)" class="st1" cx="30.1" cy="126.8" rx="19.2" ry="22.4"/>
	<g>
		<path class="st1" d="M108.7,24c0-8.3-6.7-15-15-15c-5.8,0-10.8,3.3-13.3,8.1l-0.1,0.1c-5.2-2.6-11.3-4.1-17.7-4.1h-0.8
			c-6.4,0-12.5,1.5-17.7,4.1l-0.1-0.1C41.4,12.3,36.4,9,30.6,9c-8.3,0-15,6.7-15,15c0,6.7,4.4,12.4,10.5,14.3l0.1,0.1
			c-0.6,2.4-0.9,4.9-0.9,7.5c0,13.1,8.5,24.4,20.9,29.6L45.5,75c-3.1-3.3-4.9-7.6-4.9-12.3c0-10.6,9.4-19.2,21-19.2h1
			c11.6,0,21,8.6,21,19.2c0,4.7-1.9,9-4.9,12.3l-0.5,0.5C90.6,70.2,99.1,59,99.1,45.9c0-2.6-0.3-5.1-0.9-7.5l0.1-0.1
			C104.3,36.4,108.7,30.7,108.7,24z M29.1,31.3c-1.8-1.2-3-3.3-3-5.6c0-3.8,3.1-6.8,6.8-6.8c2,0,3.8,0.9,5.1,2.3
			C32.9,24.7,30.1,28.8,29.1,31.3z M95.1,31.3c-1-2.4-3.7-6.5-8.9-10.2c1.2-1.4,3.1-2.3,5.1-2.3c3.8,0,6.8,3.1,6.8,6.8
			C98.1,28,96.9,30,95.1,31.3z"/>
	</g>
	
		<ellipse transform="matrix(0.3671 -0.9302 0.9302 0.3671 -58.0105 168.374)" class="st1" cx="94.7" cy="126.8" rx="22.4" ry="19.2"/>
	<ellipse class="st1" cx="62.1" cy="53" rx="5.1" ry="4"/>
	<path class="st1" d="M84.4,77c-6,4.4-13.5,6.3-21.3,6.3s-17-2.1-23.7-6.4c-8.3-2.1-12.1-3.6-19.6-5S8.6,77.6,8,79.4
		S4.7,90.3,13.4,94c4.3,1.9,10.4,2.7,10.4,2.7c-0.8,1.7-1.5,4.6-1.5,4.6c4.6-2.3,14.9-1.7,21.7,5.7c2.9-10.3,12.4-12.6,18.7-12.6
		s13.9,1.7,19.4,12.7c3.8-3.2,9.1-7.4,19.7-6.6c-0.4-2-0.9-3.6-0.9-3.6c5.6-1.2,7.4-1.8,10.8-3c3.4-1.3,7.2-6.6,4.8-13.9
		c-2.4-7.3-7.7-9.3-12.4-8.1C99.3,73.2,84.4,77,84.4,77z"/>
	<path class="st1" d="M52.8,131.6c0,0,0.2,5.3-2.3,9.6c8.2,2.6,18.6,2,23.3-0.4c-1.6-3.7-1.8-7.9-1.8-9
		C69.1,133.7,57.9,135,52.8,131.6z"/>
</g>
<g id="Layer_3" class="st0">
</g>
</svg>
