<svg id="Ebene_1" data-name="Ebene 1" xmlns="http://www.w3.org/2000/svg" viewBox="0 0 566.93 79.22"><title>system</title><g id="_ffffffff" data-name="#ffffffff"><path d="M123.44,3.44a9.43,9.43,0,0,1,13.2-1.31,10.18,10.18,0,0,1,3.18,5q10.47,36,21,72.06H148.42c-1.94-6.62-3.84-13.26-5.76-19.89-8,0-15.93,0-23.89,0q-2.92,9.94-5.8,19.9H100.68q9.94-34.37,19.94-68.74c.79-2.39,1.09-5.07,2.82-7m7.27,14.71c-2.92,10-5.78,19.93-8.69,29.88,5.79,0,11.58,0,17.37,0Q135,33.1,130.71,18.15Z" transform="translate(0 0)" style="fill:#93d4ef"/><path d="M210.23,4a9.45,9.45,0,0,1,10-3.66A9.58,9.58,0,0,1,227,7.19q10.47,36,20.95,72c-4.13,0-8.25,0-12.38,0q-2.86-9.94-5.74-19.9c-8,0-15.91,0-23.86,0C204,66,202.08,72.57,200.17,79.2H187.89q9.95-34.56,20-69.09c.7-2.08,1-4.37,2.32-6.17m-1,44.09h17.29c-2.86-10-5.78-20-8.64-29.94C215,28.09,212.09,38.06,209.23,48Z" transform="translate(0 0)" style="fill:#93d4ef"/><path d="M151.56.17h44.71V12.23H179.81q0,33.48,0,67H168q0-33.49,0-67H151.56Z" transform="translate(0 0)" style="fill:#93d4ef"/><path d="M261,.66a10.15,10.15,0,0,1,3.54-.5c4.7,0,9.4,0,14.1,0a21.83,21.83,0,0,1,18.89,12.18c2.37,4.62,2.62,10,2,15.08a20.77,20.77,0,0,1-6.72,14.14c-2.16,1.93-4.85,3.09-7.16,4.8a3.45,3.45,0,0,0-.67,4.19c6.24,9.63,12.72,19.1,19.09,28.65-4.66,0-9.31,0-14,0C284,70.06,278,60.86,271.93,51.69a10.21,10.21,0,0,1-1.2-9,8.59,8.59,0,0,1,5.06-4.82c4.24-1.62,8.43-4.16,10.78-8.17,1.79-3,1.7-6.72.89-10A9.74,9.74,0,0,0,278,12.14c-3.05,0-6.09,0-9.13,0a2.65,2.65,0,0,0-2.66,2.56q0,32.25,0,64.5H254.28q0-34.72,0-69.44A9.91,9.91,0,0,1,261,.66Z" transform="translate(0 0)" style="fill:#93d4ef"/><path d="M310.33.17h12.5q0,39.53,0,79H310.33Z" transform="translate(0 0)" style="fill:#93d4ef"/></g><path d="M527.33,79.2a39.6,39.6,0,1,1,39.6-39.6A39.65,39.65,0,0,1,527.33,79.2Zm0-76.29A36.7,36.7,0,1,0,564,39.6,36.73,36.73,0,0,0,527.33,2.91Zm0,63.67a27,27,0,1,1,27-27A27,27,0,0,1,527.33,66.58Zm0-51a24.07,24.07,0,1,0,24.06,24.07A24.1,24.1,0,0,0,527.33,15.54Z" transform="translate(0 0)" style="fill:#93d4ef"/><path d="M446.26,79.2a39.6,39.6,0,1,1,39.6-39.6A39.65,39.65,0,0,1,446.26,79.2Zm0-76.29A36.7,36.7,0,1,0,483,39.6,36.73,36.73,0,0,0,446.26,2.91Zm0,63.67a27,27,0,1,1,27-27A27,27,0,0,1,446.26,66.58Zm0-51a24.07,24.07,0,1,0,24.06,24.07A24.1,24.1,0,0,0,446.26,15.54Z" transform="translate(0 0)" style="fill:#93d4ef"/><path d="M378.4,79.2a27.73,27.73,0,0,1-15.54-50.71,18.28,18.28,0,0,1-2.94-10,18.48,18.48,0,0,1,37,0,18.28,18.28,0,0,1-2.94,10A27.73,27.73,0,0,1,378.4,79.2Zm0-76.29A15.57,15.57,0,0,0,366.08,28l1,1.29-1.41.84a24.83,24.83,0,1,0,25.44,0l-1.4-.84,1-1.29A15.57,15.57,0,0,0,378.4,2.91Zm0,64.78a16.23,16.23,0,1,1,16.22-16.22A16.24,16.24,0,0,1,378.4,67.69Zm0-29.54a13.32,13.32,0,1,0,13.32,13.32A13.34,13.34,0,0,0,378.4,38.15Zm0-11.51a8.16,8.16,0,1,1,8.15-8.16A8.16,8.16,0,0,1,378.4,26.64Zm0-13.4a5.25,5.25,0,1,0,5.25,5.24A5.25,5.25,0,0,0,378.4,13.24Z" transform="translate(0 0)" style="fill:#93d4ef"/><path d="M70.45,0H8.76A8.79,8.79,0,0,0,0,8.76v61.7a8.79,8.79,0,0,0,8.76,8.76H70.45a8.79,8.79,0,0,0,8.77-8.76V8.76A8.8,8.8,0,0,0,70.45,0ZM34.27,31.85a95,95,0,0,1-1,11,28.06,28.06,0,0,1-2.37,7.24,28.92,28.92,0,0,1-7.64,9.49,28.46,28.46,0,0,1-9.59,5.44,32,32,0,0,1-6.08,1.5V58.85a22.7,22.7,0,0,0,7.11-2.43,25.84,25.84,0,0,0,7-5.49,29.19,29.19,0,0,0,5-7.74A38.46,38.46,0,0,0,29.46,33a105.67,105.67,0,0,0,1.05-13.42c0-1.52,0-3,0-4.56h3.91c0,3.07,0,6.13,0,9.2C34.45,26.74,34.38,29.29,34.27,31.85ZM43.21,15V66.56c-2.4,0-4.79,0-7.19,0,0-5.48,0-11,0-16.45V15c2.39,0,4.8,0,7.2,0ZM71.65,66.55a32.26,32.26,0,0,1-6-1.47,28.82,28.82,0,0,1-10.88-6.57,28.55,28.55,0,0,1-5.6-6.89,29.93,29.93,0,0,1-2.64-6.42,41.47,41.47,0,0,1-1.09-6.84c-.46-5-.62-9.94-.59-14.92V15H48.7a121,121,0,0,0,.76,15.7A44,44,0,0,0,52.3,42.57a28.81,28.81,0,0,0,6.6,9.77,25.34,25.34,0,0,0,9.67,5.78,20,20,0,0,0,3.08.73Z" transform="translate(0 0)" style="fill:#93d4ef"/></svg>