<svg id="Ebene_2" data-name="Ebene 2" xmlns="http://www.w3.org/2000/svg" viewBox="0 0 566.93 92.93"><title>system</title><path d="M162.73,4.83a11,11,0,0,1,15.35-1.52,11.93,11.93,0,0,1,3.69,5.84Q194,51,206.14,92.91H191.77c-2.26-7.69-4.46-15.41-6.69-23.11-9.26,0-18.52,0-27.78,0q-3.41,11.55-6.73,23.13c-4.77,0-9.53,0-14.29,0Q147.85,53,159.45,13c.92-2.79,1.27-5.9,3.28-8.18m8.45,17.11c-3.39,11.57-6.72,23.16-10.1,34.74,6.73,0,13.46,0,20.19,0Q176.22,39.32,171.18,21.94Z" transform="translate(0 0)" style="fill:#93d4ef"/><path d="M263.61,5.43a11,11,0,0,1,11.57-4.26,11.16,11.16,0,0,1,7.89,8q12.17,41.87,24.35,83.7c-4.79,0-9.59,0-14.38,0-2.23-7.71-4.44-15.42-6.69-23.12-9.24,0-18.49,0-27.73,0-2.21,7.72-4.49,15.41-6.7,23.12H237.65Q249.2,52.74,260.92,12.6c.81-2.41,1.13-5.08,2.69-7.17m-1.16,51.26q10.05,0,20.1,0c-3.33-11.6-6.72-23.19-10.05-34.8C269.16,33.49,265.78,45.08,262.45,56.69Z" transform="translate(0 0)" style="fill:#93d4ef"/><path d="M195.42,1h52v14c-6.38,0-12.76,0-19.13,0q0,38.92,0,77.85h-13.7q0-38.93,0-77.85c-6.38,0-12.75,0-19.13,0C195.42,10.38,195.41,5.71,195.42,1Z" transform="translate(0 0)" style="fill:#93d4ef"/><path d="M322.65,1.6A11.92,11.92,0,0,1,326.76,1c5.46,0,10.92,0,16.39,0a25.4,25.4,0,0,1,22,14.15c2.76,5.38,3,11.64,2.35,17.53-.48,6.18-3.07,12.35-7.82,16.44-2.5,2.24-5.63,3.59-8.31,5.58-1.47,1.13-1.54,3.3-.78,4.86,7.25,11.19,14.78,22.21,22.18,33.31-5.41,0-10.82,0-16.23,0-7.09-10.65-14.11-21.34-21.16-32a11.84,11.84,0,0,1-1.4-10.52,9.94,9.94,0,0,1,5.88-5.6c4.93-1.88,9.8-4.84,12.53-9.5,2.08-3.5,2-7.81,1-11.64a11.35,11.35,0,0,0-11.06-8.72c-3.54,0-7.08,0-10.62,0a3.07,3.07,0,0,0-3.08,3q0,37.49,0,75H314.81q0-40.35,0-80.72A11.53,11.53,0,0,1,322.65,1.6Z" transform="translate(0 0)" style="fill:#93d4ef"/><path d="M380,1H394.5q0,45.95,0,91.88H380Z" transform="translate(0 0)" style="fill:#93d4ef"/><path d="M41,.86h7c0,5.47,0,10.94,0,16.41,0,4.57-.11,9.13-.3,13.69a166.53,166.53,0,0,1-1.81,19.7,50.51,50.51,0,0,1-4.23,12.93A51.82,51.82,0,0,1,28,80.53a51,51,0,0,1-17.13,9.7A58.13,58.13,0,0,1,0,92.91V79.14a40.57,40.57,0,0,0,12.7-4.33A46,46,0,0,0,25.22,65,52,52,0,0,0,34.08,51.2a69.35,69.35,0,0,0,5-18.23A192.11,192.11,0,0,0,41,9C41,6.3,41,3.58,41,.86Z" transform="translate(0 0)" style="fill:#93d4ef"/><path d="M50.75.87c4.28,0,8.56,0,12.85,0V92.91c-4.27,0-8.55,0-12.82,0-.05-9.78,0-19.57,0-29.35Q50.75,32.23,50.75.87Z" transform="translate(0 0)" style="fill:#93d4ef"/><path d="M66.46.86H73.4a218.71,218.71,0,0,0,1.36,28c.91,7.22,2.2,14.49,5.07,21.21A51.58,51.58,0,0,0,91.61,67.54a45.17,45.17,0,0,0,17.25,10.31,34.34,34.34,0,0,0,5.5,1.29c0,4.59,0,9.18,0,13.76a57.79,57.79,0,0,1-10.77-2.63,54.51,54.51,0,0,1-11.91-5.75,55.45,55.45,0,0,1-7.52-6,51.44,51.44,0,0,1-10-12.29A54.44,54.44,0,0,1,69.45,54.8a76.33,76.33,0,0,1-1.94-12.2C66.7,33.74,66.4,24.84,66.46,16Z" transform="translate(0 0)" style="fill:#93d4ef"/><path d="M50.75.87q0,31.35,0,62.7c0,9.78,0,19.57,0,29.36,4.27,0,8.55,0,12.82,0V.86c-4.28,0-8.57,0-12.85,0" transform="translate(0 0)" style="fill:#93d4ef"/><path d="M66.46.86V16c-.06,8.88.24,17.78,1.05,26.64a77.29,77.29,0,0,0,1.94,12.2,54.44,54.44,0,0,0,4.71,11.45,51.48,51.48,0,0,0,10,12.29,54.75,54.75,0,0,0,7.52,6,54.93,54.93,0,0,0,11.91,5.74,58.61,58.61,0,0,0,10.77,2.64V79.14a34.36,34.36,0,0,1-5.5-1.3A45,45,0,0,1,91.61,67.53,51.54,51.54,0,0,1,79.83,50.1c-2.87-6.73-4.16-14-5.07-21.22A218.56,218.56,0,0,1,73.4.86H66.46" transform="translate(0 0)" style="fill:#93d4ef"/><path d="M432.91,59.25l1.67,1.31c5.86,4.54,12.9,8.24,20.43,8.24,3.23,0,8.36-1.31,8.36-5.37s-4.3-4.42-7.28-5l-6.58-1.19C436.74,55,426,47.42,426,33.32,426,11.94,445.45,0,465,0a53.66,53.66,0,0,1,28.55,7.88l-8.84,23.06c-5.61-3.82-11.94-6.81-19-6.81-2.87,0-7.05,1.07-7.05,4.78,0,3.34,4.06,3.82,6.57,4.41L472.69,35c13.85,3.1,23.89,10.51,23.89,25.8,0,21.5-19.59,32.13-39.06,32.13a81.06,81.06,0,0,1-34.64-8.24Z" transform="translate(0 0)" style="fill:#93d4ef"/><path d="M498.13,1.43h68.8V26.7l-18,.05V91.5H516.16V26.75l-18-.05V1.43Z" transform="translate(0 0)" style="fill:#93d4ef"/></svg>