<svg id="svg2" xmlns="http://www.w3.org/2000/svg" viewBox="0 0 567.95 113.04"><title>system2</title><path id="path2998" d="M165.63,28.92V86.46h10.08V35.1h6.19c4.46,0,6.47.12,7.23.43a7.65,7.65,0,0,1,3.67,4.52,28,28,0,0,1,.7,5.84c.2,5.15-.4,8.35-2,10.43s-2.65,2.51-7.29,2.51h-4v6.24l6.26-.12,6.26-.12,2.21-1A15.57,15.57,0,0,0,203.11,53a37.16,37.16,0,0,0,0-12.09,18.61,18.61,0,0,0-3.51-7.58A14.48,14.48,0,0,0,196.89,31c-2.93-1.88-4.06-2-18.35-2Zm44.54,0V86.46h10.08V28.92Zm126.37,0c-4.51,0-9.16.16-10.32.34a16,16,0,0,0-7.42,3.38,15.41,15.41,0,0,0-4,6.44,18.29,18.29,0,0,0-.68,5.93c0,4.1.32,5.85,1.73,8.61a16.16,16.16,0,0,0,5,5.37c1.95,1.13,4.44,1.72,8.73,2.07,3.26.26,4,.42,5.08,1.13a6.78,6.78,0,0,1,2.18,2.71c.87,1.77.92,2.14.91,5.95s-.05,4.18-.89,5.77a7.33,7.33,0,0,1-2.24,2.61l-1.36.89-8.56.1-8.56.1v6.14h9.74a101.79,101.79,0,0,0,11.45-.37,12.55,12.55,0,0,0,8.91-6.93c1.36-3,1.84-6,1.66-10.58-.19-4.81-.9-7.44-2.83-10.32-2.39-3.57-5.06-4.8-11.85-5.42a31.56,31.56,0,0,1-5.72-.91,6.45,6.45,0,0,1-3.28-3.73,20.3,20.3,0,0,1,0-8.36,6.64,6.64,0,0,1,4.13-4.34c.89-.27,3.86-.4,8.85-.4h7.53V28.92Zm115.81,0v8.45h10.07V28.92Zm-96.9,6.5.1,20.72c.09,20.4.1,20.76.8,22.61a18.15,18.15,0,0,0,1.86,3.44,10.38,10.38,0,0,0,5.1,3.74c1,.36,2.76.5,6.06.51H374V80.28h-3c-2.88,0-3.07,0-3.89-.89a5.69,5.69,0,0,1-1.21-2.52c-.22-1-.31-6.41-.26-14.79l.1-13.17,5.44-.09,5.45-.09V42.57H365.56V35.42Zm69.59,0V55.89c0,19.8,0,20.54.67,22.51a13,13,0,0,0,4.05,6,12.16,12.16,0,0,0,2.86,1.49c1.29.44,2.73.58,6.15.59h4.47v-6.2h-2.88c-2.41,0-3-.1-3.73-.66a4.24,4.24,0,0,1-1.18-1.87c-.2-.74-.33-6.58-.33-15.1V48.75h11.07l-.1-3-.09-3-5.44-.09-5.44-.09V35.42H425Zm-8.89,7.07-10.76.17c-11.56.18-12.76.32-16.16,2-3.8,1.93-6.44,5.67-7.65,10.79-.5,2.14-.59,4-.59,12.11,0,9.23,0,9.66.75,11.43,1.44,3.56,3.58,5.76,6.67,6.83,1.36.47,2.78.58,7.46.58h5.77V80.28h-4c-3.83,0-4.09,0-5-.81a4.38,4.38,0,0,1-1.32-2.26c-.46-1.79-.48-15.94,0-19.36.63-4.87,1.72-7.15,4-8.37.79-.42,2.15-.57,6-.67l4.95-.13V86.46h10.4V74.32c0-6.68-.1-16.57-.22-22Zm-152.67,0-10.81.16c-11.74.18-13.43.4-16.64,2.11-3.72,2-6.38,5.94-7.51,11.13-.71,3.29-1,16.79-.49,20a14.62,14.62,0,0,0,3.4,7.34,12.67,12.67,0,0,0,4.74,2.86,58.51,58.51,0,0,0,6.75.27h5.93V80.28H244.7c-4.69,0-5.31-.22-6.19-2.23-.4-.9-.55-2.67-.65-7.42-.15-6.76.32-14.09,1.06-16.52a7.26,7.26,0,0,1,3.32-4.57c1-.52,2-.61,6.12-.62h4.88l.08,18.77.08,18.77h10.08v-44Zm10.85.07c-2.93,0-5.32,0-5.31.08s3.34,9.86,7.42,21.81l7.42,21.74L279.68,97c-2.29,5.93-4.17,10.82-4.17,10.87s2,0,4.43,0l4.43-.09,12.95-32.51c7.12-17.88,13-32.54,13-32.59s-2.1-.08-4.68-.08c-3.41,0-4.77.11-5,.41s-2.64,6.51-5.52,14-5.39,13.69-5.56,13.74-2.47-6.26-5.11-14l-4.79-14.15Zm178,0v43.9H462.4V42.57H452.33Zm60.95.16-.1,21.86h0l-.1,21.87H523.5V48.68l5,.13c5.27.14,6.14.35,7.62,1.94,1.16,1.24,2,3.5,2.36,6.44.19,1.54.34,8.6.34,16V86.46H548.9V73.53c0-13.7-.24-17-1.56-20.67-1.8-5-5.11-8-10.49-9.51-1.78-.48-3.68-.56-12.81-.59H513.32Zm-25.48.1a25.14,25.14,0,0,0-7.71,1A13.22,13.22,0,0,0,474,47.8a18.33,18.33,0,0,0-4,8.26c-.48,2.09-.59,3.85-.56,8.94,0,5.36.13,6.73.71,8.85a17,17,0,0,0,4.21,8A16.22,16.22,0,0,0,482.3,86a27.4,27.4,0,0,0,6.46.34c5.24-.14,7.73-.81,10.79-2.9a14.93,14.93,0,0,0,5.6-8c1.57-5,1.84-13.15.64-19.19a19.85,19.85,0,0,0-3.6-8.06,14.77,14.77,0,0,0-6.55-4.29,26.54,26.54,0,0,0-7.82-1Zm.12,6a9.31,9.31,0,0,1,4.12.87c1.51.77,2.46,2.11,3.29,4.63.54,1.66.67,3.16.8,8.63.17,7.14-.16,10.51-1.27,13a7.13,7.13,0,0,1-3.43,3.78,12.21,12.21,0,0,1-3.61.45,7.18,7.18,0,0,1-4-.75,6.52,6.52,0,0,1-2.34-2.21c-1.47-2.37-2-5.48-2-12.48,0-6.67.33-9.35,1.56-12.06a7.58,7.58,0,0,1,2-2.47,8.51,8.51,0,0,1,5-1.38Z" transform="translate(0.02)"/><path id="path3775" d="M559.18,83.91H560V81.08h1.75a1.36,1.36,0,0,1,.94.23,1.86,1.86,0,0,1,.27,1l.07.84a2.67,2.67,0,0,0,0,.4.93.93,0,0,0,.12.33H564V83.7a.48.48,0,0,1-.14-.2,1.15,1.15,0,0,1-.07-.36l-.07-1a3.77,3.77,0,0,0-.19-1,.79.79,0,0,0-.61-.48,1.2,1.2,0,0,0,.74-.52,1.87,1.87,0,0,0,.28-1,1.77,1.77,0,0,0-.2-.87,1.59,1.59,0,0,0-.62-.64,2,2,0,0,0-.78-.23h-3.12v6.53h0Zm.78-3.53V78.09h1.55c.22,0,.45,0,.67,0a1.2,1.2,0,0,1,.48.17.91.91,0,0,1,.33.37,1.21,1.21,0,0,1,.12.53,1.1,1.1,0,0,1-.36.92,2.14,2.14,0,0,1-1.21.27Z" transform="translate(0.02)" style="fill:#999"/><path d="M555.22,80.65a6.35,6.35,0,0,1,6.28-6.36h.07a6.36,6.36,0,0,1,6.36,6.36h0A6.35,6.35,0,0,1,561.58,87h0a6.35,6.35,0,0,1-6.35-6.35Zm2,0A4.34,4.34,0,0,0,561.55,85h0a4.37,4.37,0,0,0,4.36-4.35h0a4.38,4.38,0,0,0-4.23-4.36h-.13a4.37,4.37,0,0,0-4.35,4.36Zm3.95-4.44a1,1,0,0,0,.29.08h0a.72.72,0,0,1-.25-.07h0l-.17-.08h0l.17.1Zm-.47-.43Zm0,0Zm-.12-.46a1,1,0,0,1,.06-.33h0A.92.92,0,0,0,560.58,75.32Z" transform="translate(0.02)" style="fill:#999"/><g id="g3"><path id="path7" d="M80.27,23.51,80.17,113l-24-7.8V0L86.8,8.1c19.6,5.26,31.6,15.5,31.4,33.45-.2,20.87-9.85,29.25-28.66,23.79V24.19C89.54,19.19,80.27,18.92,80.27,23.51Z" transform="translate(0.02)" style="fill:#de0029"/><path id="path9" d="M45.17,87.87l-11.31,3.8C26.54,94.21,20.3,88.26,27,85.82l5.46-1.95L11.91,77.34C5.58,79.49-.37,84.07,0,90.51s15.31,8.09,26.81,9.94a58.55,58.55,0,0,0,29.35-2.34V91.38l-11-3.51ZM80.37,113l21-7.31L80.17,99v13.56l.2.48Z" transform="translate(0.02)" style="fill:#f3c202"/><path id="path11" d="M136.14,93.43l.39-.1c9.17-3.22,13.07-7.71,12.1-11.9-1.56-7-12.78-10.82-30-12.09-12.38-.88-24.57,1.85-36.47,6l-2,.68,21.36,6.64L114,78.41c13.07-2.44,18.33,1.85,5.75,5.85l-6.24,2.15,22.62,7Zm-79.95-31-9.46,3.22,9.46,2.92V62.42Z" transform="translate(0.02)" style="fill:#326db3"/><path id="path13" d="M101.33,105.72l34.81-12.29-22.62-7L80.17,97.82V99l21.16,6.73ZM56.19,84.16l-11,3.71,11,3.51Zm24,5.76V76l21.36,6.64L80.17,89.92Zm-47.68-6,23.7-8.48V68.56l-9.46-2.92L12.4,77.24a4.1,4.1,0,0,1-.48.1l20.57,6.53Z" transform="translate(0.02)" style="fill:#00aa9e"/></g></svg>