<svg id="Layer_1" data-name="Layer 1" xmlns="http://www.w3.org/2000/svg" xmlns:xlink="http://www.w3.org/1999/xlink" viewBox="0 0 568 93.2"><defs><linearGradient id="linear-gradient" x1="177.25" y1="748.5" x2="177.25" y2="841" gradientTransform="translate(0 -748)" gradientUnits="userSpaceOnUse"><stop offset="0" stop-color="#fff"/><stop offset="1" stop-color="#93d4ef"/></linearGradient><linearGradient id="linear-gradient-2" x1="414.35" y1="748.59" x2="414.35" y2="841.09" xlink:href="#linear-gradient"/><linearGradient id="linear-gradient-3" x1="477.74" y1="748.59" x2="477.74" y2="841.09" xlink:href="#linear-gradient"/><linearGradient id="linear-gradient-4" x1="541.35" y1="748.59" x2="541.35" y2="841.09" xlink:href="#linear-gradient"/></defs><title>system</title><path d="M19,92.6l1.4-18.1h7.5l1.5,18.1H47.9L36.3.9H12.4L.6,92.6H19m7.8-33.2H21.5l2.7-35.6,2.6,35.6M78.1.9H52.3V92.6H70V40.4l7.3,52.2H88.8l7-51.9V92.6h17.7V.9H87.6L82.8,41.4,78.1.9m38.5,11.2c0,6.3-.1,12.6,0,19a21.58,21.58,0,0,0,.2,2.8,18.22,18.22,0,0,0,.5,3.1,13.61,13.61,0,0,0,1.4,3.4A8.3,8.3,0,0,0,120,42c.6.6,1.3,1.3,2.1,2a26.63,26.63,0,0,0,5.1,3.4c3.9,2.1,7.7,4.2,11.6,6.4a7.64,7.64,0,0,1,1.6,1.1c1.3,1.3,1.3,2.8,1.3,4.2l.1,2V73.5a7.22,7.22,0,0,1-.5,2.8c-.1.3-.4.5-.6.8a2.46,2.46,0,0,1-2.7.4,2.18,2.18,0,0,1-.8-.5c-1-.9-.9-2.3-1-3.4V54.9H116.7V75.8a31.25,31.25,0,0,0,.6,7.5,15.65,15.65,0,0,0,1.5,3.9,9.32,9.32,0,0,0,2.8,3.1,14.56,14.56,0,0,0,3.5,1.8,9.87,9.87,0,0,0,2.5.6,17.85,17.85,0,0,0,2.3.2h19.8a10.21,10.21,0,0,0,2.9-.3,12.47,12.47,0,0,0,3.6-1.6,10,10,0,0,0,2.8-2.6,10.41,10.41,0,0,0,1.3-2.9,20.16,20.16,0,0,0,.8-2.9c.2-1.1.3-2.5.4-3.9s0-2.8,0-4.2v-16c0-.6,0-1.6-.1-2.7s-.1-2.3-.2-3.1a10.87,10.87,0,0,0-.2-1.5c-.1-.3-.2-.7-.3-1.1a5.54,5.54,0,0,0-.5-1.3,14.21,14.21,0,0,0-1.3-2.3,13,13,0,0,0-1.9-2.2,15,15,0,0,0-2.4-1.8c-1.8-1.2-3.8-2.5-5.8-3.6l-8.3-4.5-1.5-.9a6.23,6.23,0,0,1-1.2-.9c-.5-.4-.5-.4-.7-.7a1.38,1.38,0,0,1-.3-.4,6.56,6.56,0,0,1-.8-2.1V19.5a7.84,7.84,0,0,1,.2-2.1,7.93,7.93,0,0,1,.4-.9,2.49,2.49,0,0,1,3.3-.9c.3.1.5.4.8.6a2.18,2.18,0,0,1,.5.8,8.11,8.11,0,0,1,.3,1.1c.1.9.1,2.2.1,3.3V32.3h19.6c0-5.6.1-11.3-.1-16.9-.1-1.3-.1-2.6-.2-3.5a15.94,15.94,0,0,0-.2-1.7L160.4,9a5.07,5.07,0,0,0-.6-1.5A12.85,12.85,0,0,0,158.4,5a9.66,9.66,0,0,0-2.3-2.2,14,14,0,0,0-2.7-1.4,24.88,24.88,0,0,0-6.5-.9l-17,.1a24.86,24.86,0,0,0-5.9.9,13.36,13.36,0,0,0-1.8.7,10.93,10.93,0,0,0-3,2.4,11.84,11.84,0,0,0-1.4,2.2,19.41,19.41,0,0,0-1.2,5.3M164.5.9V15.7h9.8V92.6h19.6V15.7h9.7V.9H164.5m65.3,0H208.9V92.6h19.6V56.1a12.86,12.86,0,0,1,3.9.3,3,3,0,0,1,.8.4c.9.8.8,1.8,1,2.7.2,1.9,0,3.8.1,5.7V92.7h19.6V64a41.42,41.42,0,0,0-.8-8.5,14.58,14.58,0,0,0-.7-1.9,11.65,11.65,0,0,0-1.7-2.8,12.66,12.66,0,0,0-2.5-2.1,10.11,10.11,0,0,0-3-1.3,8.8,8.8,0,0,0,1.5-.5,9.7,9.7,0,0,0,2.8-1.6,9.55,9.55,0,0,0,2.1-2.4,7.89,7.89,0,0,0,1.2-3,18.92,18.92,0,0,0,.5-2.3,58.11,58.11,0,0,0,.6-9.3V18.7a27.26,27.26,0,0,0-.3-5.7c-.1-.9-.3-1.9-.4-2.7a9.48,9.48,0,0,0-.6-2c-.3-.6-.5-1.2-.8-1.7A9.06,9.06,0,0,0,250.7,5a12.39,12.39,0,0,0-2.2-1.8,10.86,10.86,0,0,0-5.4-1.8c-4.6-.5-9-.3-13.3-.5m-1.3,15h2.8a3.26,3.26,0,0,1,1.3.4c1.3.8,1.3,1.9,1.5,2.9.1,1.2.1,2.3.1,3.5,0,4,.1,8,0,12a14.92,14.92,0,0,1-.2,2.1,1.93,1.93,0,0,1-.3,1,5.55,5.55,0,0,1-.6.8,3.22,3.22,0,0,1-2.1.6,9.64,9.64,0,0,1-2.4,0V15.9m47.5,76.7,1.4-18.1H285l1.5,18.1H305L293.4.9H269.5L257.7,92.6h18.4m7.8-33.2h-5.3l2.7-35.6,2.6,35.6M351.7,6.6a11.17,11.17,0,0,0-2.5-2.8,15.83,15.83,0,0,0-3-1.7,6.42,6.42,0,0,0-2-.5l-1.7-.3c-.6-.1-1.1-.1-2.5-.2s-3.5-.2-5.6-.2H309V92.6l31.1-.1a9.26,9.26,0,0,0,2.3-.4,17.83,17.83,0,0,0,4.5-1.3,14.92,14.92,0,0,0,2.4-1.4,7.13,7.13,0,0,0,2.1-2.4,13.29,13.29,0,0,0,1.7-4.3,22.9,22.9,0,0,0,.8-6l-.1-62.6a18.51,18.51,0,0,0-.7-4.1,16.29,16.29,0,0,0-1.4-3.4m-21.9,9.3H331a3.59,3.59,0,0,1,1.1.2,2,2,0,0,1,.8.4,3.39,3.39,0,0,1,.6.6c.7,1,.6,2.5.7,3.7V73.6a4.87,4.87,0,0,1-.1,1.2,4.51,4.51,0,0,1-.3,1.1,2.77,2.77,0,0,1-.5.8,4.35,4.35,0,0,1-.7.6,1.61,1.61,0,0,1-.9.3h-3.2V15.9h1.3" transform="translate(0 0)" style="fill:url(#linear-gradient)"/><path d="M149.6,93.2H129.8a16.41,16.41,0,0,1-2.3-.2h0a9.59,9.59,0,0,1-2.6-.6h0a14,14,0,0,1-3.6-1.9h0a13,13,0,0,1-3-3.2h0a16.72,16.72,0,0,1-1.6-4h0a32.93,32.93,0,0,1-.6-7.6h0V54.3h20.5V73.4c.1,1.2.1,2.4.9,3.1h0a2.09,2.09,0,0,0,.6.4h0a2.92,2.92,0,0,0,.9.2h0a2.39,2.39,0,0,0,1.4-.5h0a2.65,2.65,0,0,0,.5-.6h0a5.19,5.19,0,0,0,.5-2.4h0v-.1h0V61.1l-.1-2v-.5h0a4.13,4.13,0,0,0-1.2-3.4h0a14.31,14.31,0,0,0-1.5-1.1h0c-3.9-2.2-7.7-4.3-11.5-6.4h0a21.6,21.6,0,0,1-5.2-3.5h0c-.8-.7-1.5-1.4-2.1-2h0a8.56,8.56,0,0,1-1.3-1.7h0A12.69,12.69,0,0,1,117,37h0a11.77,11.77,0,0,1-.5-3.1h0c-.1-.8-.1-1.8-.2-2.8h0V26.2h0c0-4.7,0-9.4.1-14.1h0a13.17,13.17,0,0,1,1.4-5.5h0a18.19,18.19,0,0,1,1.5-2.3h0a12.26,12.26,0,0,1,3.1-2.6h0a14.17,14.17,0,0,1,1.8-.8h0a25.66,25.66,0,0,1,6-.9h16.9c.7,0,1.4.1,2.1.1h0a22.3,22.3,0,0,1,4.5.9h0a12.21,12.21,0,0,1,2.8,1.4h0a7.85,7.85,0,0,1,2.4,2.4h0a12.12,12.12,0,0,1,1.5,2.6h0A8.23,8.23,0,0,1,161,9h0c.1.4.2.8.3,1.3h0a6.53,6.53,0,0,1,.2,1.7h0a33.19,33.19,0,0,1,.2,3.5h0c.1,2.5.1,5.1.1,7.6h0v7.4h0v2h0V33H141.2V21h0a21.79,21.79,0,0,0-.1-2.7h0a2,2,0,0,0-.2-.9h0a4.35,4.35,0,0,0-.4-.7h0a2.65,2.65,0,0,0-.6-.5h0a2,2,0,0,0-1-.2h0a2.23,2.23,0,0,0-1.7,1h0a5.94,5.94,0,0,0-.4.8h0a4.14,4.14,0,0,0-.2,1.6h0v.3h0v3.8h0v3.8h0v1h0v.8h0v.4h0a5.36,5.36,0,0,0,.7,1.9h0a1.24,1.24,0,0,0,.2.3h0l.6.6h0c.3.2.7.5,1.2.8h0a10,10,0,0,0,1.4.8h0l8.3,4.5a56.45,56.45,0,0,1,5.8,3.6h0a15.45,15.45,0,0,1,2.4,1.9h0a22,22,0,0,1,2,2.3h0a14.21,14.21,0,0,1,1.3,2.3h0a6,6,0,0,1,.5,1.4h0c.1.4.2.7.3,1.1h0c.1.4.1.8.2,1.6h0c.1.8.1,2.1.2,3.2h0c0,1.1.1,2.1.1,2.7h0v1.2h0V76.5h0v2.1h0c-.1,1.4-.2,2.8-.4,3.9h0a20.16,20.16,0,0,1-.8,2.9h0a13.64,13.64,0,0,1-1.4,3.1h0a9.44,9.44,0,0,1-2.9,2.7h0a11.87,11.87,0,0,1-3.7,1.6h0a7.73,7.73,0,0,1-2.5.3h0a.75.75,0,0,1-.5.1ZM117.1,75.7a30,30,0,0,0,.6,7.4h0a14.91,14.91,0,0,0,1.4,3.7h0a9.72,9.72,0,0,0,2.7,3h0a11.55,11.55,0,0,0,3.3,1.7h0a14.75,14.75,0,0,0,2.4.5h0a18,18,0,0,0,2.2.2h20.4a8.58,8.58,0,0,0,2.2-.2h0a12.63,12.63,0,0,0,3.4-1.5h0a8.91,8.91,0,0,0,2.6-2.5h0a11.71,11.71,0,0,0,1.3-2.8h0a11.48,11.48,0,0,0,.7-2.8h0a37.1,37.1,0,0,0,.4-3.8h0V76.5h0V74.4h0V58.5h0c0-.6,0-1.6-.1-2.7h0a26.89,26.89,0,0,0-.2-3.1h0a13.89,13.89,0,0,0-.2-1.5h0c-.1-.3-.2-.7-.3-1h0a7.81,7.81,0,0,0-.5-1.2h0c-.3-.6-.7-1.4-1.2-2.2h0a9.09,9.09,0,0,0-1.8-2.1h0a23.05,23.05,0,0,0-2.3-1.8h0c-1.8-1.2-3.8-2.5-5.7-3.5h0l-8.3-4.5-1.5-.9h0a7.35,7.35,0,0,1-1.2-.9h0a7.51,7.51,0,0,1-.8-.7h0a1.07,1.07,0,0,1-.3-.5h0a7.8,7.8,0,0,1-.8-2.3h0v-.5h0v-.8h0v-1h0V23.5h0V19.7h0v-.4h0a4.22,4.22,0,0,1,.3-1.9h0a5.36,5.36,0,0,1,.5-1.1h0a3.25,3.25,0,0,1,2.5-1.4h0a4.43,4.43,0,0,1,1.5.3h0a5.5,5.5,0,0,1,.9.7h0a2.07,2.07,0,0,1,.6,1h0c.1.4.2.7.3,1.2h0a24.39,24.39,0,0,1,.1,2.8h0v.5h0V31.8h18.6V30.3h0V22.9h0c0-2.5,0-5-.1-7.6h0c-.1-1.3-.1-2.6-.2-3.4h0a13.24,13.24,0,0,0-.2-1.6h0L160,9.1h0a6,6,0,0,0-.5-1.4h0a12.32,12.32,0,0,0-1.4-2.4h0a8.83,8.83,0,0,0-2.2-2.1h0a10.53,10.53,0,0,0-2.6-1.3h0a17.17,17.17,0,0,0-4.2-.8h0a13.4,13.4,0,0,0-2-.1H147l-17,.1a24.06,24.06,0,0,0-5.8.9h0a12.2,12.2,0,0,0-1.7.7h0A8.61,8.61,0,0,0,119.7,5h0a11,11,0,0,0-1.4,2.1h0a11.28,11.28,0,0,0-1.3,5h0c0,4.7-.1,9.4-.1,14.1h0V31h0a23,23,0,0,0,.2,2.8h0a10.28,10.28,0,0,0,.5,3h0A11.15,11.15,0,0,0,119,40h0a13.28,13.28,0,0,0,1.2,1.6h0c.5.6,1.3,1.3,2,2h0a25.4,25.4,0,0,0,5,3.3h0c3.9,2.1,7.7,4.2,11.6,6.4h0a7.67,7.67,0,0,1,1.7,1.2h0a5.4,5.4,0,0,1,1.5,4.1h0v.5h0l.1,2V73.7h0a5.91,5.91,0,0,1-.6,2.8h0a5.5,5.5,0,0,1-.7.9h0a3.18,3.18,0,0,1-2,.8h0a5,5,0,0,1-1.2-.2h0a3.33,3.33,0,0,1-1-.6h0c-1.2-1.2-1-2.7-1.2-3.8h0V55.4H116.9l.2,20.3ZM308.5.4h25.9c2.1,0,4.3.1,5.6.2h0c1.3.1,1.9.1,2.5.2h0l1.7.3h0a7.63,7.63,0,0,1,2.1.6h0a11.22,11.22,0,0,1,3.1,1.8h0a10.62,10.62,0,0,1,2.7,2.9h0a15.33,15.33,0,0,1,1.6,3.7h0a14.89,14.89,0,0,1,.7,4.3h0l.1,62.6h0a27.21,27.21,0,0,1-.8,6h0a16.68,16.68,0,0,1-1.8,4.4h0a8,8,0,0,1-2.3,2.5h0a16.54,16.54,0,0,1-2.5,1.5h0a19.85,19.85,0,0,1-4.6,1.3h0a15,15,0,0,1-2.4.4h0l-31.6.1V.4Zm1,91.7,30.6-.1a19.19,19.19,0,0,0,2.2-.3h0a20.33,20.33,0,0,0,4.4-1.2h0a7.89,7.89,0,0,0,2.3-1.4h0a8.63,8.63,0,0,0,2-2.2h0a17.26,17.26,0,0,0,1.7-4.2h0a26.19,26.19,0,0,0,.8-5.8h0v-.1h0l-.1-62.6a14,14,0,0,0-.7-4h0a15.1,15.1,0,0,0-1.4-3.4h0l.4-.3-.4.3a12.25,12.25,0,0,0-2.4-2.7h0A14.37,14.37,0,0,0,346,2.5h0a9,9,0,0,0-1.9-.5h0a10,10,0,0,0-1.6-.2h0c-.5-.1-1.1-.1-2.4-.2h0c-1.3-.1-3.5-.2-5.6-.2H309.6V92.1Zm-23.4,1L284.6,75H278l-1.3,17.7h-.5v.5h-19L269.1.5h24.8l11.7,92.7-19.5-.1Zm-27.8-1h17.4L277.1,74h8.4L287,92.1h17.5L293,1.4H269.9L258.3,92.1Zm-24.7,1V64.2h0V61.9h0a17,17,0,0,0-.1-2.3h0c-.1-1-.1-1.8-.8-2.4h0c-.2-.1-.4-.3-.6-.3h0a8.52,8.52,0,0,0-2.3-.3h-.9V93.1H208.3V.4h21.4v0c4.3.1,8.7,0,13.1.5h0a12.89,12.89,0,0,1,5.6,1.9h0a13.65,13.65,0,0,1,2.3,1.9h0c.4.5.8,1.1,1.2,1.6h0l.9,1.8h0q.3.9.6,2.1h0a21.87,21.87,0,0,1,.4,2.7h0a35.53,35.53,0,0,1,.3,4.6h0v1.2h0V29.6h0a55.2,55.2,0,0,1-.6,8.1h0A18.92,18.92,0,0,1,253,40h0a10.7,10.7,0,0,1-1.3,3.1h0a10.67,10.67,0,0,1-2.2,2.5h0a12.23,12.23,0,0,1-2.9,1.7h-.1a8,8,0,0,1,1.6.8h0a11.22,11.22,0,0,1,2.6,2.2h0a12.68,12.68,0,0,1,1.8,2.9h0a15.87,15.87,0,0,1,.7,2h0a50.21,50.21,0,0,1,.9,8.6h0V93l-20.5.1Zm-1.1-37.2a4.05,4.05,0,0,1,.9.5h0a4,4,0,0,1,1.1,3h0a19.27,19.27,0,0,1,.1,2.4h0v2.3h0v1h0v27h18.6V63.9a38.31,38.31,0,0,0-.8-8.3h0a13.36,13.36,0,0,0-.7-1.8h0a7.82,7.82,0,0,0-1.7-2.6h0a9.14,9.14,0,0,0-2.4-2h0a10.47,10.47,0,0,0-2.9-1.2h0V47a8.8,8.8,0,0,0,1.5-.5h0a9.34,9.34,0,0,0,2.6-1.5h0a7.4,7.4,0,0,0,2-2.3h0a13.9,13.9,0,0,0,1.2-2.8h0a17.42,17.42,0,0,0,.5-2.2h0a53.86,53.86,0,0,0,.6-8h0V28.5h0V17.8h0a34,34,0,0,0-.3-4.5h0c-.1-.9-.3-1.9-.4-2.6h0a7.1,7.1,0,0,0-.6-1.9h0a13,13,0,0,0-.8-1.7h0a14.31,14.31,0,0,0-1.1-1.5h0a9.09,9.09,0,0,0-2.1-1.8h0A12.44,12.44,0,0,0,242.6,2h0c-4.3-.5-8.7-.4-13-.5H209.2V92.2H228V55.6h1.9a8,8,0,0,1,2.6.3ZM173.8,93.1V16.2H164V.9h.5V.4h39.6V16.2h-9.7V93.1ZM165,15.2h9.8V92.1h18.6V15.2h9.7V1.4H165V15.2ZM95.2,93.1v-45l-6.1,45H76.8L70.4,47.6V93.1H51.8V.4H78.1V.9l.5-.1L82.7,37,87,.3h26.8V93l-18.6.1Zm1-52.4V92.1h16.7V1.4H88L83.3,41.5h-1L77.7,1.4H52.8V92.1H69.5V40.4l1-.1,7.2,51.8H88.3l7-51.5.9.1ZM28.9,93.1,27.4,75H20.8L19.5,92.7H19v.5H0L11.9.4H36.7L48.4,93.1Zm-27.8-1H18.5L19.9,74h8.4l1.5,18.1H47.3L35.8,1.4h-23L1.1,92.1Zm327-14V15.4h1.7v1h-.7V77.1h2.7a1.55,1.55,0,0,0,.6-.3h0a2.65,2.65,0,0,0,.6-.5h0a1.61,1.61,0,0,0,.4-.7h0a3,3,0,0,0,.2-1h0c0-.3.1-.7.1-1.1h0V20.9c0-1.3,0-2.7-.6-3.5h0c-.1-.2-.3-.3-.4-.4h0a4.88,4.88,0,0,0-.7-.3h0a3.55,3.55,0,0,0-1-.2h-1.2v-1h1.3c.4.1.9.2,1.2.3h0a3.55,3.55,0,0,1,.9.4h0a2.34,2.34,0,0,1,.7.7h0c.8,1.2.7,2.8.7,4h0V73.7a4.87,4.87,0,0,1-.1,1.2h0l-.3,1.2h0a2.07,2.07,0,0,1-.6,1h0a2.7,2.7,0,0,1-.8.7h0a2.82,2.82,0,0,1-1.1.4h0l-3.6-.1Zm-50-18.2,2.7-36.2h1l2.6,35.6h-.5v.5h-5.8Zm1-1h4.3l-2.1-28.4-2.2,28.4Zm-258.2,1,2.7-36.2h1l2.6,35.6h-.5v.5H20.9Zm1.1-1h4.3L24.2,30.5,22,58.9ZM228.4,39.7h-.5V15.9h.5v-.5h2.8a4.19,4.19,0,0,1,1.5.4h0a3.76,3.76,0,0,1,1.7,3.3h0c.1,1.2.1,2.3.1,3.5h0V24h0v5.2h0c0,1.8,0,3.6-.1,5.4h0a16.35,16.35,0,0,1-.2,2.2h0a3.54,3.54,0,0,1-.3,1.1h0a2.18,2.18,0,0,1-.7.9h0a4,4,0,0,1-2.4.8h0c-.5,0-1,.1-1.4.1h0a1.7,1.7,0,0,1-1,0Zm1.1-.9a5.7,5.7,0,0,0,1.3-.1h0a3.2,3.2,0,0,0,1.8-.5h0a2.65,2.65,0,0,0,.5-.6h0a1.88,1.88,0,0,0,.2-.8h0a14.92,14.92,0,0,0,.2-2.1h0c0-1.8.1-3.6.1-5.4h0V24.1h0V22.7h0c0-1.2,0-2.3-.1-3.4h0c-.1-1.1-.1-1.8-1.2-2.5h0a2.61,2.61,0,0,0-1.1-.3h-2.3V38.9a1.27,1.27,0,0,1,.6-.1Z" transform="translate(0 0)"/><path d="M430.3,83.2H408.9c-2.6-.1-4.5-.2-5.9-.3a4,4,0,0,1-2.6-1.2,4.24,4.24,0,0,1-1-2.8c-.1-1.5-.2-3.8-.3-6.8V20.6c0-2.5.1-4.5.2-5.9a4.23,4.23,0,0,1,1.4-2.9,4,4,0,0,1,2.4-1.2c1.1-.1,3.1-.2,5.9-.2h21.3V25.3h10V.9H406.5a60,60,0,0,0-7.4.5,12,12,0,0,0-7,3.3,12.34,12.34,0,0,0-3.6,7.6,93.29,93.29,0,0,0-.4,9.9V73.7a67.55,67.55,0,0,0,.5,8.6,10.49,10.49,0,0,0,3.3,6.5,11.26,11.26,0,0,0,6.7,3.3,78.1,78.1,0,0,0,9.4.5h32.6V68.3H430.5l-.2,14.9Z" transform="translate(0 0)" style="fill:url(#linear-gradient-2)"/><path d="M407.8,93.1a79.36,79.36,0,0,1-9.4-.5h0a12.33,12.33,0,0,1-7-3.5h0a11.37,11.37,0,0,1-3.4-6.8h0a69.27,69.27,0,0,1-.5-8.7h0V22.1a90.28,90.28,0,0,1,.5-9.9h0a12.83,12.83,0,0,1,3.8-7.9h0A13,13,0,0,1,399.1.9h0a63,63,0,0,1,7.5-.5h34.3V25.7h-11V10.9H409c-2.8,0-4.8.1-5.9.2h0a3.11,3.11,0,0,0-2.1,1.1h0a3.56,3.56,0,0,0-1.2,2.6h0a48.09,48.09,0,0,0-.2,5.9h0V72.2c.1,3,.2,5.3.3,6.8h0a3.87,3.87,0,0,0,.9,2.5h0a3,3,0,0,0,2.2,1h0c1.3.1,3.3.2,5.8.3h20.9v-15h11.1V93.1ZM399.1,1.9A11.85,11.85,0,0,0,392.4,5h0a12,12,0,0,0-3.5,7.3h0a92.47,92.47,0,0,0-.4,9.8h0V73.6c0,3.4.2,6.3.4,8.6h0a10.53,10.53,0,0,0,3.1,6.2h0a11.2,11.2,0,0,0,6.4,3.2h0a76.27,76.27,0,0,0,9.3.5h32.1V68.8h-9.1V83.7H408.8c-2.6-.1-4.6-.2-5.9-.3h0a4.14,4.14,0,0,1-2.9-1.3h0a4.86,4.86,0,0,1-1.2-3.1h0c-.1-1.5-.2-3.8-.3-6.8h0V20.6c0-2.5.1-4.5.2-6h0a4.62,4.62,0,0,1,1.5-3.2h0a4.3,4.3,0,0,1,2.7-1.3h0c1.1-.1,3.1-.2,6-.2h21.8V24.8h9V1.4H406.4a62.5,62.5,0,0,0-7.3.5Zm31.2,81.3v0Z" transform="translate(0 0)"/><path d="M506.7,16.8c0-1.8-.1-3.5-.2-5.2A11.17,11.17,0,0,0,505.3,7a9.22,9.22,0,0,0-3-3.5,13.53,13.53,0,0,0-5.4-2.2,11.14,11.14,0,0,0-1.7-.2c-.5,0-1.2-.1-2-.1S491.3.9,490,.9H448.7v9.5h8.6V83.2h-8.6v9.5h28.5V83.2h-8.8V51h20.7c1.8,0,3.6,0,5.2-.1a23.89,23.89,0,0,0,4.9-.8,11.36,11.36,0,0,0,4.1-2.4,10.42,10.42,0,0,0,2.7-4.6,15.88,15.88,0,0,0,.7-3.9,48,48,0,0,0,0-5.4v-17ZM496,20.4V31.9c0,2.2-.1,4-.2,5.3a5.15,5.15,0,0,1-.9,2.8,4,4,0,0,1-2.5,1.3,28.9,28.9,0,0,1-5.8.4H468.5V10.4h17.6c2.5,0,4.4.1,5.8.2a4.79,4.79,0,0,1,2.7,1,4.87,4.87,0,0,1,1.1,2.7A48.16,48.16,0,0,1,496,20.4Z" transform="translate(0 0)" style="fill:url(#linear-gradient-3)"/><path d="M448.2,93.1V82.7h8.6V10.9h-8.6V.4H490a32.18,32.18,0,0,1,3.3.1h0c.8,0,1.5.1,2,.1h0a14.05,14.05,0,0,1,1.8.2h0A14.55,14.55,0,0,1,502.7,3h0a9.93,9.93,0,0,1,3.1,3.7h0a12.13,12.13,0,0,1,1.2,4.8h0c.1,1.6.2,3.4.2,5.2h0V33.6c0,1.1.1,2.1.1,3h0a17.72,17.72,0,0,1-.1,2.4h0a15.86,15.86,0,0,1-.7,4h0a11.45,11.45,0,0,1-2.9,4.8h0a10.38,10.38,0,0,1-4.3,2.5h0a19.38,19.38,0,0,1-5,.8h0c-1.7.1-3.5.1-5.3.1H469V82.4h8.8V92.9H448.2Zm1-1h27.5V83.6H468V50.4h21.2c1.8,0,3.5,0,5.2-.1h0a17.1,17.1,0,0,0,4.7-.8h0a8.63,8.63,0,0,0,3.9-2.3h0a10.51,10.51,0,0,0,2.6-4.4h0a19.82,19.82,0,0,0,.7-3.8h0c0-.7.1-1.5.1-2.4h0c0-.9,0-1.9-.1-3h0V16.8c0-1.8-.1-3.5-.2-5.1h0A11.38,11.38,0,0,0,505,7.3h0a10,10,0,0,0-2.8-3.4h0A13.36,13.36,0,0,0,497,1.8h0c-.6-.1-1.2-.1-1.7-.2h0c-.5,0-1.2-.1-2-.1h0c-.8,0-1.9-.1-3.2-.1H449.3V9.9h8.6V83.7h-8.6l-.1,8.4ZM468,42.2V9.9h18.1a44.69,44.69,0,0,1,5.9.3h0a5.9,5.9,0,0,1,3,1.1h0a4.37,4.37,0,0,1,1.2,3h0a48.16,48.16,0,0,1,.3,6.1h0V31.9c0,2.2-.1,4-.2,5.4h0a5.71,5.71,0,0,1-1,3.1h0a4.47,4.47,0,0,1-2.8,1.5h0a30.68,30.68,0,0,1-5.9.4h0L468,42.2Zm1-1h17.6a27.79,27.79,0,0,0,5.7-.4h0a3.5,3.5,0,0,0,2.2-1.1h0a4.9,4.9,0,0,0,.8-2.5h0c.1-1.3.2-3.1.2-5.3h0V20.4h0a45.36,45.36,0,0,0-.3-6h0a4.59,4.59,0,0,0-.9-2.4h0a4.59,4.59,0,0,0-2.4-.9h0a46.32,46.32,0,0,0-5.8-.2H469V41.2Z" transform="translate(0 0)"/><path d="M557.4,68.3V83.2H536c-2.6-.1-4.5-.2-5.9-.3a4,4,0,0,1-2.6-1.2,4.24,4.24,0,0,1-1-2.8c-.1-1.5-.2-3.8-.3-6.8V20.6c0-2.5.1-4.5.2-5.9a4,4,0,0,1,1.4-2.9,4,4,0,0,1,2.4-1.2c1.1-.1,3.1-.2,5.9-.2h21.3V25.3h10V.9H533.6a60,60,0,0,0-7.4.5,12,12,0,0,0-7,3.3,12.34,12.34,0,0,0-3.6,7.6,90.28,90.28,0,0,0-.5,9.9V73.7a67.55,67.55,0,0,0,.5,8.6,10.49,10.49,0,0,0,3.3,6.5,11.26,11.26,0,0,0,6.7,3.3,78.1,78.1,0,0,0,9.4.5h32.6V68.3Z" transform="translate(0 0)" style="fill:url(#linear-gradient-4)"/><path d="M534.9,93.1a79.36,79.36,0,0,1-9.4-.5h0a12.33,12.33,0,0,1-7-3.5h0a11.37,11.37,0,0,1-3.4-6.8h0a69.27,69.27,0,0,1-.5-8.7h0V22.1a90.28,90.28,0,0,1,.5-9.9h0a12.83,12.83,0,0,1,3.8-7.9h0A13,13,0,0,1,526.2.9h0a63,63,0,0,1,7.5-.5H568V25.7H557V10.8H536.2c-2.8,0-4.8.1-5.9.2h0a3.11,3.11,0,0,0-2.1,1.1h0a3.56,3.56,0,0,0-1.2,2.6h0a48.09,48.09,0,0,0-.2,5.9h0V72.1c.1,3,.2,5.3.3,6.8h0a3.87,3.87,0,0,0,.9,2.5h0a3,3,0,0,0,2.2,1h0c1.3.1,3.3.2,5.8.3h20.9V67.8H568V93.1ZM526.2,1.9A11.85,11.85,0,0,0,519.5,5h0a12,12,0,0,0-3.5,7.3h0a92.47,92.47,0,0,0-.4,9.8h0V73.6c0,3.4.2,6.3.4,8.6h0a10.53,10.53,0,0,0,3.1,6.2h0a11.2,11.2,0,0,0,6.4,3.2h0a76.27,76.27,0,0,0,9.3.5H567V68.8h-9.1V83.7H536c-2.6-.1-4.6-.2-5.9-.3h0a4.14,4.14,0,0,1-2.9-1.3h0A4.86,4.86,0,0,1,526,79h0c-.1-1.5-.2-3.8-.3-6.8h0V20.6c0-2.5.1-4.5.2-6h0a5.07,5.07,0,0,1,1.5-3.2h0a4.3,4.3,0,0,1,2.7-1.3h0c1.1-.1,3.1-.2,6-.2h21.8V24.8h9V1.5H533.6a61.17,61.17,0,0,0-7.4.4Zm31.2,66.9v0Z" transform="translate(0 0)"/></svg>