<?xml version="1.0" encoding="utf-8"?>
<!-- Generator: Adobe Illustrator 24.0.3, SVG Export Plug-In . SVG Version: 6.00 Build 0)  -->
<svg version="1.1" id="Layer_1" xmlns="http://www.w3.org/2000/svg" xmlns:xlink="http://www.w3.org/1999/xlink" x="0px" y="0px"
	 viewBox="0 0 568 93.2" style="enable-background:new 0 0 568 93.2;" xml:space="preserve">
<style type="text/css">
	.st0{fill:url(#SVGID_1_);}
	.st1{fill:url(#SVGID_2_);}
	.st2{fill:url(#SVGID_3_);}
	.st3{fill:url(#SVGID_4_);}
</style>
<g>
	<g>
		<g>
			
				<linearGradient id="SVGID_1_" gradientUnits="userSpaceOnUse" x1="177.299" y1="93.3891" x2="177.299" y2="0.8891" gradientTransform="matrix(1 0 0 -1 0 93.8898)">
				<stop  offset="0" style="stop-color:#FFFFFF"/>
				<stop  offset="1" style="stop-color:#93D4EF"/>
			</linearGradient>
			<path class="st0" d="M19,92.6l1.4-18.1h7.5l1.5,18.1h18.5L36.3,0.9H12.4L0.6,92.6H19 M26.8,59.4h-5.3l2.7-35.6L26.8,59.4
				 M78.1,0.9H52.3v91.7H70V40.4l7.3,52.2h11.5l7-51.9v51.9h17.7V0.9H87.6l-4.8,40.5L78.1,0.9 M116.6,12.1c0,6.3-0.1,12.6,0,19
				c0,1,0.1,2.1,0.2,2.8c0.1,1.6,0.3,2,0.5,3.1c0.3,1,0.7,2.3,1.4,3.4c0.3,0.5,0.7,1,1.3,1.6s1.3,1.3,2.1,2c1.6,1.4,3.4,2.5,5.1,3.4
				c3.9,2.1,7.7,4.2,11.6,6.4c0.5,0.3,1.1,0.6,1.6,1.1c1.3,1.3,1.3,2.8,1.3,4.2l0.1,2l0,12.4c0,0.9-0.1,1.8-0.5,2.8
				c-0.1,0.3-0.4,0.5-0.6,0.8c-0.8,0.7-1.8,0.8-2.7,0.4c-0.3-0.1-0.6-0.3-0.8-0.5c-1-0.9-0.9-2.3-1-3.4l0-18.7h-19.5l0,20.9
				c0,2.6,0,5,0.6,7.5c0.3,1.3,0.8,2.6,1.5,3.9s1.7,2.3,2.8,3.1c1.1,0.8,2.4,1.4,3.5,1.8c1,0.4,1.8,0.5,2.5,0.6
				c0.8,0.1,1.5,0.2,2.3,0.2h19.8c0.9,0,1.8,0,2.9-0.3c1.1-0.3,2.4-0.8,3.6-1.6c1.1-0.7,2.1-1.6,2.8-2.6c0.7-1,1-2,1.3-2.9
				s0.6-1.8,0.8-2.9c0.2-1.1,0.3-2.5,0.4-3.9c0.1-1.4,0-2.8,0-4.2V59.7c0-0.3,0-0.6,0-1.2c0-0.6,0-1.6-0.1-2.7s-0.1-2.3-0.2-3.1
				c-0.1-0.8-0.1-1.2-0.2-1.5s-0.2-0.7-0.3-1.1c-0.1-0.4-0.2-0.7-0.5-1.3c-0.3-0.6-0.7-1.5-1.3-2.3c-0.5-0.8-1.2-1.5-1.9-2.2
				c-0.7-0.7-1.5-1.2-2.4-1.8c-1.8-1.2-3.8-2.5-5.8-3.6l-8.3-4.5c-0.5-0.3-1-0.6-1.5-0.9c-0.5-0.3-0.9-0.6-1.2-0.9
				c-0.5-0.4-0.5-0.4-0.7-0.7c-0.1-0.1-0.2-0.2-0.3-0.4c-0.3-0.5-0.7-1.4-0.8-2.1c0-0.4,0-0.8,0-1.2c0-2.9,0-5.9,0-8.7
				c0-0.6,0-1.4,0.2-2.1c0.1-0.3,0.3-0.7,0.4-0.9c0.9-1.3,2.1-1.4,3.3-0.9c0.3,0.1,0.5,0.4,0.8,0.6c0.2,0.2,0.4,0.5,0.5,0.8
				c0.1,0.3,0.2,0.6,0.3,1.1c0.1,0.9,0.1,2.2,0.1,3.3v10.9h19.6c0-5.6,0.1-11.3-0.1-16.9c-0.1-1.3-0.1-2.6-0.2-3.5
				c-0.1-0.9-0.1-1.3-0.2-1.7c-0.1-0.4-0.2-0.8-0.3-1.2c-0.1-0.4-0.2-0.8-0.6-1.5c-0.3-0.7-0.8-1.7-1.4-2.5s-1.4-1.6-2.3-2.2
				c-0.9-0.6-1.9-1.1-2.7-1.4c-1.7-0.6-2.9-0.7-4.4-0.8c-0.7-0.1-1.4-0.1-2.1-0.1l-17,0.1c-1.9,0.1-3.9,0.3-5.9,0.9
				c-0.6,0.2-1.2,0.4-1.8,0.7c-1.1,0.6-2,1.3-3,2.4c-0.5,0.6-1,1.4-1.4,2.2C117.2,8.5,116.7,10.3,116.6,12.1 M164.5,0.9v14.8h9.8
				v76.9h19.6V15.7h9.7V0.9H164.5 M229.8,0.9h-20.9v91.7h19.6V56.1c1.3,0,2.6-0.1,3.9,0.3c0.3,0.1,0.5,0.2,0.8,0.4
				c0.9,0.8,0.8,1.8,1,2.7c0.2,1.9,0,3.8,0.1,5.7v27.5h19.6l0-28.7c0-2.8-0.2-5.6-0.8-8.5c-0.2-0.6-0.4-1.3-0.7-1.9
				c-0.4-1-1-1.9-1.7-2.8c-0.7-0.8-1.6-1.5-2.5-2.1s-1.9-1-3-1.3c0.5-0.1,1-0.3,1.5-0.5c1-0.4,2-0.9,2.8-1.6
				c0.8-0.7,1.6-1.5,2.1-2.4c0.6-0.9,1-1.9,1.2-3c0.2-0.8,0.4-1.5,0.5-2.3c0.5-3.1,0.6-6.2,0.6-9.3v-9.6c0.1-1.9,0-3.8-0.3-5.7
				c-0.1-0.9-0.3-1.9-0.4-2.7c-0.2-0.8-0.3-1.4-0.6-2s-0.5-1.2-0.8-1.7c-0.3-0.6-0.7-1.1-1.1-1.6c-0.7-0.7-1.4-1.3-2.2-1.8
				c-1.7-1.1-3.5-1.7-5.4-1.8C238.5,0.9,234.1,1.1,229.8,0.9 M228.5,15.9c0.9,0,1.8,0,2.8,0c0.4,0,0.9,0.2,1.3,0.4
				c1.3,0.8,1.3,1.9,1.5,2.9c0.1,1.2,0.1,2.3,0.1,3.5c0,4,0.1,8,0,12c0,0.7-0.1,1.4-0.2,2.1c0,0.3-0.1,0.7-0.3,1
				c-0.2,0.3-0.4,0.6-0.6,0.8c-0.6,0.5-1.4,0.6-2.1,0.6c-0.8,0.1-1.6,0.1-2.4,0V15.9 M276.1,92.6l1.4-18.1h7.5l1.5,18.1h18.5
				L293.4,0.9h-23.9l-11.8,91.7H276.1 M283.9,59.4h-5.3l2.7-35.6L283.9,59.4 M351.7,6.6c-0.7-1.1-1.5-2-2.5-2.8
				c-1-0.8-2.2-1.3-3-1.7c-0.9-0.3-1.4-0.5-2-0.5c-0.6-0.1-1.1-0.2-1.7-0.3c-0.6-0.1-1.1-0.1-2.5-0.2c-1.3-0.1-3.5-0.2-5.6-0.2
				l-25.4,0v91.7l31.1-0.1c0.8,0,1.5-0.2,2.3-0.4c1.6-0.3,3-0.6,4.5-1.3c0.8-0.4,1.6-0.8,2.4-1.4c0.8-0.6,1.5-1.3,2.1-2.4
				c0.7-1.1,1.3-2.5,1.7-4.3c0.5-1.8,0.8-3.9,0.8-6l-0.1-62.6c0-1.4-0.4-2.8-0.7-4.1C352.8,8.9,352.3,7.7,351.7,6.6 M329.8,15.9
				c0.4,0,0.8,0,1.2,0s0.8,0.1,1.1,0.2s0.6,0.2,0.8,0.4s0.4,0.3,0.6,0.6c0.7,1,0.6,2.5,0.7,3.7v52.8c0,0.4,0,0.8-0.1,1.2
				c-0.1,0.4-0.1,0.7-0.3,1.1s-0.3,0.6-0.5,0.8c-0.2,0.2-0.4,0.4-0.7,0.6c-0.3,0.2-0.6,0.3-0.9,0.3h-3.2V15.9H329.8"/>
			<path d="M149.6,93.2h-19.8c-0.8,0-1.6-0.1-2.3-0.2l0,0c-0.8-0.1-1.6-0.2-2.6-0.6l0,0c-1.1-0.4-2.4-1-3.6-1.9l0,0
				c-1.2-0.9-2.2-2-3-3.2l0,0c-0.8-1.3-1.2-2.7-1.6-4l0,0c-0.6-2.6-0.6-5.1-0.6-7.6l0,0l0-21.4h20.5l0,19.1c0.1,1.2,0.1,2.4,0.9,3.1
				l0,0c0.2,0.2,0.4,0.3,0.6,0.4l0,0c0.3,0.1,0.6,0.2,0.9,0.2l0,0c0.5,0,1-0.2,1.4-0.5l0,0c0.2-0.2,0.4-0.4,0.5-0.6l0,0
				c0.4-0.8,0.5-1.6,0.5-2.4l0,0c0-0.1,0-0.1,0-0.1l0,0l0-12.4l-0.1-2c0-0.2,0-0.3,0-0.5l0,0c0-1.3-0.1-2.3-1.2-3.4l0,0
				c-0.5-0.5-1-0.7-1.5-1.1l0,0c-3.9-2.2-7.7-4.3-11.5-6.4l0,0c-1.8-0.9-3.6-2-5.2-3.5l0,0c-0.8-0.7-1.5-1.4-2.1-2l0,0
				c-0.6-0.6-1-1.2-1.3-1.7l0,0c-0.8-1.2-1.2-2.5-1.5-3.5l0,0c-0.3-1-0.4-1.6-0.5-3.1l0,0c-0.1-0.8-0.1-1.8-0.2-2.8l0,0
				c0-1.6,0-3.2,0-4.9l0,0c0-4.7,0-9.4,0.1-14.1l0,0v0l0.5,0l-0.5,0c0-1.9,0.6-3.8,1.4-5.5l0,0c0.4-0.8,1-1.6,1.5-2.3l0,0
				c1-1.2,2-1.9,3.1-2.6l0,0c0.6-0.3,1.2-0.6,1.8-0.8l0,0c2.1-0.6,4-0.8,6-0.9l0,0L147,0c0.1,0,0.1,0,0.1,0l0,0
				c0.7,0,1.4,0.1,2.1,0.1l0,0c1.4,0.2,2.7,0.3,4.5,0.9l0,0c0.9,0.3,1.9,0.8,2.8,1.4l0,0c0.9,0.6,1.8,1.4,2.4,2.4l0,0
				c0.7,0.9,1.2,1.9,1.5,2.6l0,0c0.3,0.7,0.5,1.1,0.6,1.6l0,0c0.1,0.4,0.2,0.8,0.3,1.3l0,0c0.1,0.4,0.2,0.9,0.2,1.7l0,0
				c0.1,0.9,0.2,2.2,0.2,3.5l0,0c0.1,2.5,0.1,5.1,0.1,7.6l0,0c0,2.5,0,4.9,0,7.4l0,0c0,0.7,0,1.3,0,2l0,0l0,0.5h-20.6V21.5
				c0-0.2,0-0.4,0-0.5l0,0c0-1,0-2-0.1-2.7l0,0c0-0.4-0.1-0.7-0.2-0.9l0,0c-0.1-0.3-0.3-0.5-0.4-0.7l0,0c-0.2-0.2-0.4-0.4-0.6-0.5
				l0,0c-0.4-0.2-0.7-0.2-1-0.2l0,0c-0.6,0-1.1,0.3-1.7,1l0,0c-0.1,0.2-0.3,0.5-0.4,0.8l0,0c-0.2,0.5-0.2,1-0.2,1.6l0,0
				c0,0.1,0,0.2,0,0.3l0,0c0,1.2,0,2.5,0,3.8l0,0c0,1.3,0,2.5,0,3.8l0,0c0,0.3,0,0.7,0,1l0,0c0,0.3,0,0.5,0,0.8l0,0
				c0,0.1,0,0.3,0,0.4l0,0c0.1,0.6,0.4,1.5,0.7,1.9l0,0c0.1,0.2,0.2,0.3,0.2,0.3l0,0c0.3,0.3,0.2,0.2,0.6,0.6l0,0
				c0.3,0.2,0.7,0.5,1.2,0.8l0,0c0.5,0.3,0.9,0.6,1.4,0.8l0,0l8.3,4.5c2,1.1,4,2.3,5.8,3.6l0,0c0.9,0.6,1.7,1.2,2.4,1.9l0,0
				c0.7,0.7,1.4,1.5,2,2.3l0,0c0.6,0.8,1,1.7,1.3,2.3l0,0c0.3,0.6,0.4,1,0.5,1.4l0,0c0.1,0.4,0.2,0.7,0.3,1.1l0,0
				c0.1,0.4,0.1,0.8,0.2,1.6l0,0c0.1,0.8,0.1,2.1,0.2,3.2l0,0c0,1.1,0.1,2.1,0.1,2.7l0,0c0,0.6,0,0.9,0,1.2l0,0v14.7
				c0,0.7,0,1.4,0,2.1l0,0c0,0.7,0,1.4,0,2.1l0,0c-0.1,1.4-0.2,2.8-0.4,3.9l0,0c-0.2,1.1-0.5,2-0.8,2.9l0,0c-0.3,0.9-0.7,2-1.4,3.1
				l0,0c-0.7,1-1.7,2-2.9,2.7l0,0c-1.2,0.8-2.5,1.3-3.7,1.6l0,0c-0.9,0.3-1.8,0.3-2.5,0.3l0,0C150,93.2,149.8,93.2,149.6,93.2
				L149.6,93.2z M117.1,75.7c0,2.6,0,5,0.6,7.4l0,0c0.3,1.3,0.8,2.6,1.4,3.7l0,0c0.7,1.2,1.6,2.2,2.7,3l0,0c1.1,0.8,2.3,1.4,3.3,1.7
				l0,0c1,0.3,1.7,0.4,2.4,0.5l0,0c0.8,0.1,1.5,0.2,2.2,0.2l0,0h19.8c0.2,0,0.4,0,0.6,0l0,0c0.7,0,1.4,0,2.2-0.2l0,0
				c1.1-0.3,2.3-0.8,3.4-1.5l0,0c1.1-0.7,2-1.6,2.6-2.5l0,0c0.6-0.9,1-1.9,1.3-2.8l0,0c0.3-0.9,0.6-1.7,0.7-2.8l0,0
				c0.2-1.1,0.3-2.4,0.4-3.8l0,0c0-0.7,0-1.4,0-2.1l0,0c0-0.7,0-1.4,0-2.1l0,0V59.7c0-0.3,0-0.5,0-1.2l0,0c0-0.6,0-1.6-0.1-2.7l0,0
				c0-1.1-0.1-2.3-0.2-3.1l0,0c-0.1-0.8-0.1-1.1-0.2-1.5l0,0c-0.1-0.3-0.2-0.7-0.3-1l0,0c-0.1-0.3-0.2-0.6-0.5-1.2l0,0
				c-0.3-0.6-0.7-1.4-1.2-2.2l0,0c-0.5-0.8-1.1-1.5-1.8-2.1l0,0c-0.7-0.6-1.4-1.2-2.3-1.8l0,0c-1.8-1.2-3.8-2.5-5.7-3.5l0,0
				l-8.3-4.5c-0.5-0.3-1-0.6-1.5-0.9l0,0c-0.5-0.3-1-0.7-1.2-0.9l0,0c-0.5-0.4-0.6-0.5-0.8-0.7l0,0c-0.1-0.1-0.2-0.2-0.3-0.5l0,0
				c-0.3-0.6-0.7-1.5-0.8-2.3l0,0c0-0.2,0-0.3,0-0.5l0,0c0-0.3,0-0.5,0-0.8l0,0c0-0.3,0-0.7,0-1l0,0c0-1.3,0-2.5,0-3.8l0,0
				c0-1.3,0-2.6,0-3.8l0,0c0-0.1,0-0.2,0-0.4l0,0c0-0.6,0-1.3,0.3-1.9l0,0c0.1-0.4,0.3-0.7,0.5-1.1l0,0c0.7-0.9,1.6-1.4,2.5-1.4l0,0
				c0.5,0,0.9,0.1,1.5,0.3l0,0c0.3,0.2,0.6,0.4,0.9,0.7l0,0c0.3,0.3,0.5,0.6,0.6,1l0,0c0.1,0.4,0.2,0.7,0.3,1.2l0,0
				c0.1,0.8,0.1,1.8,0.1,2.8l0,0c0,0.2,0,0.4,0,0.5l0,0v10.4h18.6c0-0.5,0-1,0-1.5l0,0c0-2.5,0-4.9,0-7.4l0,0c0-2.5,0-5-0.1-7.6l0,0
				c-0.1-1.3-0.1-2.6-0.2-3.4l0,0c-0.1-0.9-0.1-1.2-0.2-1.6l0,0c-0.1-0.4-0.2-0.8-0.3-1.2l0,0c-0.1-0.4-0.2-0.8-0.5-1.4l0,0
				c-0.3-0.7-0.8-1.6-1.4-2.4l0,0c-0.6-0.8-1.3-1.5-2.2-2.1l0,0c-0.8-0.6-1.8-1-2.6-1.3l0,0c-1.6-0.6-2.8-0.6-4.2-0.8l0,0
				c-0.7-0.1-1.3-0.1-2-0.1l0,0c0,0-0.1,0-0.1,0l0,0l-17,0.1c-1.9,0.1-3.8,0.3-5.8,0.9l0,0c-0.6,0.2-1.1,0.4-1.7,0.7l0,0
				c-1.1,0.6-1.9,1.2-2.8,2.3l0,0c-0.5,0.6-1,1.3-1.4,2.1l0,0c-0.8,1.6-1.3,3.3-1.3,5l0,0l0,0c0,4.7-0.1,9.4-0.1,14.1l0,0
				c0,1.6,0,3.2,0,4.8l0,0c0,1,0.1,2,0.2,2.8l0,0c0.1,1.6,0.2,2,0.5,3l0,0c0.3,1,0.7,2.2,1.4,3.2l0,0c0.3,0.5,0.7,1,1.2,1.6l0,0
				c0.5,0.6,1.3,1.3,2,2l0,0c1.6,1.4,3.3,2.4,5,3.3l0,0c3.9,2.1,7.7,4.2,11.6,6.4l0,0c0.5,0.3,1.1,0.6,1.7,1.2l0,0
				c1.3,1.3,1.5,2.8,1.5,4.1l0,0c0,0.2,0,0.3,0,0.5l0,0l0.1,2l0,12.4c0,0.1,0,0.1,0,0.2l0,0c0,0.9-0.1,1.8-0.6,2.8l0,0
				c-0.2,0.3-0.4,0.6-0.7,0.9l0,0c-0.6,0.5-1.3,0.8-2,0.8l0,0c-0.4,0-0.8-0.1-1.2-0.2l0,0c-0.4-0.1-0.7-0.4-1-0.6l0,0
				c-1.2-1.2-1-2.7-1.2-3.8l0,0l0-18.2h-18.5L117.1,75.7L117.1,75.7z M308.5,0.4l25.9,0c2.1,0,4.3,0.1,5.6,0.2l0,0
				c1.3,0.1,1.9,0.1,2.5,0.2l0,0c0.6,0.1,1.1,0.2,1.7,0.3l0,0c0.6,0.1,1.2,0.2,2.1,0.6l0,0c0.9,0.4,2.1,0.9,3.1,1.8l0,0
				c1.1,0.8,2,1.8,2.7,2.9l0,0h0l0,0c0.7,1.1,1.2,2.4,1.6,3.7l0,0c0.4,1.3,0.7,2.8,0.7,4.3l0,0l0.1,62.6l0,0c0,0,0,0,0,0l0,0
				c0,0,0,0,0,0l0,0c0,2.1-0.4,4.3-0.8,6l0,0c-0.5,1.8-1.1,3.3-1.8,4.4l0,0c-0.7,1.1-1.4,1.9-2.3,2.5l0,0c-0.8,0.6-1.7,1.1-2.5,1.5
				l0,0c-1.6,0.7-3,1-4.6,1.3l0,0c-0.7,0.1-1.5,0.4-2.4,0.4l0,0l-31.6,0.1L308.5,0.4L308.5,0.4z M309.5,92.1l30.6-0.1
				c0.7,0,1.4-0.2,2.2-0.3l0,0c1.6-0.3,3-0.6,4.4-1.2l0,0c0.8-0.3,1.6-0.8,2.3-1.4l0,0c0.7-0.6,1.4-1.2,2-2.2l0,0
				c0.6-1,1.2-2.4,1.7-4.2l0,0c0.4-1.7,0.8-3.8,0.8-5.8l0,0c0,0,0,0,0-0.1l0,0l-0.1-62.6c0-1.3-0.3-2.7-0.7-4l0,0
				c-0.4-1.3-0.8-2.4-1.4-3.4l0,0l0.4-0.3l-0.4,0.3c-0.6-1-1.5-1.9-2.4-2.7l0,0c-1-0.7-2.1-1.3-2.9-1.6l0,0
				c-0.8-0.3-1.3-0.4-1.9-0.5l0,0c-0.6-0.1-1.1-0.2-1.6-0.2l0,0c-0.5-0.1-1.1-0.1-2.4-0.2l0,0c-1.3-0.1-3.5-0.2-5.6-0.2l0,0l-24.9,0
				V92.1L309.5,92.1z M286.1,93.1L284.6,75H278l-1.3,17.7v0l-0.5,0v0.5h-19l11.9-92.7h24.8l11.7,92.7L286.1,93.1L286.1,93.1z
				 M258.3,92.1h17.4l1.4-18.1h8.4l1.5,18.1h17.5L293,1.4h-23.1L258.3,92.1L258.3,92.1z M233.6,93.1l0-27.9c0-0.3,0-0.7,0-1l0,0
				c0-0.8,0-1.5,0-2.3l0,0c0-0.8,0-1.6-0.1-2.3l0,0c-0.1-1-0.1-1.8-0.8-2.4l0,0c-0.2-0.1-0.4-0.3-0.6-0.3l0,0
				c-0.7-0.2-1.5-0.3-2.3-0.3l0,0c-0.2,0-0.5,0-0.7,0l0,0c-0.1,0-0.1,0-0.2,0l0,0v36.5h-20.6V0.4h21.4v0.5l0-0.5
				c4.3,0.1,8.7,0,13.1,0.5l0,0c1.9,0.2,3.9,0.8,5.6,1.9l0,0c0.8,0.5,1.6,1.2,2.3,1.9l0,0c0.4,0.5,0.8,1.1,1.2,1.6l0,0
				c0.3,0.6,0.6,1.2,0.9,1.8l0,0c0.2,0.6,0.4,1.3,0.6,2.1l0,0c0.2,0.8,0.3,1.8,0.4,2.7l0,0c0.2,1.5,0.3,3.1,0.3,4.6l0,0
				c0,0.4,0,0.8,0,1.2l0,0v9.6c0,0.4,0,0.8,0,1.3l0,0c0,2.7-0.2,5.4-0.6,8.1l0,0c-0.1,0.8-0.3,1.5-0.5,2.3l0,0
				c-0.3,1.1-0.7,2.2-1.3,3.1l0,0c-0.6,1-1.4,1.8-2.2,2.5l0,0c-0.9,0.7-1.9,1.3-2.9,1.7l0,0c0,0-0.1,0-0.1,0l0,0
				c0.6,0.2,1.1,0.5,1.6,0.8l0,0c1,0.6,1.9,1.4,2.6,2.2l0,0c0.7,0.9,1.4,1.9,1.8,2.9l0,0c0.3,0.7,0.5,1.3,0.7,2l0,0
				c0.6,2.9,0.8,5.7,0.9,8.6l0,0l0,29.2L233.6,93.1L233.6,93.1z M232.5,55.9c0.3,0.1,0.6,0.3,0.9,0.5l0,0c1.1,1,1,2.2,1.1,3l0,0
				c0.1,0.8,0.1,1.6,0.1,2.4l0,0c0,0.8,0,1.5,0,2.3l0,0c0,0.3,0,0.6,0,1l0,0v27h18.6l0-28.2c0-2.8-0.2-5.6-0.8-8.3l0,0
				c-0.2-0.6-0.4-1.2-0.7-1.8l0,0c-0.4-1-1-1.9-1.7-2.6l0,0c-0.7-0.8-1.5-1.5-2.4-2l0,0c-0.9-0.5-1.9-1-2.9-1.2l0,0l0-1
				c0.5-0.1,1-0.3,1.5-0.5l0,0c1-0.4,1.9-0.9,2.6-1.5l0,0c0.8-0.6,1.5-1.4,2-2.3l0,0c0.5-0.9,0.9-1.8,1.2-2.8l0,0
				c0.2-0.7,0.4-1.5,0.5-2.2l0,0c0.4-2.7,0.6-5.3,0.6-8l0,0c0-0.4,0-0.8,0-1.2l0,0v-9.6c0-0.4,0-0.8,0-1.1l0,0c0-1.5-0.1-3-0.3-4.5
				l0,0c-0.1-0.9-0.3-1.9-0.4-2.6l0,0c-0.2-0.8-0.3-1.4-0.6-1.9l0,0c-0.2-0.6-0.5-1.1-0.8-1.7l0,0c-0.3-0.5-0.7-1-1.1-1.5l0,0
				c-0.6-0.7-1.3-1.3-2.1-1.8l0,0c-1.6-1-3.4-1.6-5.2-1.8l0,0c-4.3-0.5-8.7-0.4-13-0.5l0,0h-20.4v90.7H228V55.6l0.5,0
				c0.2,0,0.4,0,0.7,0l0,0c0.2,0,0.5,0,0.7,0l0,0C230.7,55.6,231.6,55.6,232.5,55.9L232.5,55.9z M173.8,93.1V16.2H164V0.9h0.5V0.4
				h39.6v15.8h-9.7v76.9H173.8L173.8,93.1z M165,15.2h9.8l0,76.9h18.6V15.2h9.7V1.4H165V15.2L165,15.2z M95.2,93.1l0-45l-6.1,45
				H76.8l-6.4-45.5v45.5H51.8V0.4h26.3v0.5l0.5-0.1l4.1,36.2l4.3-36.7h26.8v92.7L95.2,93.1L95.2,93.1z M96.2,40.7v51.4h16.7V1.4H88
				l-4.7,40.1l-1,0L77.7,1.4H52.8v90.7h16.7V40.4l1-0.1l7.2,51.8h10.6l7-51.5L96.2,40.7L96.2,40.7z M28.9,93.1L27.4,75h-6.6
				l-1.3,17.7l0,0l-0.5,0v0.5H0L11.9,0.4h24.8l11.7,92.7L28.9,93.1L28.9,93.1z M1.1,92.1h17.4L19.9,74h8.4l1.5,18.1h17.5L35.8,1.4
				H12.8L1.1,92.1L1.1,92.1z M328.1,78.1V15.4h0.5h1.2v1h-0.7v60.7h2.7c0.1,0,0.3-0.1,0.6-0.3l0,0c0.2-0.1,0.4-0.3,0.6-0.5l0,0
				c0.2-0.2,0.3-0.4,0.4-0.7l0,0c0.1-0.3,0.2-0.6,0.2-1l0,0c0-0.3,0.1-0.7,0.1-1.1l0,0V20.9c0-1.3,0-2.7-0.6-3.5l0,0
				c-0.1-0.2-0.3-0.3-0.4-0.4l0,0c-0.2-0.1-0.4-0.2-0.7-0.3l0,0c-0.3-0.1-0.7-0.2-1-0.2l0,0c-0.1,0-0.3,0-0.5,0l0,0
				c-0.2,0-0.5,0-0.7,0l0,0v-1c0.2,0,0.5,0,0.7,0l0,0c0.2,0,0.4,0,0.6,0l0,0c0.4,0.1,0.9,0.2,1.2,0.3l0,0c0.3,0.1,0.6,0.2,0.9,0.4
				l0,0c0.3,0.2,0.5,0.4,0.7,0.7l0,0c0.8,1.2,0.7,2.8,0.7,4l0,0v52.8c0,0.4,0,0.8-0.1,1.2l0,0c-0.1,0.4-0.2,0.8-0.3,1.2l0,0
				c-0.1,0.4-0.3,0.7-0.6,1l0,0c-0.2,0.3-0.5,0.5-0.8,0.7l0,0c-0.3,0.1-0.6,0.4-1.1,0.4l0,0L328.1,78.1L328.1,78.1z M278.1,59.9
				l2.7-36.2h1l2.6,35.6l-0.5,0v0.5H278.1L278.1,59.9z M279.1,58.9h4.3l-2.1-28.4L279.1,58.9L279.1,58.9z M20.9,59.9l2.7-36.2h1
				l2.6,35.6l-0.5,0v0.5H20.9L20.9,59.9z M22,58.9h4.3l-2.1-28.4L22,58.9L22,58.9z M228.4,39.7l-0.5,0V15.9h0.5l0-0.5
				c0.9,0,1.8,0,2.8,0l0,0c0.5,0,1,0.2,1.5,0.4l0,0l0,0l0,0c1.5,0.9,1.6,2.3,1.7,3.3l0,0c0.1,1.2,0.1,2.3,0.1,3.5l0,0
				c0,0.5,0,0.9,0,1.4l0,0c0,1.7,0,3.5,0,5.2l0,0c0,1.8,0,3.6-0.1,5.4l0,0c0,0.7-0.1,1.5-0.2,2.2l0,0c0,0.4-0.2,0.8-0.3,1.1l0,0
				c-0.2,0.4-0.4,0.7-0.7,0.9l0,0c-0.8,0.7-1.7,0.7-2.4,0.8l0,0c-0.5,0-1,0.1-1.4,0.1l0,0C229.1,39.8,228.8,39.8,228.4,39.7
				L228.4,39.7z M229.5,38.8c0.4,0,0.9,0,1.3-0.1l0,0c0.7-0.1,1.4-0.1,1.8-0.5l0,0c0.2-0.2,0.4-0.4,0.5-0.6l0,0
				c0.1-0.2,0.2-0.5,0.2-0.8l0,0c0.1-0.7,0.2-1.4,0.2-2.1l0,0c0-1.8,0.1-3.6,0.1-5.4l0,0c0-1.7,0-3.5,0-5.2l0,0c0-0.5,0-0.9,0-1.4
				l0,0c0-1.2,0-2.3-0.1-3.4l0,0c-0.1-1.1-0.1-1.8-1.2-2.5l0,0c-0.4-0.2-0.8-0.3-1.1-0.3l0,0c-0.8,0-1.5,0-2.3,0l0,0v22.4
				C229.1,38.8,229.3,38.8,229.5,38.8L229.5,38.8z"/>
		</g>
	</g>
	<g>
		<g>
			
				<linearGradient id="SVGID_2_" gradientUnits="userSpaceOnUse" x1="414.2045" y1="93.3024" x2="414.2045" y2="0.8024" gradientTransform="matrix(1 0 0 -1 0 93.8898)">
				<stop  offset="0" style="stop-color:#FFFFFF"/>
				<stop  offset="1" style="stop-color:#93D4EF"/>
			</linearGradient>
			<path class="st1" d="M430.3,83.2h-21.4c-2.6-0.1-4.5-0.2-5.9-0.3c-1.1-0.1-1.9-0.5-2.6-1.2c-0.6-0.6-0.9-1.5-1-2.8
				c-0.1-1.5-0.2-3.8-0.3-6.8V20.6c0-2.5,0.1-4.5,0.2-5.9c0.1-1.2,0.6-2.2,1.4-2.9c0.7-0.7,1.5-1.1,2.4-1.2c1.1-0.1,3.1-0.2,5.9-0.2
				h21.3v14.9h10V0.9h-33.8c-2.5,0-5,0.2-7.4,0.5c-2.6,0.3-5,1.4-7,3.3c-2.1,2.1-3.3,4.7-3.6,7.6c-0.3,2.7-0.4,6-0.4,9.9v51.5
				c0,3.4,0.2,6.3,0.5,8.6c0.3,2.5,1.4,4.7,3.3,6.5c1.8,1.8,4.1,3,6.7,3.3c2.4,0.3,5.6,0.5,9.4,0.5h32.6V68.3h-10.1L430.3,83.2
				L430.3,83.2z"/>
			<path d="M407.8,93.1c-3.8,0-6.9-0.2-9.4-0.5l0,0c-2.7-0.4-5.1-1.6-7-3.5l0,0c-1.9-1.9-3.1-4.2-3.4-6.8l0,0
				c-0.3-2.3-0.5-5.3-0.5-8.7l0,0V22.1c0-3.9,0.2-7.2,0.5-9.9l0,0c0.3-3,1.6-5.7,3.8-7.9l0,0c2.1-1.9,4.6-3.1,7.3-3.4l0,0
				c2.5-0.3,5-0.5,7.5-0.5l0,0h34.3v25.3h-11V10.9H409c-2.8,0-4.8,0.1-5.9,0.2l0,0c-0.8,0.1-1.5,0.4-2.1,1.1l0,0
				c-0.7,0.6-1.1,1.4-1.2,2.6l0,0c-0.2,1.4-0.2,3.4-0.2,5.9l0,0l0,51.5c0.1,3,0.2,5.3,0.3,6.8l0,0c0.1,1.2,0.4,2,0.9,2.5l0,0
				c0.5,0.6,1.2,0.9,2.2,1l0,0c1.3,0.1,3.3,0.2,5.8,0.3l0,0h20.9V67.8h11.1v25.3H407.8L407.8,93.1z M399.1,1.9
				c-2.5,0.3-4.7,1.3-6.7,3.1l0,0c-2,2-3.2,4.5-3.5,7.3l0,0c-0.3,2.7-0.4,6-0.4,9.8l0,0v51.5c0,3.4,0.2,6.3,0.4,8.6l0,0
				c0.3,2.4,1.4,4.5,3.1,6.2l0,0c1.8,1.8,3.9,2.8,6.4,3.2l0,0c2.4,0.3,5.5,0.5,9.3,0.5l0,0h32.1V68.8h-9.1v14.4v0.5h-21.9
				c-2.6-0.1-4.6-0.2-5.9-0.3l0,0c-1.2-0.1-2.2-0.5-2.9-1.3l0,0c-0.7-0.7-1.1-1.8-1.2-3.1l0,0c-0.1-1.5-0.2-3.8-0.3-6.8l0,0V20.6
				c0-2.5,0.1-4.5,0.2-6l0,0c0.1-1.3,0.6-2.4,1.5-3.2l0,0c0.8-0.8,1.7-1.2,2.7-1.3l0,0c1.1-0.1,3.1-0.2,6-0.2l0,0h21.8v14.9h9V1.4
				h-33.3C404.1,1.4,401.6,1.6,399.1,1.9L399.1,1.9z M430.3,83.2v-0.5V83.2L430.3,83.2z"/>
		</g>
		<g>
			
				<linearGradient id="SVGID_3_" gradientUnits="userSpaceOnUse" x1="477.7771" y1="93.3024" x2="477.7771" y2="0.8024" gradientTransform="matrix(1 0 0 -1 0 93.8898)">
				<stop  offset="0" style="stop-color:#FFFFFF"/>
				<stop  offset="1" style="stop-color:#93D4EF"/>
			</linearGradient>
			<path class="st2" d="M506.7,16.8c0-1.8-0.1-3.5-0.2-5.2c-0.1-1.7-0.5-3.3-1.2-4.6c-0.7-1.4-1.7-2.6-3-3.5c-1.3-1-3.1-1.7-5.4-2.2
				c-0.6-0.1-1.2-0.2-1.7-0.2c-0.5,0-1.2-0.1-2-0.1c-0.8,0-1.9-0.1-3.2-0.1h-41.3v9.5h8.6v72.8h-8.6v9.5h28.5v-9.5h-8.8V51h20.7
				c1.8,0,3.6,0,5.2-0.1c1.8-0.1,3.4-0.4,4.9-0.8c1.5-0.5,2.9-1.3,4.1-2.4c1.2-1.1,2.1-2.7,2.7-4.6c0.4-1.2,0.6-2.5,0.7-3.9
				c0.1-1.4,0.1-3.2,0-5.4L506.7,16.8L506.7,16.8z M496,20.4v11.5c0,2.2-0.1,4-0.2,5.3c-0.1,1.2-0.4,2.2-0.9,2.8
				c-0.5,0.6-1.3,1.1-2.5,1.3c-1.3,0.3-3.3,0.4-5.8,0.4h-18.1V10.4h17.6c2.5,0,4.4,0.1,5.8,0.2c1.2,0.1,2.1,0.5,2.7,1
				c0.5,0.5,0.9,1.4,1.1,2.7C495.9,15.8,496,17.8,496,20.4z"/>
			<path d="M448.2,93.1V82.7l8.6,0V10.9h-8.6V0.4h41.8c1.3,0,2.4,0,3.3,0.1l0,0c0.8,0,1.5,0.1,2,0.1l0,0c0.5,0,1.1,0.1,1.8,0.2l0,0
				c2.4,0.5,4.2,1.2,5.6,2.2l0,0c1.4,1,2.4,2.3,3.1,3.7l0,0c0.7,1.4,1.1,3,1.2,4.8l0,0c0.1,1.6,0.2,3.4,0.2,5.2l0,0v16.9
				c0,1.1,0.1,2.1,0.1,3l0,0c0,0.9,0,1.7-0.1,2.4l0,0c-0.1,1.5-0.3,2.8-0.7,4l0,0c-0.7,2-1.6,3.6-2.9,4.8l0,0
				c-1.2,1.2-2.7,2-4.3,2.5l0,0c-1.5,0.5-3.2,0.7-5,0.8l0,0c-1.7,0.1-3.5,0.1-5.3,0.1l0,0H469v31.2h8.8v10.5H448.2L448.2,93.1z
				 M449.2,92.1h27.5v-8.5H468V50.4h21.2c1.8,0,3.5,0,5.2-0.1l0,0c1.7-0.1,3.3-0.3,4.7-0.8l0,0c1.5-0.4,2.8-1.2,3.9-2.3l0,0
				c1.1-1.1,2-2.5,2.6-4.4l0,0c0.3-1.1,0.6-2.4,0.7-3.8l0,0c0-0.7,0.1-1.5,0.1-2.4l0,0c0-0.9,0-1.9-0.1-3l0,0V16.8
				c0-1.8-0.1-3.5-0.2-5.1l0,0c-0.1-1.7-0.5-3.2-1.1-4.4l0,0c-0.6-1.3-1.6-2.4-2.8-3.4l0,0c-1.2-0.9-2.9-1.6-5.2-2.1l0,0
				c-0.6-0.1-1.2-0.1-1.7-0.2l0,0c-0.5,0-1.2-0.1-2-0.1l0,0c-0.8,0-1.9-0.1-3.2-0.1l0,0h-40.8v8.5h8.6v73.8h-8.6L449.2,92.1
				L449.2,92.1z M468,42.2V9.9h18.1c2.5,0,4.5,0.1,5.9,0.3l0,0c1.3,0.2,2.3,0.5,3,1.1l0,0c0.7,0.6,1.1,1.7,1.2,3l0,0
				c0.2,1.5,0.3,3.5,0.3,6.1l0,0v11.5c0,2.2-0.1,4-0.2,5.4l0,0c-0.1,1.3-0.4,2.3-1,3.1l0,0c-0.6,0.8-1.5,1.2-2.8,1.5l0,0
				c-1.4,0.3-3.4,0.4-5.9,0.4l0,0L468,42.2L468,42.2z M469,41.2h17.6c2.5,0,4.4-0.1,5.7-0.4l0,0c1.1-0.2,1.8-0.6,2.2-1.1l0,0
				c0.4-0.5,0.7-1.4,0.8-2.5l0,0c0.1-1.3,0.2-3.1,0.2-5.3l0,0V20.4h0c0-2.6-0.1-4.6-0.3-6l0,0c-0.2-1.2-0.5-2-0.9-2.4l0,0
				c-0.4-0.4-1.2-0.7-2.4-0.9l0,0c-1.4-0.2-3.3-0.2-5.8-0.2l0,0H469L469,41.2L469,41.2z"/>
		</g>
		<g>
			
				<linearGradient id="SVGID_4_" gradientUnits="userSpaceOnUse" x1="541.2925" y1="93.3024" x2="541.2925" y2="0.8024" gradientTransform="matrix(1 0 0 -1 0 93.8898)">
				<stop  offset="0" style="stop-color:#FFFFFF"/>
				<stop  offset="1" style="stop-color:#93D4EF"/>
			</linearGradient>
			<path class="st3" d="M557.4,68.3v14.9H536c-2.6-0.1-4.5-0.2-5.9-0.3c-1.1-0.1-1.9-0.5-2.6-1.2c-0.6-0.6-0.9-1.5-1-2.8
				c-0.1-1.5-0.2-3.8-0.3-6.8V20.6c0-2.5,0.1-4.5,0.2-5.9c0.1-1.3,0.6-2.2,1.4-2.9c0.7-0.7,1.5-1.1,2.4-1.2c1.1-0.1,3.1-0.2,5.9-0.2
				h21.3v14.9h10V0.9h-33.8c-2.5,0-5,0.2-7.4,0.5c-2.6,0.3-5,1.4-7,3.3c-2.1,2.1-3.3,4.7-3.6,7.6c-0.3,2.7-0.5,6-0.5,9.9v51.5
				c0,3.4,0.2,6.3,0.5,8.6c0.3,2.5,1.4,4.7,3.3,6.5c1.8,1.8,4.1,3,6.7,3.3c2.4,0.3,5.6,0.5,9.4,0.5h32.6V68.3L557.4,68.3L557.4,68.3
				z"/>
			<path d="M534.9,93.1c-3.8,0-6.9-0.2-9.4-0.5l0,0c-2.7-0.4-5.1-1.6-7-3.5l0,0c-1.9-1.9-3.1-4.2-3.4-6.8l0,0
				c-0.3-2.3-0.5-5.3-0.5-8.7l0,0V22.1c0-3.9,0.2-7.2,0.5-9.9l0,0c0.3-3,1.6-5.7,3.8-7.9l0,0c2.1-1.9,4.6-3.1,7.3-3.4l0,0
				c2.5-0.3,5-0.5,7.5-0.5l0,0h34.3v25.3h-11l0-14.9h-20.8c-2.8,0-4.8,0.1-5.9,0.2l0,0c-0.8,0.1-1.5,0.4-2.1,1.1l0,0
				c-0.7,0.6-1.1,1.4-1.2,2.6l0,0c-0.2,1.4-0.2,3.4-0.2,5.9l0,0v51.5c0.1,3,0.2,5.3,0.3,6.8l0,0c0.1,1.2,0.4,2,0.9,2.5l0,0
				c0.5,0.6,1.2,0.9,2.2,1l0,0c1.3,0.1,3.3,0.2,5.8,0.3l0,0l20.9,0V68.3v-0.5H568v25.3L534.9,93.1L534.9,93.1z M526.2,1.9
				c-2.5,0.3-4.7,1.3-6.7,3.1l0,0c-2,2-3.2,4.5-3.5,7.3l0,0c-0.3,2.7-0.4,6-0.4,9.8l0,0v51.5c0,3.4,0.2,6.3,0.4,8.6l0,0
				c0.3,2.4,1.4,4.5,3.1,6.2l0,0c1.8,1.8,3.9,2.8,6.4,3.2l0,0c2.4,0.3,5.5,0.5,9.3,0.5l0,0H567V68.8h-9.1v14.9H536
				c-2.6-0.1-4.6-0.2-5.9-0.3l0,0c-1.2-0.1-2.2-0.5-2.9-1.3l0,0c-0.7-0.7-1.1-1.8-1.2-3.1l0,0c-0.1-1.5-0.2-3.8-0.3-6.8l0,0V20.6
				c0-2.5,0.1-4.5,0.2-6l0,0c0.2-1.3,0.6-2.4,1.5-3.2l0,0c0.8-0.8,1.7-1.2,2.7-1.3l0,0c1.1-0.1,3.1-0.2,6-0.2l0,0h21.8v14.9h9V1.5
				h-33.3C531.1,1.5,528.7,1.6,526.2,1.9L526.2,1.9z M557.4,68.8v-0.5V68.8L557.4,68.8z"/>
		</g>
	</g>
</g>
</svg>
