<svg id="Ebene_1" data-name="Ebene 1" xmlns="http://www.w3.org/2000/svg" viewBox="0 0 567.14 96.67"><title>system</title><path d="M353.8,58.25H356c2,0,5.69.46,7.19,1.3a6.56,6.56,0,0,1,2.89,2.9c.47,1,.75,3.45.75,7.1V83.84c0,4.29-4.58,6.54-6.72,7a31,31,0,0,1-6.45.75,26.56,26.56,0,0,1-15.6-4.67c-4.39-3.18-7.56-8-9.52-14.66A82.2,82.2,0,0,1,325.68,49a86.31,86.31,0,0,1,2.71-21.39c1.77-6.91,4.86-12.33,9.15-16.25A23.49,23.49,0,0,1,353.7,5.57c6.82,0,10.74,1.68,15.79,6.91s10,11.3,12.89,20.17h4.2V.15h-2.34c-.84,2.61-1.77,4.39-2.8,5.32a4.86,4.86,0,0,1-3.36,1.4c-.75,0-3.27-.84-7.47-2.52a60.25,60.25,0,0,0-9.16-3.08A44.14,44.14,0,0,0,351,.15c-13.91,0-25.5,4.76-34.65,14.38s-13.73,21.3-13.73,35.12a48.16,48.16,0,0,0,4.48,21,42.54,42.54,0,0,0,9.81,13.07,51.39,51.39,0,0,0,14.39,9.34c5.41,2.34,12.32,3.55,20.54,3.55a87.16,87.16,0,0,0,18.68-2,78.21,78.21,0,0,0,17.38-6V69.55c0-3.37.18-5.51.56-6.35a6.92,6.92,0,0,1,2.89-3.55c1.22-.75,4.67-1.12,7.85-1.4V55.07H353.8v3.18Z" transform="translate(0.11 -0.15)" style="fill:#93d4ef"/><path d="M457.94,83c-5.14,3.92-12.05,5.88-20.64,5.88h-4.86a11.12,11.12,0,0,1-5.7-1.12,6.38,6.38,0,0,1-2.43-2.8c-.46-1.12-.65-4.2-.65-9.25V49.93c4.39,0,9.53.56,11.86,1.68s4.3,3.37,6.07,6.73a32.08,32.08,0,0,1,3.46,12.23h3.74V23.22h-3.74c-.75,7.1-2.43,11.86-5,15.5s-6.92,5.52-12.71,5.52h-3.64V12.48c0-5.51,4.86-4.86,4.86-4.86h5.79c6.91,0,11.67.37,14.2,1.22a20.57,20.57,0,0,1,10.08,6.35c2.34,2.89,4.21,7.66,5.51,14.19h3.09V2.3H389.76V6h2.42a11.82,11.82,0,0,1,7,1.87,6.53,6.53,0,0,1,2.52,3.64,50.87,50.87,0,0,1,.37,7.66V76.46c0,4.58-.28,7.38-.74,8.5a6.47,6.47,0,0,1-2.71,3.27,12.75,12.75,0,0,1-6.45,1.4h-2.42v4.3h78.73l4.77-29.15H469c-2.24,8.32-5.88,14.29-11,18.22" transform="translate(0.11 -0.15)" style="fill:#93d4ef"/><path d="M518.84,1.08Q499.09.24,485.49,14C476.43,23.13,472,34.52,472,48.25c0,12.24,3.46,22.79,10.46,31.67,8.78,11.3,21.2,16.9,37.36,16.9S548.26,90.94,557,79.07a50.39,50.39,0,0,0,10-30.91c0-13.73-4.48-25.13-13.35-34.28S533.13.52,518.84,1.08m21,73.23c-2.14,6.35-5.13,11-9.06,13.92a18.5,18.5,0,0,1-11.39,3.36c-6.73,0-12-2.61-15.69-7.94-5.33-7.56-8-19.15-8-34.93,0-13.26,1.78-23.45,5.24-30.54,4.29-8.6,10.46-12.89,18.68-12.89A19,19,0,0,1,531.35,9c3.37,2.52,6.26,6.82,8.41,12.8S543,37,543,49.19c.09,10.46-1,18.77-3.18,25.12" transform="translate(0.11 -0.15)" style="fill:#93d4ef"/><path d="M226.49,96.26c16.06,0,28.48-5.88,37.26-17.75a50.34,50.34,0,0,0,10-30.91c0-13.73-4.48-25.13-13.36-34.28S239.94-.13,225.65.43Q205.9-.41,192.3,13.32c-9.06,9.15-13.54,20.55-13.54,34.28,0,12.23,3.45,22.79,10.46,31.66,8.78,11.4,21.2,17,37.27,17M207.62,17.9C211.92,9.3,218.08,5,226.3,5a19,19,0,0,1,11.77,3.73c3.36,2.52,6.26,6.82,8.4,12.8s3.27,15.22,3.27,27.37c0,10.27-1.12,18.58-3.27,24.93s-5.13,11-9.06,13.92A18.5,18.5,0,0,1,226,91.12c-6.73,0-12-2.61-15.69-7.94-5.33-7.56-8-19.14-8-34.93.09-13.07,1.86-23.26,5.32-30.35" transform="translate(0.11 -0.15)" style="fill:#93d4ef"/><path d="M180,64.22h-4.29c-2.25,8.13-6,14.11-11.12,18.12S152.51,88.23,144,88.23h-4.86a12.38,12.38,0,0,1-5.69-1A5.81,5.81,0,0,1,131,84.4c-.47-1.12-.66-4.2-.66-9.25V49.37c4.39,0,9.53.56,11.87,1.68s4.29,3.37,6.07,6.73A32.26,32.26,0,0,1,151.76,70h3.74V22.66h-3.74c-.74,7.1-2.42,11.86-5,15.5s-6.91,5.51-12.7,5.51h-3.65V11.92c0-5.51,4.86-4.86,4.86-4.86H141c7,0,11.68.37,14.2,1.21a20.64,20.64,0,0,1,10.09,6.36c2.33,2.89,4.2,7.66,5.51,14.19h3.08V1.74H96.47V5.47H98.9a11.79,11.79,0,0,1,7,1.87A6.44,6.44,0,0,1,108.42,11a50.27,50.27,0,0,1,.38,7.66V75.9c0,4.58-.28,7.38-.75,8.5a6.38,6.38,0,0,1-2.71,3.27,12.71,12.71,0,0,1-6.44,1.4H96.47v4.3h78.74L180,64.22Z" transform="translate(0.11 -0.15)" style="fill:#93d4ef"/><path d="M31.37,89H29.31a12.54,12.54,0,0,1-8-2.81c-2.34-1.86-3.46-5.41-3.46-10.64V20.23L77.7,95h3.92V18.74c0-4.3.37-5.61,1.12-7.38a7.44,7.44,0,0,1,3-3.83c1.31-.75,3.73-1.4,7.47-2V1.74H63.5V5.57C68.35,5.47,71.9,6.78,74,9.4c1.49,2,2.24,3.83,2.24,9.34V58.62L29.59,1.74H1.2V4.82c2.71.09,2.8,1,4.2,1.77L13,14.25V75.62c0,4.86-.94,8.31-2.9,10.27S4.75,89-.11,89v3.73H31.27l.1-3.73Z" transform="translate(0.11 -0.15)" style="fill:#93d4ef"/><path d="M299.34,48.44a11,11,0,1,1-11-11A11,11,0,0,1,299.34,48.44Z" transform="translate(0.11 -0.15)" style="fill:#93d4ef;stroke:#000;stroke-miterlimit:3.489636779428679;stroke-width:0.11600677111720614px"/></svg>