<svg id="svg9136" xmlns="http://www.w3.org/2000/svg" viewBox="0 0 354.16 276.63"><title>controller</title><g id="layer1"><g id="g4558"><path id="path7905" d="M140.92,37.15A18.52,18.52,0,0,0,122.4,55.67v242a16.12,16.12,0,0,0,16.15,16.15H460.4a16.12,16.12,0,0,0,16.15-16.15V79A16.12,16.12,0,0,0,460.4,62.89H256.46c-4.85,0-12.49-3.23-15.29-12.71a17.57,17.57,0,0,0-9.26-10.55,21.12,21.12,0,0,0-8.83-2.48H140.92Zm0,2.37h82.27a22.64,22.64,0,0,1,7.75,2.16,14.63,14.63,0,0,1,8,9c3.12,10.45,11.73,14.43,17.55,14.43H460.29a13.74,13.74,0,0,1,13.79,13.78V297.52a13.74,13.74,0,0,1-13.79,13.78H138.55a13.74,13.74,0,0,1-13.78-13.78V55.67a16.13,16.13,0,0,1,16.15-16.15Z" transform="translate(-122.4 -37.15)" style="fill:#93d4ef"/><path id="path7907" d="M141.67,79.47A19.26,19.26,0,0,0,122.4,98.75V278.46h2.37V98.64a16.86,16.86,0,0,1,16.9-16.91H457.28a16.86,16.86,0,0,1,16.9,16.91V278.35h2.37V98.64a19.26,19.26,0,0,0-19.27-19.28H141.67Z" transform="translate(-122.4 -37.15)" style="fill:#93d4ef"/><path id="rect7909" d="M123.15,285.14v9.37H475.8v-9.37Zm.86,1H474.83v7.53H124Z" transform="translate(-122.4 -37.15)" style="fill:#93d4ef"/><g id="g4927"><g id="g4925"><path id="path4921" d="M306.54,104.13A79.79,79.79,0,0,0,228.38,168H214.24a1.64,1.64,0,0,0-1.65,1.65,1.62,1.62,0,0,0,.33,1l21.29,28.39a1.67,1.67,0,0,0,2.32.34,2.13,2.13,0,0,0,.33-.34l21.3-28.39a1.67,1.67,0,0,0-.34-2.32,1.65,1.65,0,0,0-1-.33H246.38a62.19,62.19,0,1,1,8.42,50.47,1.65,1.65,0,0,0-1.37-.73H237a1.65,1.65,0,0,0-1.65,1.65,1.63,1.63,0,0,0,.18.75,79.76,79.76,0,1,0,71-116Z" transform="translate(-122.4 -37.15)" style="fill:#93d4ef;stroke:#fff;stroke-miterlimit:10;stroke-width:0.19830992514315782px"/><path id="polygon4923" d="M301.24,138.7a2.38,2.38,0,0,0-2.38,2.39v52a2.38,2.38,0,0,0,1.18,2l37,21.81a2.39,2.39,0,0,0,3.27-.84l3.61-6.12a2.38,2.38,0,0,0-.83-3.26l-32.34-19.23V141.1a2.39,2.39,0,0,0-2.39-2.39h-7.11Z" transform="translate(-122.4 -37.15)" style="fill:#93d4ef;stroke:#fff;stroke-miterlimit:10;stroke-width:0.19830992514315782px"/></g></g><path id="rect5420" d="M123.15,293.64v8.3H475.8v-8.3Zm.86,1H474.83v6.46H124Z" transform="translate(-122.4 -37.15)" style="fill:#93d4ef"/></g></g></svg>