<svg id="svg9136" xmlns="http://www.w3.org/2000/svg" viewBox="0 0 354.15 276.67"><title>controller</title><g id="layer1"><g id="g4558"><path id="path7905" d="M18.52,0A18.52,18.52,0,0,0,0,18.52v242a16.12,16.12,0,0,0,16.09,16.15H338a16.12,16.12,0,0,0,16.15-16.09V41.85A16.12,16.12,0,0,0,338,25.74h-204c-4.85,0-12.49-3.23-15.29-12.71a17.58,17.58,0,0,0-9.26-10.55A21.19,21.19,0,0,0,100.68,0Zm0,2.37h82.27a22.52,22.52,0,0,1,7.75,2.16,14.63,14.63,0,0,1,8,9C119.66,24,128.27,28,134.09,28h203.8a13.74,13.74,0,0,1,13.79,13.69V260.37A13.74,13.74,0,0,1,338,274.15H16.15a13.74,13.74,0,0,1-13.78-13.7V18.52A16.13,16.13,0,0,1,18.48,2.37Z" transform="translate(0)" style="fill:#93d4ef"/><path id="path7907" d="M19.27,42.32A19.26,19.26,0,0,0,0,61.57V241.31H2.37V61.49A16.86,16.86,0,0,1,19.18,44.58h315.7a16.86,16.86,0,0,1,16.9,16.82V241.2h2.37V61.49a19.26,19.26,0,0,0-19.24-19.28H19.27Z" transform="translate(0)" style="fill:#93d4ef"/><path id="rect7909" d="M.75,248v9.37H353.4V248Zm.86,1H352.43v7.53H1.6Z" transform="translate(0)" style="fill:#93d4ef"/><g id="g4927"><g id="g4925"><path id="path4921" d="M184.14,67A79.79,79.79,0,0,0,106,130.85H91.84a1.63,1.63,0,0,0-1.65,1.63v0a1.64,1.64,0,0,0,.33,1l21.29,28.39a1.67,1.67,0,0,0,2.32.34,2.13,2.13,0,0,0,.33-.34l21.3-28.39a1.67,1.67,0,0,0-.34-2.32,1.64,1.64,0,0,0-1-.33H124a62.19,62.19,0,1,1,8.42,50.47,1.65,1.65,0,0,0-1.37-.73H114.6a1.65,1.65,0,0,0-1.65,1.65,1.63,1.63,0,0,0,.18.75,79.76,79.76,0,1,0,71-116Z" transform="translate(0)" style="fill:#93d4ef;stroke:#fff;stroke-miterlimit:10;stroke-width:0.19830992817878723px"/><path id="polygon4923" d="M178.84,101.55a2.39,2.39,0,0,0-2.38,2.38h0v52a2.39,2.39,0,0,0,1.18,2l37,21.81a2.39,2.39,0,0,0,3.27-.84l3.61-6.12a2.38,2.38,0,0,0-.83-3.26L188.35,150.3V104a2.39,2.39,0,0,0-2.39-2.39h-7.12Z" transform="translate(0)" style="fill:#93d4ef;stroke:#fff;stroke-miterlimit:10;stroke-width:0.19830992817878723px"/></g></g><path id="rect5420" d="M.75,256.49v8.3H353.4v-8.3Zm.86,1H352.43V264H1.6Z" transform="translate(0)" style="fill:#93d4ef"/></g></g></svg>