<?xml version="1.0" encoding="utf-8"?>
<!-- Generator: Adobe Illustrator 24.0.3, SVG Export Plug-In . SVG Version: 6.00 Build 0)  -->
<svg version="1.1"
	 id="svg9136" xmlns:cc="http://creativecommons.org/ns#" xmlns:dc="http://purl.org/dc/elements/1.1/" xmlns:inkscape="http://www.inkscape.org/namespaces/inkscape" xmlns:rdf="http://www.w3.org/1999/02/22-rdf-syntax-ns#" xmlns:sodipodi="http://sodipodi.sourceforge.net/DTD/sodipodi-0.dtd" xmlns:svg="http://www.w3.org/2000/svg"
	 xmlns="http://www.w3.org/2000/svg" xmlns:xlink="http://www.w3.org/1999/xlink" x="0px" y="0px" viewBox="0 0 598.9 351"
	 style="enable-background:new 0 0 598.9 351;" xml:space="preserve">
<style type="text/css">
	.st0{fill:#93D4EF;}
	.st1{fill:#93D4EF;stroke:#FFFFFF;stroke-width:2.692;stroke-miterlimit:1.1137;}
</style>
<sodipodi:namedview  bordercolor="#666666" borderopacity="1.0" fit-margin-bottom="0" fit-margin-left="0" fit-margin-right="0" fit-margin-top="0" id="base" inkscape:bbox-nodes="true" inkscape:bbox-paths="true" inkscape:current-layer="layer1" inkscape:cx="266.77424" inkscape:cy="197.8786" inkscape:document-units="px" inkscape:pageopacity="0.0" inkscape:pageshadow="2" inkscape:snap-bbox="true" inkscape:snap-global="true" inkscape:window-height="808" inkscape:window-maximized="0" inkscape:window-width="1440" inkscape:window-x="-5" inkscape:window-y="121" inkscape:zoom="0.99" pagecolor="#ffffff" showgrid="false" showguides="false" units="px">
	</sodipodi:namedview>
<g id="layer1" transform="translate(9.2011719,-238.94944)" inkscape:groupmode="layer" inkscape:label="Layer 1">
	<g id="g5316" transform="matrix(0.06841316,0,0,0.06841316,13.37323,279.01986)">
	</g>
	<g id="g4558" transform="matrix(1.0767869,0,0,1.0767869,33.084375,-35.303962)">
		<path id="path7905" inkscape:connector-curvature="0" class="st0" d="M91.6,289.2c-9.5,0-17.2,7.7-17.2,17.2v21.7v6.3v196.7
			c0,8.3,6.7,15,15,15h298.9c8.3,0,15-6.7,15-15v-203c0-8.3-6.7-15-15-15H202.9h-4c-4.5,0-11.6-3-14.2-11.8c-1.5-5-5.1-8-8.6-9.8
			c-3.5-1.8-6.7-2.3-8.2-2.3c-20.6,0-58.2,0-75.3,0L91.6,289.2z M91.6,291.4c16.7,0,55.4,0,76.4,0c0.8,0,4.1,0.5,7.2,2
			s6.2,4.2,7.4,8.4c2.9,9.7,10.9,13.4,16.3,13.4h4h185.3c7.1,0,12.8,5.7,12.8,12.8v203c0,7.1-5.7,12.8-12.8,12.8H89.4
			c-7.1,0-12.8-5.7-12.8-12.8V334.4v-6.3v-21.7C76.6,298.1,83.3,291.4,91.6,291.4L91.6,291.4z"/>
		<path id="path7907" inkscape:connector-curvature="0" class="st0" d="M92.3,328.5c-9.9,0-17.9,8-17.9,17.9v27.8v120.3v18.8h2.2
			v-18.8V374.1v-27.8c0-8.7,7-15.7,15.7-15.7h293.1c8.7,0,15.7,7,15.7,15.7v27.8v120.3v18.8h2.2v-18.8V374.1v-27.8
			c0-9.9-8-17.9-17.9-17.9H92.3z"/>
		<path id="rect7909" inkscape:connector-curvature="0" class="st0" d="M75.1,519.5v0.4v8.3h327.5v-8.7H75.1z M75.9,520.4h325.8v7
			H75.9V520.4z"/>
		<g id="g4927" transform="matrix(0.06841316,0,0,0.06841316,13.37323,278.94408)">
			<g id="g4925">
				<path id="path4921" inkscape:connector-curvature="0" class="st1" d="M3391.7,1059.1c-523.9,0-961.1,372.6-1061,867.4h-192
					c-12.4,0-22.4,10-22.4,22.4c0,4.8,1.6,9.6,4.5,13.4l289.1,385.5c7.4,9.9,21.5,11.9,31.4,4.5c1.7-1.3,3.2-2.8,4.5-4.5
					l289.1-385.5c7.4-9.9,5.4-24-4.5-31.4c-3.9-2.9-8.6-4.5-13.4-4.5h-141.9c95.3-362.3,424.2-629.8,816.6-629.8
					c467,0,845,378,845,845s-378,845-845,845c-292.9,0-550.7-148.9-702.4-375.1c-4.2-6.2-11.1-9.9-18.6-9.9h-223.3
					c-12.4,0-22.4,10-22.4,22.4c0,3.5,0.8,7,2.5,10.2c179.3,350.3,543.9,590,964.3,590c597.6,0,1082.6-485,1082.6-1082.6
					C4474.3,1544.1,3989.4,1059.1,3391.7,1059.1z"/>
				<path id="polygon4923" inkscape:connector-curvature="0" class="st1" d="M3319.8,1528.4c-17.9,0-32.4,14.5-32.4,32.4v705.3
					c0,11.5,6.1,22.1,16,27.9l502.2,296c15.4,9.1,35.3,4,44.4-11.4l49-83c9.1-15.4,4-35.2-11.3-44.3l-439-261v-629.4
					c0-17.9-14.5-32.4-32.4-32.4H3319.8z"/>
			</g>
		</g>
		<path id="rect5420" inkscape:connector-curvature="0" class="st0" d="M75.1,527.4v0.4v7.3h327.5v-7.7H75.1z M75.9,528.3h325.8v6
			H75.9V528.3z"/>
	</g>
</g>
</svg>
