<svg id="svg9136" xmlns="http://www.w3.org/2000/svg" viewBox="0 0 397.3 98.11"><title>system</title><rect y="12.61" width="397.3" height="85.5" style="fill:none"/><g style="isolation:isolate"><path d="M27.62,70.35V81.88H.22V12.61H11.75V70.35H27.62Z" style="fill:#93d4ef"/><path d="M67,81.88H55.41V53.06H43.88V81.88H32.35V24.14A11.46,11.46,0,0,1,43.88,12.61H55.41A11.54,11.54,0,0,1,67,24.14ZM55.41,41.44V24.14H43.88v17.3Z" style="fill:#93d4ef"/><path d="M95.66,58.82l-23-17.38V24.14A11.46,11.46,0,0,1,84.13,12.61H95.66a11.46,11.46,0,0,1,11.53,11.53v8.7H95.66v-8.7H84.13V35.67l23.06,17.39V70.35A11.45,11.45,0,0,1,95.66,81.88H84.13A11.45,11.45,0,0,1,72.61,70.35V61.66H84.13v8.69H95.66Z" style="fill:#93d4ef"/><path d="M147.45,12.61V24.14H135.83V81.88H124.3V24.14H112.77V12.61Z" style="fill:#93d4ef"/><path d="M207.08,41.44a11.62,11.62,0,0,1-11.63,11.62H183.92V81.88H172.4V12.61h23a11.54,11.54,0,0,1,11.63,11.53Zm-11.63,0V24.14H183.92v17.3Z" style="fill:#93d4ef"/><path d="M239.3,70.35V81.88H211.9V12.61h11.52V70.35H239.3Z" style="fill:#93d4ef"/><path d="M278.71,81.88H267.08V53.06H255.55V81.88H244V24.14a11.46,11.46,0,0,1,11.52-11.53h11.53a11.54,11.54,0,0,1,11.63,11.53ZM267.08,41.44V24.14H255.55v17.3Z" style="fill:#93d4ef"/><path d="M319,12.61V41.53a11.53,11.53,0,0,1-11.62,11.53V81.88H295.81V53.06a11.45,11.45,0,0,1-11.53-11.53V12.61h11.53V41.53h11.53V12.61Z" style="fill:#93d4ef"/><path d="M351.57,70.35V81.88H335.69a11.45,11.45,0,0,1-11.53-11.53V24.14a11.46,11.46,0,0,1,11.53-11.53h15.88V24.14H335.69v17.3h15.88V53.06H335.69V70.35h15.88Z" style="fill:#93d4ef"/><path d="M391.44,70.35a11.53,11.53,0,0,1-11.62,11.53H356.76V12.61h23.06a11.53,11.53,0,0,1,11.62,11.53Zm-11.62,0V24.14H368.29V70.35Z" style="fill:#93d4ef"/></g></svg>