<svg id="svg9136" xmlns="http://www.w3.org/2000/svg" viewBox="0 0 391.2 69.3"><title>system1</title><g style="isolation:isolate"><path d="M30.6,70.4V81.9H3.2V12.6H14.7V70.3H30.6Z" transform="translate(-3.2 -12.6)" style="fill:#93d4ef"/><path d="M70,81.9H58.4V53.1H46.9V81.9H35.4V24.1A11.44,11.44,0,0,1,46.9,12.6H58.4A11.52,11.52,0,0,1,70,24.1ZM58.4,41.4V24.1H46.9V41.4Z" transform="translate(-3.2 -12.6)" style="fill:#93d4ef"/><path d="M98.7,58.8,75.6,41.4V24.1A11.44,11.44,0,0,1,87.1,12.6H98.6a11.44,11.44,0,0,1,11.5,11.5v8.7H98.7V24.1H87.1V35.6L110.2,53V70.3A11.44,11.44,0,0,1,98.7,81.8H87.1A11.44,11.44,0,0,1,75.6,70.3V61.6H87.1v8.7H98.6V58.8Z" transform="translate(-3.2 -12.6)" style="fill:#93d4ef"/><path d="M150.4,12.6V24.1H138.8V81.8H127.3V24.1H115.8V12.6Z" transform="translate(-3.2 -12.6)" style="fill:#93d4ef"/><path d="M210.1,41.4A11.61,11.61,0,0,1,198.5,53H187V81.8H175.5V12.6h23.1a11.52,11.52,0,0,1,11.6,11.5V41.4Zm-11.6,0V24.1H187V41.4Z" transform="translate(-3.2 -12.6)" style="fill:#93d4ef"/><path d="M242.3,70.4V81.9H214.9V12.6h11.5V70.3h15.9Z" transform="translate(-3.2 -12.6)" style="fill:#93d4ef"/><path d="M281.7,81.9H270.1V53.1H258.6V81.9H247V24.1a11.44,11.44,0,0,1,11.5-11.5H270a11.52,11.52,0,0,1,11.6,11.5V81.9ZM270.1,41.4V24.1H258.6V41.4Z" transform="translate(-3.2 -12.6)" style="fill:#93d4ef"/><path d="M322,12.6V41.5A11.52,11.52,0,0,1,310.4,53V81.8H298.9V53.1a11.44,11.44,0,0,1-11.5-11.5v-29h11.5V41.5h11.5V12.6Z" transform="translate(-3.2 -12.6)" style="fill:#93d4ef"/><path d="M354.6,70.4V81.9H338.7a11.44,11.44,0,0,1-11.5-11.5V24.1a11.44,11.44,0,0,1,11.5-11.5h15.8V24.1H338.6V41.4h15.8V53H338.5V70.3h16.1Z" transform="translate(-3.2 -12.6)" style="fill:#93d4ef"/><path d="M394.4,70.4a11.52,11.52,0,0,1-11.6,11.5H359.7V12.6h23.1a11.52,11.52,0,0,1,11.6,11.5Zm-11.6,0V24.1H371.3V70.3h11.5Z" transform="translate(-3.2 -12.6)" style="fill:#93d4ef"/></g></svg>