<svg id="Ebene_1" data-name="Ebene 1" xmlns="http://www.w3.org/2000/svg" viewBox="0 0 362.7 72.6"><title>system</title><path d="M10.7,36.5a4.42,4.42,0,0,1,6.2-.6,5.45,5.45,0,0,1,1.5,2.4l9.9,33.9H22.5c-.9-3.1-1.8-6.2-2.7-9.4H8.6c-.9,3.1-1.8,6.2-2.7,9.4H.1C3.2,61.4,6.3,50.6,9.5,39.9c.3-1.3.4-2.5,1.2-3.4m3.4,6.9c-1.4,4.7-2.7,9.4-4.1,14.1h8.2C16.8,52.8,15.5,48.1,14.1,43.4Z" transform="translate(-0.1 0)" style="fill:#93d4ef"/><path d="M51.5,36.7A4.33,4.33,0,0,1,56.2,35a4.5,4.5,0,0,1,3.2,3.2l9.9,33.9H63.5c-.9-3.1-1.8-6.2-2.7-9.4H49.6c-.9,3.1-1.8,6.2-2.7,9.4H41.1c3.1-10.8,6.3-21.7,9.4-32.5a10,10,0,0,1,1-2.9m-.4,20.7h8.1c-1.3-4.7-2.7-9.4-4.1-14.1C53.8,48.1,52.4,52.8,51.1,57.4Z" transform="translate(-0.1 0)" style="fill:#93d4ef"/><path d="M23.9,34.9h21v5.7H37.2V72.1H31.7V40.6H24C23.9,38.7,23.9,36.8,23.9,34.9Z" transform="translate(-0.1 0)" style="fill:#93d4ef"/><path d="M75.4,35.2a4.68,4.68,0,0,1,1.7-.2h6.6a10.45,10.45,0,0,1,8.9,5.7,12.34,12.34,0,0,1,.9,7.1,9.7,9.7,0,0,1-3.2,6.7,40.47,40.47,0,0,1-3.4,2.3,1.65,1.65,0,0,0-.3,2c2.9,4.5,6,9,9,13.5H89c-2.9-4.3-5.7-8.6-8.6-13a5,5,0,0,1-.6-4.3,3.91,3.91,0,0,1,2.4-2.3,10.31,10.31,0,0,0,5.1-3.8,6.38,6.38,0,0,0,.4-4.7,4.52,4.52,0,0,0-4.5-3.5H78.9a1.16,1.16,0,0,0-1.2,1.2V72.2H72.1V39.5A4.89,4.89,0,0,1,75.4,35.2Z" transform="translate(-0.1 0)" style="fill:#93d4ef"/><path d="M98.6,34.9h5.9V72.1H98.6Z" transform="translate(-0.1 0)" style="fill:#93d4ef"/><path d="M224.6,34.3a16.59,16.59,0,0,0,8.6-14.2C233.2,6.3,218.6,0,205,0s-28.1,6.3-28.1,20.1c0,5.9,3.3,11.1,8.6,14.2-7.5,3.5-11.7,9.4-11.7,16.8,0,13.9,15.7,21.2,31.3,21.2s31.3-7.3,31.3-21.2C236.3,43.7,232.1,37.8,224.6,34.3ZM205,25.6c-3.5,0-6.3-2.2-6.3-5s2.8-5,6.3-5,6.3,2.2,6.3,5S208.5,25.6,205,25.6Zm0,17.7c3.8,0,7,2.6,7,5.7s-3.1,5.6-7,5.6-7-2.5-7-5.6S201.2,43.3,205,43.3Z" transform="translate(-0.1 0)" style="fill:#ad0e0e"/><path d="M291,11.8C285.2,4.1,276.7,0,266.4,0s-18.8,4.1-24.5,11.8c-4.9,6.5-7.5,15.2-7.5,24.5,0,18.1,9.9,36.3,32.1,36.3s32.1-18.2,32.1-36.3C298.5,26.9,295.8,18.2,291,11.8ZM266.4,51.1c-7.7,0-8.6-10-8.6-14.9s.8-14.7,8.6-14.7,8.6,9.9,8.6,14.7S274.2,51.1,266.4,51.1Z" transform="translate(-0.1 0)" style="fill:#ad0e0e"/><path d="M355.1,11.8C349.4,4.1,340.9,0,330.6,0s-18.8,4.1-24.5,11.8c-4.9,6.5-7.5,15.2-7.5,24.5,0,18.1,9.9,36.3,32.1,36.3s32.1-18.2,32.1-36.3C362.7,26.9,360,18.2,355.1,11.8ZM330.6,51.1c-7.7,0-8.6-10-8.6-14.9s.8-14.7,8.6-14.7,8.6,9.9,8.6,14.7S338.3,51.1,330.6,51.1Z" transform="translate(-0.1 0)" style="fill:#ad0e0e"/><polygon points="119.1 1 119.1 23 149.3 23 126.8 72.2 152.3 72.2 182.5 1 119.1 1" style="fill:#ad0e0e"/></svg>