<svg id="Ebene_1" data-name="Ebene 1" xmlns="http://www.w3.org/2000/svg" viewBox="0 0 352.67 41.96"><title>system</title><g id="g3"><path id="path5" d="M21,0H331.69a21,21,0,0,1,21,21h0a21,21,0,0,1-21,21H21A21,21,0,0,1,0,21H0A21,21,0,0,1,21,0Z" transform="translate(0 0)" style="fill:#93d4ef"/><polygon id="polygon7" points="233.27 7.17 233.27 7.17 278.24 7.17 278.24 10.24 233.27 10.24 233.27 7.17" style="fill:#e2001a"/><polygon id="polygon9" points="233.27 13.31 233.27 13.31 278.24 13.31 278.24 16.38 233.27 16.38 233.27 13.31" style="fill:#e95e38"/><polygon id="polygon11" points="233.27 19.45 233.27 19.45 278.24 19.45 278.24 22.52 233.27 22.52 233.27 19.45" style="fill:#fc0"/><polygon id="polygon13" points="233.27 25.59 233.27 25.59 278.24 25.59 278.24 28.65 233.27 28.65 233.27 25.59" style="fill:#57ab27"/><polygon id="polygon15" points="233.27 31.72 233.27 31.72 278.24 31.72 278.24 34.79 233.27 34.79 233.27 31.72" style="fill:#009ee0"/><path id="path17" d="M312,25.45q0,5.84-10.26,5.83h-3.5c-3.86,0-6.53-.67-8-2S288,25.65,288,22.38V18q0-4.89,2.24-6.88t8-2h3.5c3.17,0,5.56.42,7.16,1.28a4,4,0,0,1,2.4,3.75v1.58h-8.22v-.57a1,1,0,0,0-.45-1,4.32,4.32,0,0,0-1.79-.24h-1.95a5.22,5.22,0,0,0-2.14.27c-.31.18-.47.6-.47,1.28v3a9.22,9.22,0,0,1,4.44-1h2.89Q308,17.5,310,19a5.27,5.27,0,0,1,2,4.54v1.94ZM197.49,14.79h-4V26.15h4.13V20.21c0-1.55,1-2.32,2.67-2.32s2.15.51,2.24,2h3.87c0-3.88-.51-5.34-4.64-5.34-2.5,0-3.36.52-4.31,2.41V14.79ZM35,21.62H28.32v5.45h12L35,21.62ZM40.27,15h-12V20.5h6.57L40.27,15Zm176.25,8.88c-4,0-4.57-.35-4.57-2.33h10.86c-.18-5.51-.18-6.8-7.5-6.8-6.2,0-7.58,1.12-7.58,6,0,4.56,1.81,5.68,6.81,5.77,5.6,0,8.27-.26,8.27-4h-4.05c-.18.86-.52,1.3-2.24,1.3Zm-4.65-4.74c.17-1.21.51-1.64,3.27-1.64,3,0,3.44.18,3.62,1.64Zm-154,.43H62c-.35-3.88-1.47-4.82-7.23-4.82-6.55,0-8,1-8,5.85s1.38,5.95,7.49,5.95c6.46,0,7.75-.87,7.75-4.91H57.9c0,1.12-.43,1.63-3.62,1.63-2.76,0-3.36-.68-3.36-2.92s.6-2.16,3.88-2.16c2.41,0,2.84.26,3.1,1.38Zm96,.69c0-4.65-1.37-5.6-8-5.6-7.14,0-8,1.21-8,6s1.2,5.85,8,5.85c7.24,0,8-1.2,8-6.28Zm-11.79.26c0-2.33.51-2.58,3.53-2.58,3.35,0,4,.08,4,2.58,0,2.32-.43,2.75-3.62,2.75-3.44,0-3.87-.34-3.87-2.75ZM191,20.3c0-4.65-1.29-5.6-7.92-5.6-7.07,0-7.93,1.12-7.93,5.94s1.21,5.94,7.93,5.94c7.23,0,7.92-1.2,7.92-6.28Zm-11.71.26c0-2.33.51-2.58,3.53-2.58,3.36,0,4,.08,4,2.58,0,2.32-.43,2.75-3.62,2.75-3.44,0-3.87-.34-3.87-2.75ZM80.37,20.3c0-4.65-1.29-5.6-7.92-5.6-7.15,0-8,1.12-8,5.94s1.21,5.94,8,5.94c7.23,0,7.92-1.2,7.92-6.28Zm-11.63.26c0-2.33.52-2.58,3.45-2.58,3.36,0,4,.08,4,2.58,0,2.32-.43,2.75-3.62,2.75-3.36,0-3.79-.34-3.79-2.75ZM168.29,10V16.6c-.94-1.3-1.8-2-5.25-2-5.51,0-6.54,1.46-6.54,5.94s1.46,5.85,6.8,5.85c3.36,0,4.39-.86,5.17-2.32v2.06h4.13V10Zm-3,7.93c2.32,0,3.1.34,3.1,2.15,0,2.76-.17,3-3.44,3s-4.14-.09-4.14-2.42c0-2.67,1-2.75,4.48-2.75ZM27.94,14.67v-7a13.51,13.51,0,0,0-3.81-.52A14.06,14.06,0,0,0,10.24,21a13.91,13.91,0,0,0,14,13.82,12,12,0,0,0,3.73-.6V27.07a7.29,7.29,0,0,1-11.06-6.2,7.2,7.2,0,0,1,11.06-6.2Zm59,.12H83V26.15h4.13V20.3c0-1.72.87-2.33,3.19-2.33,2.15,0,2.76.78,2.76,2.93v5.25h4.22v-6c0-1.64,1.29-2.16,3.27-2.16s2.75.52,2.75,2.16v6h4.14V19.44c0-3.36-2.07-4.91-5.86-4.91-3.27,0-4.48,1.2-4.91,2.5-.86-1.47-2.06-2.5-5.34-2.5-3.1,0-4,1-4.48,2.93V14.79Zm27.81,0h-3.87V26.15H115V20.3c0-1.72,1-2.33,3.1-2.33s2.75.69,2.75,2.93v5.25h4.22v-6c0-1.64,1.21-2.16,3.19-2.16s2.84.61,2.84,2.16v6h4.14V19.44c0-3.36-2.07-4.91-5.86-4.91-3.27,0-4.39,1.12-4.91,2.5-.86-1.47-2.07-2.5-5.34-2.5-3,0-3.79,1-4.39,2.93V14.79ZM341.76,27h-3.5V31H330V27H315.18l0-5.89L327,9.38h11.27V22.17h3.5V27ZM330,22.17V15l-7.12,7.17Zm-26.27,2.95V23.54a1,1,0,0,0-.56-1.06,8.15,8.15,0,0,0-2.38-.22h-1.58a8.58,8.58,0,0,0-2.41.21c-.38.14-.57.49-.57,1.07v1.58c0,.59.19,1,.57,1.11a8,8,0,0,0,2.41.23h1.58a7.79,7.79,0,0,0,2.41-.23c.35-.14.53-.51.53-1.11Z" transform="translate(0 0)" style="fill:#fff"/></g></svg>